<?xml version="1.0" encoding="UTF-8" standalone="no"?>
<!-- Created with Inkscape (http://www.inkscape.org/) -->

<svg
   xmlns:dc="http://purl.org/dc/elements/1.1/"
   xmlns:cc="http://creativecommons.org/ns#"
   xmlns:rdf="http://www.w3.org/1999/02/22-rdf-syntax-ns#"
   xmlns:svg="http://www.w3.org/2000/svg"
   xmlns="http://www.w3.org/2000/svg"
   xmlns:sodipodi="http://sodipodi.sourceforge.net/DTD/sodipodi-0.dtd"
   xmlns:inkscape="http://www.inkscape.org/namespaces/inkscape"
   width="278.27136mm"
   height="261.64346mm"
   viewBox="0 0 986.00089 927.08313"
   id="svg5394"
   version="1.1"
   inkscape:version="0.91 r13725"
   sodipodi:docname="alveolar_type_II_epithelial_cell.svg">
  <defs
     id="defs5396" />
  <sodipodi:namedview
     id="base"
     pagecolor="#ffffff"
     bordercolor="#666666"
     borderopacity="1.0"
     inkscape:pageopacity="0.0"
     inkscape:pageshadow="2"
     inkscape:zoom="0.35"
     inkscape:cx="119.42899"
     inkscape:cy="449.25584"
     inkscape:document-units="px"
     inkscape:current-layer="layer1"
     showgrid="false"
     fit-margin-top="0"
     fit-margin-left="0"
     fit-margin-right="0"
     fit-margin-bottom="0"
     inkscape:window-width="1920"
     inkscape:window-height="1005"
     inkscape:window-x="-9"
     inkscape:window-y="-9"
     inkscape:window-maximized="1" />
  <metadata
     id="metadata5399">
    <rdf:RDF>
      <cc:Work
         rdf:about="">
        <dc:format>image/svg+xml</dc:format>
        <dc:type
           rdf:resource="http://purl.org/dc/dcmitype/StillImage" />
        <dc:title></dc:title>
      </cc:Work>
    </rdf:RDF>
  </metadata>
  <g
     inkscape:label="Layer 1"
     inkscape:groupmode="layer"
     id="layer1"
     transform="translate(247.28613,-54.53492)">
    <g
       id="g4760"
       transform="translate(-754.28571,1065.7143)">
      <ellipse
         ry="463.01562"
         rx="492.47449"
         cy="-547.63782"
         cx="1000"
         id="path4687-8"
         style="color:#000000;clip-rule:nonzero;display:inline;overflow:visible;visibility:visible;opacity:1;isolation:auto;mix-blend-mode:normal;color-interpolation:sRGB;color-interpolation-filters:linearRGB;solid-color:#000000;solid-opacity:1;fill:#a6cee3;fill-opacity:1;fill-rule:nonzero;stroke:#000000;stroke-width:1.05187511;stroke-linecap:butt;stroke-linejoin:miter;stroke-miterlimit:1;stroke-dasharray:none;stroke-dashoffset:0;stroke-opacity:1;color-rendering:auto;image-rendering:auto;shape-rendering:auto;text-rendering:auto;enable-background:accumulate" />
      <path
         style="fill:none;stroke:#000000;stroke-width:15;stroke-miterlimit:4;stroke-dasharray:none"
         d="m 780.95,-202.89035 c -24.6587,-2.1879 -42.3535,-8.9195 -53.95,-20.524 -7.3678,-7.3729 -11.7706,-15.4751 -14.7367,-27.1189 l -2.2633,-8.8849 0,-240.5 c 0,-228.0335 0.094,-240.9925 1.8123,-250 11.0747,-58.0548 55.833,-99.0425 134.6877,-123.341 43.5479,-13.4189 92.6684,-19.6657 154.5,-19.6481 51.4511,0.015 87.2927,3.5418 127.8935,12.586 91.8085,20.4511 147.2456,65.4919 159.3201,129.4422 1.684,8.9188 1.7864,23.268 1.7864,250.4609 0,225.5236 -0.1118,241.4793 -1.741,248.4648 -5.211,22.3431 -18.4398,36.3556 -41.3974,43.8496 -12.5625,4.1009 -24.6534,5.5403 -45.8616,5.4599 -28.009,-0.1062 -56.2238,-3.6945 -113,-14.3713 -55.8725,-10.5069 -70.8786,-12.3514 -94.4546,-11.6099 -19.828,0.6237 -24.724,1.3052 -73.6875,10.2572 -19.3281,3.5338 -42.0531,7.5514 -50.5,8.9281 -34.9231,5.6918 -69.3383,8.2413 -88.4079,6.5494 z m 236.1163,-177.0932 c 9.7767,-1.7553 19.4663,-4.9188 27.8533,-9.0937 34.6379,-17.2421 60.0137,-52.6236 69.8136,-97.3409 1.8933,-8.6389 2.1967,-13.1307 2.2292,-33 0.033,-20.4075 -0.2257,-24.23 -2.2976,-33.9115 -16.6187,-77.6558 -79.7223,-122.4492 -145.1648,-103.0437 -9.0421,2.6812 -22.9434,9.9986 -32.1281,16.9116 -26.0572,19.6123 -43.9046,49.3812 -52.0869,86.8792 -1.9237,8.8159 -2.2179,13.1494 -2.2179,32.6644 0,24.784 1.28,33.6816 7.5528,52.5 15.2276,45.6827 49.5638,78.9219 89.8801,87.0083 8.0509,1.6148 28.6115,1.8545 36.5663,0.4263 z"
         id="path4301"
         inkscape:connector-curvature="0" />
    </g>
  </g>
</svg>
