<?xml version="1.0" encoding="UTF-8" standalone="no"?>
<!-- Created with Inkscape (http://www.inkscape.org/) -->

<svg
   xmlns:dc="http://purl.org/dc/elements/1.1/"
   xmlns:cc="http://creativecommons.org/ns#"
   xmlns:rdf="http://www.w3.org/1999/02/22-rdf-syntax-ns#"
   xmlns:svg="http://www.w3.org/2000/svg"
   xmlns="http://www.w3.org/2000/svg"
   xmlns:sodipodi="http://sodipodi.sourceforge.net/DTD/sodipodi-0.dtd"
   xmlns:inkscape="http://www.inkscape.org/namespaces/inkscape"
   width="278.27136mm"
   height="261.64346mm"
   viewBox="0 0 986.00089 927.08313"
   id="svg4804"
   version="1.1"
   inkscape:version="0.91 r13725"
   sodipodi:docname="alveolar_macrophage.svg">
  <defs
     id="defs4806" />
  <sodipodi:namedview
     id="base"
     pagecolor="#ffffff"
     bordercolor="#666666"
     borderopacity="1.0"
     inkscape:pageopacity="0.0"
     inkscape:pageshadow="2"
     inkscape:zoom="0.35"
     inkscape:cx="-31.999614"
     inkscape:cy="409.25582"
     inkscape:document-units="px"
     inkscape:current-layer="layer1"
     showgrid="false"
     fit-margin-top="0"
     fit-margin-left="0"
     fit-margin-right="0"
     fit-margin-bottom="0"
     inkscape:window-width="1920"
     inkscape:window-height="1005"
     inkscape:window-x="-9"
     inkscape:window-y="-9"
     inkscape:window-maximized="1" />
  <metadata
     id="metadata4809">
    <rdf:RDF>
      <cc:Work
         rdf:about="">
        <dc:format>image/svg+xml</dc:format>
        <dc:type
           rdf:resource="http://purl.org/dc/dcmitype/StillImage" />
        <dc:title></dc:title>
      </cc:Work>
    </rdf:RDF>
  </metadata>
  <g
     inkscape:label="Layer 1"
     inkscape:groupmode="layer"
     id="layer1"
     transform="translate(95.857529,-14.534903)">
    <g
       id="g4785"
       transform="translate(1917.6396,1068.5714)">
      <ellipse
         ry="463.01562"
         rx="492.47449"
         cy="-590.49493"
         cx="-1520.4967"
         id="path4687"
         style="color:#000000;clip-rule:nonzero;display:inline;overflow:visible;visibility:visible;opacity:1;isolation:auto;mix-blend-mode:normal;color-interpolation:sRGB;color-interpolation-filters:linearRGB;solid-color:#000000;solid-opacity:1;fill:#ff7f00;fill-opacity:1;fill-rule:nonzero;stroke:#000000;stroke-width:1.05187511;stroke-linecap:butt;stroke-linejoin:miter;stroke-miterlimit:1;stroke-dasharray:none;stroke-dashoffset:0;stroke-opacity:1;color-rendering:auto;image-rendering:auto;shape-rendering:auto;text-rendering:auto;enable-background:accumulate" />
      <path
         style="fill:none;stroke:#000000;stroke-width:15;stroke-miterlimit:4;stroke-dasharray:none"
         d="m -1523.6748,-243.95781 c -13.4571,-33.05675 -27.8389,-53.56244 -42.3188,-60.33846 -12.0423,-5.63527 -22.6829,-3.736 -36.6281,6.53805 -5.1286,3.77843 -5.8886,4.0633 -12.8096,4.80247 -5.3825,0.57481 -11.6426,0.42819 -23.3198,-0.54625 -35.3916,-2.95331 -51.105,-1.16812 -68.7171,7.80657 l -6.2825,3.20142 -1.0499,6.27042 c -1.3368,7.98446 -2.5734,10.96667 -4.5471,10.96667 -4.6107,0 -10.1124,-16.80459 -28.8848,-88.22709 l -5.3092,-20.19978 -7.5875,-4.09253 c -9.4376,-5.09038 -18.2657,-8.56847 -47.7278,-18.80391 -12.7815,-4.44036 -27.2891,-9.70355 -32.2391,-11.69578 l -9.0002,-3.62243 1.699,-2.09819 c 5.1738,-6.38932 9.8647,-20.16902 12.1466,-35.68193 1.1126,-7.56252 1.3037,-13.25407 0.9302,-27.6881 -0.6066,-23.4421 -2.0413,-31.06368 -7.3177,-38.8727 -8.1536,-12.06761 -24.9247,-33.75114 -47.6262,-61.57621 l -12.6626,-15.52061 1.0624,-3.07069 c 2.3542,-6.80551 16.2724,-33.99519 21.2543,-41.52094 7.408,-11.19111 17.107,-20.55783 26.1586,-25.26254 13.9829,-7.26793 15.0935,-8.86543 17.3918,-25.01847 1.2244,-8.6054 1.5653,-16.20426 1.5734,-35.06994 0.012,-27.67398 -1.0578,-36.13522 -5.803,-45.90663 -2.6759,-5.51037 -2.7068,-5.69502 -1.0089,-6.01538 0.9635,-0.18186 10.1178,-0.74669 20.343,-1.25525 19.7182,-0.98086 27.0411,-2.06194 35.9278,-5.30435 11.0589,-4.0349 21.7849,-13.40846 28.7407,-25.11675 2.5398,-4.27524 4.516,-6.49546 7.1609,-8.04555 15.7365,-9.22221 28.4411,-37.56827 35.0989,-78.31201 l 1.8805,-11.50742 4.7497,-3.08776 c 10.4584,-6.79909 23.4519,-8.49174 36.862,-4.80196 3.7182,1.02311 14.5002,5.46305 23.9599,9.86656 19.2254,8.94943 23.9879,10.47476 32.7056,10.47476 5.6257,0 6.3889,-0.23239 11.4008,-3.47175 6.6549,-4.30127 14.4508,-10.20747 35.0308,-26.53958 22.9898,-18.24434 34.3792,-25.80364 44.5442,-29.56454 l 3.9814,-1.473 6.9725,4.4726 c 3.8349,2.46 13.6417,7.6278 21.7929,11.4839 28.8971,13.67047 39.5144,21.10006 52.9079,37.02265 8.4428,10.03719 15.925,15.81578 24.0243,18.55436 8.1106,2.74239 22.72,2.70892 32.5347,-0.0744 1.6357,-0.46394 1.6322,-0.41476 -0.1124,1.52702 -5.146,5.72789 -6.0241,14.55208 -2.0282,20.38358 3.6367,5.30747 7.0772,6.97452 14.394,6.97452 5.4425,0 6.9305,-0.32121 9.4337,-2.03642 5.2743,-3.61407 7.0449,-7.13855 7.0449,-14.02358 0,-5.34965 -0.2779,-6.40741 -2.4218,-9.21824 -2.9647,-3.88693 -6.6897,-6.26332 -10.901,-6.9545 -3.003,-0.49283 -1.982,-1.03621 18.1487,-9.65741 11.7319,-5.0243 21.4055,-9.06047 21.4967,-8.96929 0.091,0.0913 0.8008,5.09081 1.5767,11.11008 1.6435,12.7488 3.7108,20.05958 6.5512,23.16686 1.1144,1.21908 2.4605,3.73761 2.9914,5.59674 1.6368,5.73135 6.7388,10.18701 12.8618,11.23226 3.5788,0.61098 3.657,0.69937 6.5208,7.36892 1.5943,3.71285 4.5335,12.42456 6.5318,19.35945 l 3.633,12.60886 4.4921,1.14962 c 5.0556,1.29387 14.4812,7.42638 31.6158,20.57 11.7878,9.04229 24.366,15.97676 32.9573,18.16969 6.1522,1.57037 17.1288,1.73803 22.6376,0.34571 2.2256,-0.56247 4.233,-0.8361 4.4611,-0.60802 0.5095,0.5094 -6.6324,23.75553 -11.3629,36.98484 -3.1569,8.82841 -3.473,10.45321 -3.4532,17.74623 0.012,4.41544 0.9073,15.71708 1.9896,25.11473 l 1.968,17.08658 4.6291,4.55571 c 5.7249,5.63417 11.783,13.40442 29.4311,37.74887 7.581,10.4576 17.3708,23.86945 21.755,29.80412 5.0717,6.86526 7.789,11.26514 7.4702,12.09584 -0.8879,2.31394 -12.0817,18.30608 -17.9921,25.70474 -3.156,3.95065 -12.5972,14.21811 -20.9806,22.81658 -20.6042,21.13298 -22.2437,23.88153 -26.128,43.80244 -3.1599,16.20603 -2.9644,19.48976 2.4251,40.74433 4.0789,16.08578 10.6144,45.05423 10.6144,47.04789 0,0.4085 -1.8063,1.61102 -4.0141,2.67216 -6.4268,3.08919 -21.702,13.59818 -33.7371,23.21038 -23.7841,18.99608 -31.0533,23.44784 -39.2709,24.05071 -7.6023,0.55774 -11.8506,-1.55364 -17.5321,-8.7134 -1.1066,-1.39435 -2.1547,-2.1549 -2.3293,-1.69012 -0.1745,0.46478 -4.5613,7.69004 -9.7484,16.05612 -13.0856,21.10508 -17.9067,29.91212 -21.7426,39.71776 -3.1304,8.00245 -7.6649,25.74522 -7.6929,30.10141 -0.027,4.19318 -0.9101,4.26332 -9.1193,0.72413 -10.9808,-4.73402 -26.2112,-9.69874 -36.5525,-11.91507 -7.2188,-1.54714 -11.5083,-1.89184 -23.6101,-1.89716 -15.2274,-0.008 -20.7894,0.76503 -31.8801,4.42321 -2.684,0.88528 -8.1123,1.86487 -12.0629,2.17687 -30.1675,2.38213 -53.2351,18.08053 -75.4507,51.34695 l -5.4765,8.2007 -4.0263,-9.89082 z m 45.9032,-85.43366 c 6.2366,-3.183 8.9523,-8.23324 8.4732,-15.75713 -0.6443,-10.11958 -7.52,-16.16488 -17.5593,-15.43863 -8.7714,0.63447 -14.4472,6.31022 -15.0816,15.08167 -0.7394,10.22074 6.0687,17.71429 16.0938,17.71429 3.1789,0 6.0558,-0.57016 8.0739,-1.6002 z m 140.5926,-0.83914 c 5.3182,-3.37272 7.7954,-8.54972 7.3089,-15.27495 -0.6269,-8.66658 -6.3994,-14.4227 -15.1162,-15.07331 -15.167,-1.13212 -23.6767,17.31289 -12.939,28.04564 3.3853,3.38378 6.72,4.67022 12.2062,4.70884 3.7579,0.0262 5.4605,-0.45321 8.5401,-2.40622 z m -243.0129,-32.70479 c 5.3128,-3.44488 7.4412,-7.22728 7.7526,-13.77682 0.2189,-4.60439 -0.074,-6.16487 -1.6692,-8.88529 -2.993,-5.10466 -7.4813,-8.28039 -12.3663,-8.74982 -16.503,-1.58567 -25.2119,18.05561 -13.0963,29.53624 3.2242,3.05522 5.7364,3.94524 11.3165,4.00896 3.6721,0.0422 5.4219,-0.42101 8.0627,-2.13327 z m 70.6544,-5.36342 c 5.2607,-3.60476 7.0143,-7.12207 7.0143,-14.06963 0,-5.5435 -0.2397,-6.41138 -2.5842,-9.35759 -10.2282,-12.85343 -30.7956,-6.56087 -30.7956,9.42198 0,6.64808 3.7861,12.62695 9.7182,15.3466 4.0257,1.8457 13.0582,1.11785 16.6473,-1.34136 z m -171.5469,-10.98576 c 5.3488,-3.66511 7.0143,-7.09021 7.0143,-14.42515 0,-5.75012 -0.257,-6.80256 -2.322,-9.50987 -3.511,-4.60321 -6.8671,-6.60988 -11.9282,-7.13221 -7.9025,-0.81565 -14.4985,2.72962 -17.5412,9.42798 -1.68,3.69865 -2.0614,10.08932 -0.8,13.40703 1.1653,3.06519 5.9962,8.25664 8.914,9.57941 4.0536,1.83775 13.0799,1.10796 16.6631,-1.34719 z m 68.7802,0.29307 c 5.3128,-3.44489 7.4413,-7.22728 7.7527,-13.77683 0.2188,-4.60438 -0.074,-6.16487 -1.6693,-8.88528 -2.9929,-5.10466 -7.4812,-8.2804 -12.3662,-8.74983 -16.503,-1.58566 -25.2119,18.05561 -13.0963,29.53624 3.2242,3.05523 5.7364,3.94524 11.3165,4.00896 3.6721,0.0422 5.4219,-0.42101 8.0626,-2.13326 z m 247.948,-22.18187 c 26.1807,-6.26999 48.842,-19.27638 69.3415,-39.79837 13.1971,-13.21157 20.8328,-24.23468 26.3814,-38.08503 5.2777,-13.17429 6.1124,-18.06583 6.0567,-35.49246 -0.045,-14.07859 -0.2676,-16.43834 -2.2374,-23.72401 -6.5942,-24.38831 -22.9066,-49.14067 -43.191,-65.5376 -26.9124,-21.75477 -61.3429,-30.39186 -96.914,-24.31158 -14.8512,2.53856 -24.483,6.55825 -38.9738,16.26519 -29.1423,19.52136 -48.1096,47.05194 -53.6726,77.90469 -1.8368,10.18693 -2.0751,34.83738 -0.4245,43.91001 3.6318,19.96181 12.0943,36.25961 26.7119,51.44371 19.3228,20.07175 43.7231,34.30178 66.0677,38.52995 9.4779,1.79346 31.2063,1.20606 40.8541,-1.1045 z m -391.608,-18.38095 c 5.3128,-3.44488 7.4413,-7.22728 7.7527,-13.77683 0.2189,-4.60438 -0.074,-6.16487 -1.6693,-8.8852 -2.9929,-5.10474 -7.4812,-8.28047 -12.3662,-8.74982 -16.503,-1.58575 -25.2119,18.05553 -13.0963,29.53616 3.2242,3.05522 5.7364,3.94524 11.3165,4.00895 3.6721,0.0423 5.4219,-0.421 8.0626,-2.13326 z m 106.5361,-13.52753 c 5.155,-3.84874 7.3725,-7.67136 7.7329,-13.32996 0.5121,-8.04234 -3.0586,-13.99696 -10.1765,-16.97106 -8.4114,-3.51451 -18.0815,0.20442 -21.8688,8.41028 -3.9282,8.51118 -0.4898,18.16521 8.121,22.80179 3.6178,1.94812 13.0746,1.41598 16.1914,-0.91105 z m 69.2362,0.008 c 5.3128,-3.44488 7.4412,-7.22728 7.7526,-13.77683 0.2189,-4.60438 -0.074,-6.16487 -1.6692,-8.8852 -2.993,-5.10474 -7.4813,-8.28047 -12.3663,-8.74982 -16.503,-1.58575 -25.2119,18.05561 -13.0963,29.53624 3.2242,3.05522 5.7364,3.94516 11.3165,4.00887 3.6721,0.0423 5.4219,-0.421 8.0627,-2.13326 z m 70.1986,-0.008 c 5.1549,-3.84874 7.3724,-7.67136 7.7328,-13.32996 0.5121,-8.04234 -3.0586,-13.99696 -10.1765,-16.97106 -8.4114,-3.51451 -18.0816,0.20442 -21.8689,8.41028 -3.9281,8.51118 -0.4897,18.16521 8.1211,22.80179 3.6177,1.94812 13.0746,1.41598 16.1915,-0.91105 z m -242.5527,-33.74404 c 2.1948,-1.28627 4.5305,-3.64913 5.875,-5.9433 1.9373,-3.30587 2.1859,-4.52808 1.8844,-9.26413 -0.3829,-6.01343 -1.6474,-8.31571 -6.9038,-12.57007 -2.5887,-2.09524 -4.0753,-2.59974 -8.3959,-2.84946 -6.3779,-0.36861 -11.3679,1.86099 -15.3418,6.85495 -2.3455,2.94739 -2.5842,3.8129 -2.5842,9.3679 0,5.35099 0.3024,6.55689 2.4056,9.59192 4.8368,6.97943 15.5484,9.21469 23.0607,4.81219 z m 136.0165,-2.5869 c 5.3128,-3.44488 7.4413,-7.22728 7.7527,-13.77682 0.2189,-4.60439 -0.074,-6.16487 -1.6693,-8.8852 -2.9929,-5.10475 -7.4812,-8.28048 -12.3662,-8.74982 -16.503,-1.58575 -25.2119,18.05552 -13.0963,29.53624 3.2242,3.05522 5.7364,3.94515 11.3165,4.00887 3.6721,0.0422 5.4219,-0.42101 8.0626,-2.13327 z m 36.8187,-34.05485 c 5.3182,-3.37271 7.7954,-8.54971 7.3089,-15.27494 -0.6268,-8.66659 -6.3993,-14.4227 -15.1161,-15.07331 -15.167,-1.13213 -23.6768,17.31288 -12.939,28.04572 3.3853,3.3837 6.7199,4.67013 12.2061,4.70884 3.7579,0.0262 5.4606,-0.45329 8.5401,-2.40631 z m 359.1832,-6.80103 c 5.3489,-3.6651 7.0144,-7.09021 7.0144,-14.42515 0,-5.75012 -0.257,-6.80247 -2.322,-9.50987 -3.511,-4.6032 -6.8671,-6.60988 -11.9281,-7.13221 -7.9026,-0.81565 -14.4986,2.72962 -17.5413,9.42798 -1.68,3.69865 -2.0614,10.08933 -0.8,13.40703 1.1654,3.06519 5.9962,8.25664 8.914,9.5795 4.0536,1.83766 13.0799,1.10787 16.663,-1.34728 z m -318.6204,-21.93096 c 5.3183,-3.37272 7.7955,-8.54972 7.309,-15.27495 -0.6269,-8.66658 -6.3994,-14.4227 -15.1162,-15.07331 -15.167,-1.13212 -23.6768,17.31289 -12.939,28.04572 3.3853,3.3837 6.72,4.67014 12.2062,4.70884 3.7579,0.0262 5.4605,-0.45329 8.54,-2.4063 z m -283.5758,-3.97279 c 5.3128,-3.44489 7.4413,-7.22728 7.7527,-13.77683 0.2188,-4.60438 -0.074,-6.16487 -1.6693,-8.8852 -2.9929,-5.10474 -7.4812,-8.28047 -12.3662,-8.74982 -16.503,-1.58575 -25.2119,18.05552 -13.0963,29.53624 3.2242,3.05522 5.7364,3.94515 11.3165,4.00887 3.6721,0.0423 5.4219,-0.42101 8.0626,-2.13326 z m 70.1985,-0.008 c 5.1551,-3.84882 7.3726,-7.67136 7.7329,-13.32996 0.5121,-8.04234 -3.0585,-13.99696 -10.1764,-16.97106 -8.4114,-3.51452 -18.0816,0.20442 -21.8689,8.41028 -3.9282,8.51117 -0.4898,18.16513 8.121,22.80179 3.6178,1.94812 13.0747,1.41598 16.1914,-0.91105 z m 69.2362,0.008 c 5.3128,-3.44489 7.4412,-7.22728 7.7526,-13.77683 0.2189,-4.60438 -0.074,-6.16487 -1.6692,-8.8852 -2.9929,-5.10474 -7.4812,-8.28047 -12.3663,-8.74982 -16.5029,-1.58575 -25.2119,18.05552 -13.0963,29.53624 3.2243,3.05522 5.7365,3.94515 11.3166,4.00887 3.6721,0.0423 5.4219,-0.42101 8.0626,-2.13326 z m 179.9975,-26.19682 c 5.3128,-3.44489 7.4412,-7.22728 7.7526,-13.77683 0.2189,-4.60438 -0.074,-6.16487 -1.6692,-8.8852 -2.9929,-5.10474 -7.4812,-8.28047 -12.3662,-8.74982 -16.503,-1.58575 -25.212,18.05552 -13.0963,29.53624 3.2242,3.05522 5.7364,3.94516 11.3165,4.00887 3.6721,0.0423 5.4219,-0.42101 8.0626,-2.13326 z m -146.1365,-10.1473 c 5.155,-3.84874 7.3725,-7.67136 7.7329,-13.32996 0.5121,-8.04233 -3.0586,-13.99696 -10.1765,-16.97106 -8.4114,-3.51451 -18.0815,0.20442 -21.8688,8.41028 -3.9282,8.51118 -0.4898,18.16521 8.121,22.8018 3.6178,1.94811 13.0746,1.41598 16.1914,-0.91106 z m 69.7173,-0.24591 c 5.4118,-3.43204 7.7779,-8.4969 7.3211,-15.67128 -0.389,-6.10834 -2.5051,-9.93476 -7.3183,-13.23277 -2.4665,-1.69012 -4.0111,-2.03642 -9.0821,-2.03642 -5.5679,0 -6.3983,0.23205 -9.3576,2.61545 -5.3395,4.30059 -7.1633,8.24042 -6.8514,14.8007 0.2015,4.23645 0.7624,6.31031 2.3228,8.58765 5.2457,7.65539 15.2779,9.81198 22.9655,4.93667 z m 322.8457,-3.4208 c 5.2608,-3.60477 7.0144,-7.12207 7.0144,-14.06964 0,-5.5435 -0.2397,-6.41137 -2.5842,-9.35758 -10.2283,-12.85343 -30.7956,-6.56087 -30.7956,9.42198 0,6.64808 3.786,12.62695 9.7181,15.3466 4.0256,1.8457 13.0583,1.11785 16.6473,-1.34136 z m -282.2829,-26.15626 c 5.3183,-3.37271 7.7955,-8.54971 7.309,-15.27494 -0.6269,-8.66658 -6.3994,-14.4227 -15.1162,-15.07331 -15.167,-1.13213 -23.6768,17.31289 -12.939,28.04564 3.3853,3.38378 6.72,4.67021 12.2062,4.70883 3.7579,0.0262 5.4605,-0.4532 8.54,-2.40622 z m 70.1733,-0.0406 c 5.2607,-3.60477 7.0143,-7.12215 7.0143,-14.06964 0,-5.5435 -0.2396,-6.41137 -2.5842,-9.35758 -6.3726,-8.0082 -18.3905,-9.31855 -25.3657,-2.7658 l -1.776,1.66857 -1.5049,-3.33713 c -6.028,-13.36765 -24.8951,-13.67415 -30.9739,-0.50315 -4.735,10.25926 1.9555,22.85419 12.6881,23.88541 6.0429,0.58064 9.8439,-0.36658 13.1621,-3.27992 l 2.9046,-2.55031 1.1843,2.80323 c 1.4482,3.42756 5.2024,7.28813 8.604,8.84768 4.0257,1.8457 13.0582,1.11785 16.6473,-1.34136 z m -355.7697,-6.76047 c 5.3488,-3.6651 7.0143,-7.09021 7.0143,-14.42515 0,-5.75012 -0.257,-6.80255 -2.322,-9.50987 -3.511,-4.6032 -6.867,-6.60988 -11.9281,-7.13221 -7.9026,-0.81565 -14.4986,2.72962 -17.5413,9.42798 -1.68,3.69857 -2.0614,10.08933 -0.8,13.40703 1.1655,3.06511 5.9963,8.25664 8.914,9.57941 4.0536,1.83775 13.08,1.10796 16.6631,-1.34719 z m 557.7386,-11.83082 c 5.2608,-3.60477 7.0144,-7.12216 7.0144,-14.06964 0,-5.5435 -0.2397,-6.41137 -2.5842,-9.35759 -10.2283,-12.85342 -30.7956,-6.56086 -30.7956,9.42199 0,6.64807 3.786,12.62695 9.7181,15.3466 4.0256,1.84569 13.0583,1.11784 16.6473,-1.34136 z m -479.1482,-21.97153 c 5.2608,-3.60476 7.0144,-7.12215 7.0144,-14.06963 0,-5.54352 -0.2397,-6.4114 -2.5842,-9.35761 -10.2283,-12.85343 -30.7957,-6.56087 -30.7957,9.422 0,6.64808 3.7862,12.62695 9.7182,15.3466 4.0256,1.8457 13.0583,1.11785 16.6473,-1.34136 z m 97.1818,0 c 5.2607,-3.60476 7.0143,-7.12215 7.0143,-14.06963 0,-5.54352 -0.2396,-6.4114 -2.5842,-9.35761 -10.2282,-12.85343 -30.7956,-6.56087 -30.7956,9.422 0,6.64808 3.7861,12.62695 9.7182,15.3466 4.0256,1.8457 13.0582,1.11785 16.6473,-1.34136 z m 36.3375,0 c 5.2608,-3.60476 7.0143,-7.12215 7.0143,-14.06963 0,-5.54352 -0.2396,-6.4114 -2.5841,-9.35761 -10.2283,-12.85343 -30.7957,-6.56087 -30.7957,9.422 0,6.64808 3.7861,12.62695 9.7182,15.3466 4.0256,1.8457 13.0583,1.11785 16.6473,-1.34136 z m 285.1152,-2.24211 c 5.3127,-3.44488 7.4412,-7.22728 7.7527,-13.77682 0.2188,-4.6044 -0.074,-6.16497 -1.6693,-8.8853 -2.9929,-5.10466 -7.4813,-8.28039 -12.3662,-8.74982 -16.503,-1.58567 -25.2119,18.05562 -13.0963,29.53625 3.2242,3.05523 5.7364,3.94524 11.3165,4.00896 3.6721,0.0422 5.4219,-0.42109 8.0626,-2.13327 z m 39.886,-28.99043 c 6.2366,-3.183 8.9523,-8.23332 8.4733,-15.75713 -0.6445,-10.11958 -7.52,-16.16488 -17.5593,-15.43863 -8.7715,0.63447 -14.4472,6.31022 -15.0817,15.08167 -0.7394,10.22074 6.0688,17.71429 16.0939,17.71429 3.1788,0 6.0557,-0.57016 8.0738,-1.6002 z m -467.8495,-5.06444 c 5.3182,-3.37271 7.7954,-8.54971 7.3089,-15.27494 -0.6268,-8.66658 -6.3993,-14.4227 -15.1161,-15.07331 -15.1671,-1.13213 -23.6768,17.31289 -12.9391,28.04564 3.3853,3.38378 6.72,4.67022 12.2062,4.70883 3.7579,0.0262 5.4606,-0.4532 8.5401,-2.40622 z m 185.9129,0 c 5.3182,-3.37271 7.7954,-8.54971 7.3089,-15.27494 -0.6268,-8.66658 -6.3993,-14.4227 -15.1161,-15.07331 -15.167,-1.13213 -23.6768,17.31289 -12.939,28.04564 3.3853,3.38378 6.7199,4.67022 12.2062,4.70883 3.7578,0.0262 5.4605,-0.4532 8.54,-2.40622 z m 70.1733,-0.0406 c 5.2607,-3.60477 7.0143,-7.12215 7.0143,-14.06972 0,-5.54341 -0.2396,-6.41129 -2.5842,-9.3575 -10.2282,-12.85343 -30.7956,-6.56087 -30.7956,9.42198 0,6.64808 3.7861,12.62695 9.7182,15.3466 4.0257,1.8457 13.0582,1.11785 16.6473,-1.34136 z m 69.2613,0.0406 c 5.3182,-3.37271 7.7954,-8.54971 7.3089,-15.27494 -0.6268,-8.66658 -6.3993,-14.4227 -15.116,-15.07331 -15.1671,-1.13213 -23.6768,17.31289 -12.9391,28.04564 3.3853,3.38378 6.72,4.67022 12.2062,4.70883 3.7578,0.0262 5.4605,-0.4532 8.54,-2.40622 z m -253.1536,-32.70478 c 5.3128,-3.44488 7.4412,-7.22728 7.7526,-13.77682 0.2189,-4.60439 -0.074,-6.16488 -1.6692,-8.88529 -2.9929,-5.10466 -7.4812,-8.28039 -12.3663,-8.74982 -16.5029,-1.58567 -25.2119,18.05561 -13.0963,29.53624 3.2243,3.05522 5.7365,3.94524 11.3166,4.00895 3.6721,0.0423 5.4219,-0.421 8.0626,-2.13326 z m 70.1985,-0.008 c 5.155,-3.84882 7.3726,-7.67136 7.7329,-13.32996 0.5121,-8.04242 -3.0585,-13.99696 -10.1765,-16.97106 -8.4113,-3.51451 -18.0815,0.20442 -21.8688,8.41028 -3.9282,8.51118 -0.4898,18.16513 8.121,22.8018 3.6178,1.94803 13.0747,1.41589 16.1914,-0.91106 z m 69.2362,0.008 c 5.3128,-3.44488 7.4412,-7.22728 7.7526,-13.77682 0.2189,-4.60439 -0.074,-6.16488 -1.6692,-8.88529 -2.993,-5.10466 -7.4812,-8.28039 -12.3663,-8.74982 -16.5029,-1.58567 -25.2119,18.05561 -13.0963,29.53624 3.2243,3.05522 5.7365,3.94524 11.3166,4.00895 3.6721,0.0423 5.4219,-0.421 8.0626,-2.13326 z m 147.5546,-3.6733 c 5.2608,-3.60477 7.0144,-7.12207 7.0144,-14.06964 0,-5.5435 -0.2397,-6.41137 -2.5842,-9.35759 -10.2283,-12.85342 -30.7956,-6.56086 -30.7956,9.42198 0,6.64808 3.786,12.62696 9.7181,15.34661 4.0257,1.84569 13.0583,1.11784 16.6473,-1.34136 z m 69.2615,0.0406 c 5.3182,-3.37271 7.7954,-8.54971 7.3089,-15.27494 -0.6269,-8.6665 -6.3994,-14.4227 -15.1161,-15.07332 -15.1671,-1.13212 -23.6768,17.31289 -12.9391,28.04573 3.3853,3.3837 6.72,4.67013 12.2062,4.70883 3.7579,0.0262 5.4605,-0.45328 8.5401,-2.4063 z m 40.0816,-28.47949 c 5.3128,-3.44488 7.4412,-7.22728 7.7527,-13.77683 0.2189,-4.60438 -0.074,-6.16487 -1.6693,-8.8852 -2.9929,-5.10474 -7.4813,-8.28047 -12.3662,-8.74982 -16.503,-1.58575 -25.2119,18.05553 -13.0963,29.53624 3.2242,3.05523 5.7364,3.94516 11.3165,4.00887 3.6721,0.0423 5.4219,-0.421 8.0626,-2.13326 z m -398.8089,-40.56941 c 5.155,-3.84874 7.3725,-7.67136 7.7328,-13.32996 0.5121,-8.04234 -3.0585,-13.99696 -10.1764,-16.97106 -8.4114,-3.51451 -18.0816,0.20442 -21.8689,8.41028 -3.9281,8.51118 -0.4898,18.16521 8.1211,22.8018 3.6177,1.94811 13.0746,1.41598 16.1914,-0.91106 z m 191.8284,0 c 5.1549,-3.84874 7.3724,-7.67136 7.7328,-13.32996 0.5121,-8.04234 -3.0586,-13.99696 -10.1765,-16.97106 -8.4114,-3.51451 -18.0815,0.20442 -21.8688,8.41028 -3.9281,8.51118 -0.4898,18.16521 8.121,22.8018 3.6178,1.94811 13.0746,1.41598 16.1915,-0.91106 z m 97.6374,-0.28648 c 5.3489,-3.6651 7.0144,-7.09021 7.0144,-14.42515 0,-5.75012 -0.257,-6.80255 -2.322,-9.50987 -3.511,-4.6032 -6.8671,-6.60988 -11.9282,-7.13221 -7.9025,-0.81565 -14.4985,2.72963 -17.5413,9.42798 -1.6799,3.69866 -2.0613,10.08933 -0.7999,13.40703 1.1653,3.0652 5.9962,8.25665 8.914,9.57942 4.0536,1.83775 13.0799,1.10795 16.663,-1.3472 z m 35.8817,0.28648 c 5.155,-3.84874 7.3725,-7.67136 7.7329,-13.32996 0.5121,-8.04234 -3.0586,-13.99696 -10.1765,-16.97106 -8.4115,-3.51451 -18.0816,0.20442 -21.8688,8.41028 -3.9282,8.51118 -0.4898,18.16521 8.121,22.8018 3.6177,1.94811 13.0746,1.41598 16.1914,-0.91106 z m -256.7882,-33.20912 c 6.2366,-3.183 8.9523,-8.23324 8.4733,-15.75713 -0.6444,-10.11958 -7.5201,-16.16488 -17.5594,-15.43863 -8.7714,0.63447 -14.4472,6.31022 -15.0816,15.08167 -0.7394,10.22074 6.0688,17.71429 16.0939,17.71429 3.1788,0 6.0557,-0.57016 8.0738,-1.6002 z m 187.0708,-37.17667 c 5.3182,-3.37271 7.7954,-8.54971 7.3089,-15.27494 -0.6268,-8.66658 -6.3993,-14.4227 -15.116,-15.07331 -15.1671,-1.13213 -23.6768,17.31289 -12.9391,28.04564 3.3853,3.38378 6.72,4.67021 12.2062,4.70883 3.7578,0.0262 5.4605,-0.4532 8.54,-2.40622 z"
         id="path4193"
         inkscape:connector-curvature="0" />
    </g>
  </g>
</svg>
