<?xml version="1.0" encoding="UTF-8" standalone="no"?>
<!-- Created with Inkscape (http://www.inkscape.org/) -->

<svg
   xmlns:dc="http://purl.org/dc/elements/1.1/"
   xmlns:cc="http://creativecommons.org/ns#"
   xmlns:rdf="http://www.w3.org/1999/02/22-rdf-syntax-ns#"
   xmlns:svg="http://www.w3.org/2000/svg"
   xmlns="http://www.w3.org/2000/svg"
   xmlns:sodipodi="http://sodipodi.sourceforge.net/DTD/sodipodi-0.dtd"
   xmlns:inkscape="http://www.inkscape.org/namespaces/inkscape"
   width="278.27136mm"
   height="261.64346mm"
   viewBox="0 0 986.00089 927.08313"
   id="svg6538"
   version="1.1"
   inkscape:version="0.91 r13725"
   sodipodi:docname="brain.svg">
  <defs
     id="defs6540" />
  <sodipodi:namedview
     id="base"
     pagecolor="#ffffff"
     bordercolor="#666666"
     borderopacity="1.0"
     inkscape:pageopacity="0.0"
     inkscape:pageshadow="2"
     inkscape:zoom="0.35"
     inkscape:cx="242.28618"
     inkscape:cy="29.255849"
     inkscape:document-units="px"
     inkscape:current-layer="layer1"
     showgrid="false"
     fit-margin-top="0"
     fit-margin-left="0"
     fit-margin-right="0"
     fit-margin-bottom="0"
     inkscape:window-width="1920"
     inkscape:window-height="1005"
     inkscape:window-x="-9"
     inkscape:window-y="-9"
     inkscape:window-maximized="1" />
  <metadata
     id="metadata6543">
    <rdf:RDF>
      <cc:Work
         rdf:about="">
        <dc:format>image/svg+xml</dc:format>
        <dc:type
           rdf:resource="http://purl.org/dc/dcmitype/StillImage" />
        <dc:title></dc:title>
      </cc:Work>
    </rdf:RDF>
  </metadata>
  <g
     inkscape:label="Layer 1"
     inkscape:groupmode="layer"
     id="layer1"
     transform="translate(370.14332,365.46507)">
    <g
       id="g4789"
       transform="translate(1722.8571,-525.71428)">
      <ellipse
         ry="463.01562"
         rx="492.47449"
         cy="623.79077"
         cx="-1600"
         id="path4687-5"
         style="color:#000000;clip-rule:nonzero;display:inline;overflow:visible;visibility:visible;opacity:1;isolation:auto;mix-blend-mode:normal;color-interpolation:sRGB;color-interpolation-filters:linearRGB;solid-color:#000000;solid-opacity:1;fill:#33a02c;fill-opacity:1;fill-rule:nonzero;stroke:#000000;stroke-width:1.05187511;stroke-linecap:butt;stroke-linejoin:miter;stroke-miterlimit:1;stroke-dasharray:none;stroke-dashoffset:0;stroke-opacity:1;color-rendering:auto;image-rendering:auto;shape-rendering:auto;text-rendering:auto;enable-background:accumulate" />
      <path
         style="fill:none;stroke:#000000;stroke-width:15;stroke-miterlimit:4;stroke-dasharray:none"
         d="m -1531.8574,979.88779 c -14.1844,-74.54974 -18.059,-91.36432 -25.0532,-108.72447 -9.9501,-24.69711 -15.8929,-37.7785 -24.2031,-53.27704 -7.3198,-13.6514 -3.4229,-31.31991 9.7161,-44.0533 2.4409,-2.36546 4.4379,-4.64499 4.4379,-5.06561 0,-0.42062 -1.3975,-0.76477 -3.1057,-0.76477 -4.7361,0 -14.9205,-2.87311 -19.3943,-5.47138 -11.6538,-6.76813 -26.5175,-26.9335 -34.444,-46.72959 -6.1457,-15.34862 -7.925,-37.31401 -3.973,-49.04551 2.9598,-8.78608 9.4529,-19.33005 15.9348,-25.87619 5.9639,-6.02301 10.7778,-7.87733 20.4496,-7.87733 8.8494,0 9.8602,-2.40057 3.0362,-7.21054 -2.473,-1.74313 -7.8338,-7.50283 -11.9129,-12.79932 -8.4661,-10.99286 -13.7158,-15.99014 -16.7978,-15.99014 -1.3374,0 -4.8997,2.80736 -9.5169,7.5 -6.6324,6.74079 -7.7667,7.5 -11.2055,7.5 -2.1045,0 -5.4418,-0.675 -7.4163,-1.5 -4.7344,-1.97818 -5.0838,-1.93315 -8.328,1.0735 -2.0717,1.91998 -3.418,2.41496 -5.3015,1.94919 -4.8014,-1.18732 -12.9448,-1.76027 -16.2379,-1.14247 -5.3261,0.99918 -6.0511,3.26425 -3.7791,11.80625 2.2492,8.45637 2.4507,12.07413 0.8426,15.12927 -1.6685,3.16996 -2.959,3.79476 -6.5476,3.17002 -1.8569,-0.32326 -4.738,0.0871 -6.8721,0.97881 -2.0212,0.84449 -4.6842,1.53543 -5.9179,1.53543 -3.024,0 -7.5127,-3.67258 -7.5127,-6.14682 0,-1.10091 2.4506,-4.57081 5.4457,-7.71089 4.9107,-5.14834 10.5193,-14.66524 10.5445,-17.89229 0.015,-1.93566 -3.2788,-1.48874 -9.1409,1.24023 -5.4536,2.53878 -12.8493,3.36992 -12.8493,1.44403 0,-1.89135 2.1551,-5.34877 5.5689,-8.93426 5.8165,-6.10897 7.5007,-11.52853 8.6576,-27.85803 1.1298,-15.94846 -0.1128,-38.23401 -2.6731,-47.93961 -2.6695,-10.1194 -8.4177,-16.94012 -17.0534,-20.23531 -1.65,-0.6296 -8.625,-2.24173 -15.5,-3.58252 -6.875,-1.34078 -15.2,-3.29822 -18.5,-4.34986 -3.3,-1.05164 -10.5,-3.0797 -16,-4.5068 -18.0498,-4.68341 -28.2315,-10.69552 -32.4633,-19.1689 -7.4358,-14.8886 -0.1359,-29.42392 19.9273,-39.67869 17.1024,-8.74143 43.6203,-15.85167 68.036,-18.2425 56.1582,-5.49911 89.78,-1.16157 132.5286,17.09744 50.5465,21.58974 89.0727,52.53598 107.6432,86.46478 4.3825,8.00683 4.7693,9.59641 4.9185,20.21357 0.082,5.81519 -0.3552,9.39282 -1.3905,11.38345 -4.2857,8.24058 -12.3866,10.53184 -21.8524,6.18077 -12.3188,-5.66245 -27.4179,-20.7153 -35.3861,-35.27779 -8.5472,-15.62051 -31.8783,-34.01295 -53.1574,-41.90516 -21.7056,-8.0504 -39.7788,-9.37714 -58.506,-4.29487 -9.9225,2.69282 -14.8907,5.77442 -22.0238,13.66076 -4.8867,5.40269 -6.68,8.61333 -10.1896,18.24246 -2.588,7.10069 -7.8133,7.48715 -10.5901,0.78324 -1.5515,-3.74558 -0.5258,-7.91479 4.5903,-18.6583 1.8784,-3.94453 3.4153,-7.64134 3.4153,-8.21515 0,-2.09275 9.5271,-10.09792 15.5416,-13.05883 15.6108,-7.68517 32.1505,-7.86319 61.6621,-0.6637 10.2871,2.50957 20.4121,4.68586 22.5,4.8362 10.4075,0.74939 1.2273,-4.57389 -24.4527,-14.17924 -28.5219,-10.66835 -43.6563,-13.40169 -74.251,-13.4101 -17.11,-0.005 -21.1869,0.3246 -33.2634,2.68681 -21.089,4.12505 -31.0408,7.65668 -38.4012,13.62764 -4.0958,3.32259 -6.5512,6.17206 -7.3164,8.49065 -1.2953,3.92482 -0.5222,11.55359 1.5934,15.72423 1.8865,3.71886 10.0253,8.09675 23.9834,12.90082 6.5473,2.25345 13.3506,4.98689 15.1185,6.07432 3.9043,2.40167 12.031,13.7682 14.0277,19.62022 1.6638,4.87645 4.4522,7.238 8.5463,7.238 6.1593,0 8.7923,4.19555 6.6696,10.62765 -0.8594,2.60398 -2.2856,4.01146 -5.9426,5.86458 l -4.8117,2.43831 0.5379,16.28641 0.538,16.2864 -3.1398,6.21981 c -1.7268,3.42089 -3.1397,6.90764 -3.1397,7.74832 0,2.08464 2.9272,1.92221 9.0824,-0.50397 4.4881,-1.76905 5.0757,-1.82182 4.5328,-0.4071 -1.9158,4.99256 -1.8561,6.43959 0.2659,6.43959 4.0363,0 15.656,-5.36678 19.8466,-9.16659 4.6103,-4.18037 6.0193,-4.43641 15.6951,-2.85193 3.2575,0.53345 6.9274,0.71776 8.1552,0.40958 1.2279,-0.30817 4.3211,-3.24987 6.8739,-6.53709 3.7485,-4.82694 6.0218,-6.63831 11.8165,-9.41537 6.0836,-2.91549 8.2444,-3.43753 14.2034,-3.43159 10.0065,0.01 22.2735,3.2508 32.7127,8.64243 16.9503,8.7545 25.3005,18.93623 31.7127,38.66849 6.3663,19.59098 15.8114,51.69514 17.4251,59.22783 0.8193,3.82483 3.0541,12.57924 4.9662,19.45424 5.0652,18.21245 8.6217,34.21449 9.9548,44.79 1.0044,7.96832 0.8525,13.16114 -1.0677,36.5 -1.2312,14.9655 -2.222,30.36 -2.2017,34.21 0.062,11.79464 6.035,46.84228 8.383,49.19027 1.7576,1.75753 2.4016,-2.9398 2.9348,-21.40395 0.8991,-31.13783 5.0614,-58.08384 9.6864,-62.70888 1.9138,-1.91376 1.9468,-1.90512 2.966,0.77551 0.672,1.76758 0.9568,21.92425 0.8183,57.92894 -0.1303,33.87333 0.2723,64.4954 1.0414,79.21811 0.6896,13.2 1.5296,34.83677 1.8667,48.08171 l 0.613,24.08171 -13.8918,1.16268 c -7.6404,0.63948 -17.9619,1.45104 -22.9366,1.80348 l -9.045,0.64079 -3.3078,-17.38518 z m 26.5858,-131.38519 c -4.0939,-20.6327 -4.3667,-31.30111 -1.6318,-63.80991 2.5461,-30.26483 2.2709,-37.69914 -2.0207,-54.58609 -1.0629,-4.1822 -2.6704,-11.204 -3.5722,-15.604 -0.9018,-4.4 -2.95,-12.09654 -4.5515,-17.10343 -1.6015,-5.00688 -2.9119,-9.87759 -2.9119,-10.8238 0,-4.7685 -19.1298,-67.82428 -23.0789,-76.07277 -7.8515,-16.39947 -26.7534,-29.56839 -48.8744,-34.05067 -17.9249,-3.63204 -30.8238,0.30561 -40.2945,12.30067 -2.7141,3.4375 -5.5945,6.25 -6.4009,6.25 -0.8063,0 -4.549,-0.50914 -8.317,-1.13141 -8.3639,-1.38127 -11.0084,-0.78877 -15.8095,3.54219 -3.2708,2.95047 -14.5019,8.58922 -17.1078,8.58922 -0.55,0 -0.4733,-1.245 0.1838,-2.98603 1.7836,-4.72529 0.048,-5.49058 -6.714,-2.96055 -3.1487,1.17805 -5.9482,1.9185 -6.2213,1.64544 -0.273,-0.27307 0.9434,-3.34887 2.7033,-6.83513 l 3.1997,-6.33865 -0.5035,-15.78083 -0.5036,-15.78082 4.6008,-2.29438 c 3.91,-1.94989 4.8288,-2.99738 6.1193,-6.97661 1.9742,-6.08733 4.6234,-6.31312 8.4965,-0.72417 7.4641,10.77065 20.924,15.35353 39.8771,13.57748 4.2047,-0.39401 7.6449,-1.01871 7.6449,-1.3882 0,-0.3695 -5.1234,-0.50918 -11.3854,-0.3104 -12.6238,0.40074 -19.8235,-1.06013 -26.7386,-5.42546 -4.2618,-2.69036 -9.5766,-9.38061 -10.5579,-13.29026 -1.4166,-5.64426 3.9253,-32.70203 7.0525,-35.72216 1.8889,-1.82424 27.4973,-8.22294 37.9841,-9.49097 5.4201,-0.65538 14.6451,-0.96015 20.5,-0.67727 9.1485,0.44202 11.9811,1.031 20.1453,4.18879 17.6177,6.81423 36.5687,19.24458 52.4229,34.3852 6.0145,5.74374 12.5422,11.17766 14.5062,12.07538 1.964,0.89772 5.8593,3.76337 8.6562,6.36812 4.1755,3.88864 5.3872,5.82212 6.7733,10.80747 2.4104,8.66969 5.0357,10.96752 12.3459,10.80579 l 5.7955,-0.12821 -5.7204,-1.12179 c -6.6788,-1.30971 -7.9723,-2.44988 -10.1023,-8.90462 l -1.5783,-4.78284 2.8617,2.0377 c 12.8796,9.17112 24.3347,9.1176 31.0542,-0.14509 3.1372,-4.32449 3.1388,-4.33328 2.812,-15.56642 -0.2799,-9.62329 -0.1112,-11.17444 1.1731,-10.78716 3.6697,1.10662 10.6995,2.47987 12.809,2.5022 4.2273,0.0448 1.2666,-1.77764 -4.0601,-2.49911 -7.8353,-1.06126 -10.3734,-2.78961 -13.6614,-9.30303 -1.604,-3.17747 -4.7666,-8.11801 -7.028,-10.97897 -6.8796,-8.70335 -7.4472,-12.41525 -3.9055,-25.54102 3.7883,-14.03972 20.3503,-35.65342 27.3202,-35.65342 1.6863,0 6.4319,-0.93261 10.5459,-2.07247 7.0688,-1.95855 10.5102,-3.89796 15.7299,-8.86454 1.5534,-1.47804 2.25,-1.71203 2.25,-0.75574 0,0.76183 2.0214,3.22482 4.4921,5.4733 3.6349,3.30807 4.344,4.48836 3.7161,6.18565 -0.4268,1.15363 -0.4496,5.79568 -0.051,10.31566 1.282,14.52754 -0.6399,22.22095 -8.8575,35.45822 -4.4146,7.11114 -10.0227,20.09267 -11.0205,25.50992 -0.6042,3.28073 1.2527,3.74019 2.0208,0.5 1.4885,-6.27945 6.7488,-19.03274 9.5816,-23.23015 1.7626,-2.61162 4.6477,-7.50949 6.4114,-10.88413 3.1911,-6.10573 3.2074,-6.21296 3.344,-21.93962 0.075,-8.69215 0.3777,-16.04444 0.6717,-16.33843 0.294,-0.29398 3.6072,0.95944 7.3628,2.78539 5.9569,2.89626 8.0381,3.3675 16.3088,3.69282 5.5143,0.21689 11.6642,-0.15093 14.6998,-0.87916 5.1791,-1.24243 5.2468,-1.22785 8.8042,1.89561 2.247,1.97286 4.5984,3.11736 6.3002,3.06645 l 2.7152,-0.0812 -2.5942,-1.16878 c -1.4268,-0.64283 -4.3147,-2.68378 -6.4177,-4.53546 -3.375,-2.97179 -3.6784,-3.59899 -2.5865,-5.34737 0.6804,-1.08939 0.9917,-2.22601 0.6919,-2.52583 -0.8955,-0.89546 -3.5935,1.85357 -3.5935,3.66144 0,2.70355 -6.5272,4.4185 -16.6852,4.38383 -7.3557,-0.0251 -9.8616,-0.43046 -12.5814,-2.03518 -1.8679,-1.10211 -5.0408,-2.54659 -7.0508,-3.20996 -2.01,-0.66337 -6.1933,-3.64546 -9.2963,-6.62687 -4.7255,-4.54053 -5.4394,-5.66448 -4.3959,-6.92174 0.696,-0.83864 0.9662,-2.49621 0.6124,-3.75631 -0.3482,-1.24043 -0.8849,-7.20964 -1.1926,-13.26491 -0.4493,-8.84461 -0.1468,-13.06717 1.5383,-21.47306 1.1537,-5.7549 2.5373,-10.90309 3.0746,-11.44041 0.5373,-0.53732 0.9769,-2.00107 0.9769,-3.25278 0,-1.25171 0.8983,-3.74921 1.9963,-5.55 2.1445,-3.51735 2.627,-6.77419 1.0037,-6.77419 -0.55,0 -1.01,0.7875 -1.0222,1.75 -0.012,0.9625 -0.9023,2.875 -1.9778,4.25 -1.0755,1.375 -1.9655,3.6475 -1.9778,5.05 -0.012,1.4025 -0.4216,2.9775 -0.9097,3.5 -0.4882,0.5225 -1.8984,6.1001 -3.134,12.39467 -1.7621,8.97761 -2.1223,13.39667 -1.6709,20.5 0.8198,12.89877 -0.2089,17.95441 -4.4069,21.65921 -4.2347,3.7373 -9.9388,6.46375 -16.4169,7.8471 -2.7411,0.58534 -5.9599,1.28526 -7.1528,1.55537 -2.0479,0.46368 -2.1132,0.28877 -1.1689,-3.13122 0.686,-2.4845 0.6502,-5.63215 -0.1141,-10.02067 -1.5717,-9.02582 -2.2185,-10.34253 -8.3311,-16.96238 -6.3879,-6.91793 -8.7286,-11.2269 -11.5605,-21.28139 -2.6403,-9.37453 -6.9745,-16.67027 -15.0193,-25.28198 -5.7568,-6.16251 -7.0427,-7.01597 -13.5,-8.96044 -3.9254,-1.18205 -9.6726,-2.1934 -12.7716,-2.24746 -6.3658,-0.11104 -6.2274,0.70441 -1.6343,-9.63423 1.3472,-3.03238 3.8108,-6.87475 5.4747,-8.53859 1.6638,-1.66384 3.3411,-4.02078 3.7273,-5.23764 0.3862,-1.21686 1.6843,-2.73341 2.8845,-3.37011 1.2003,-0.6367 2.7703,-1.98622 3.489,-2.99894 0.7187,-1.01271 1.9562,-1.8413 2.75,-1.8413 0.7938,0 1.4433,-0.45 1.4433,-1 0,-1.91923 -2.9013,-0.97744 -6.1611,2 -1.8066,1.65 -3.5583,3 -3.8928,3 -0.3345,0 -1.2467,1.21342 -2.0271,2.6965 -0.7805,1.48307 -2.4712,3.84157 -3.7571,5.24111 -2.5896,2.81829 -10.1619,17.85978 -10.1619,20.18542 0,3.48401 -2.1146,3.70986 -7.62,0.81385 -2.9853,-1.57038 -7.0355,-3.15683 -9.0004,-3.52545 -4.1737,-0.78299 -11.239,1.05871 -12.0368,3.13762 -0.3957,1.03116 -1.1601,0.52104 -2.706,-1.80598 -2.4342,-3.66394 -7.5076,-6.38942 -19.1368,-10.28039 -7.2194,-2.41552 -8.8865,-2.61277 -17.0851,-2.02146 -4.9968,0.36038 -11.2558,1.30854 -13.9089,2.10701 -6.6456,2.00002 -7.506,1.86852 -7.506,-1.1471 0,-3.59539 -2.8255,-9.21096 -4.9783,-9.89423 -1.5215,-0.4829 -1.1747,-1.1937 2.3465,-4.8104 2.2725,-2.33407 5.2297,-5.01028 6.5715,-5.94713 1.3418,-0.93685 2.1384,-2.00457 1.7703,-2.37271 -0.9237,-0.92374 -8.6588,4.32536 -9.4607,6.4202 -1.5479,4.04341 -4.2654,4.91438 -17.1905,5.50983 -9.2232,0.4249 -16.6556,1.52339 -27.9835,4.13594 -18.3548,4.23314 -26.3827,4.5399 -36.1855,1.38273 l -6.752,-2.17465 -9.0576,2.22133 c -5.404,1.32532 -12.8057,2.30334 -18.3497,2.42464 -12.0941,0.26463 -16.2593,-1.44259 -19.76,-8.09914 -1.3588,-2.58365 -5.733,-7.99287 -9.7205,-12.0205 -3.9875,-4.02763 -7.25,-7.75894 -7.25,-8.29181 0,-0.53287 -0.9529,-1.96254 -2.1176,-3.17704 -3.3289,-3.47145 -4.8824,-8.14102 -4.8824,-14.67607 0,-4.67101 0.3354,-6.03212 1.4866,-6.03212 0.8176,0 2.1478,-1.58249 2.9559,-3.51664 1.5729,-3.76439 5.3081,-5.86703 15.0575,-8.47612 2.75,-0.73595 10.85,-3.57028 18,-6.29852 20.1326,-7.68201 38.0066,-13.6038 49.3528,-16.35095 l 10.3528,-2.50662 5.3972,2.19057 c 2.9685,1.20481 5.3972,2.28314 5.3972,2.39628 0,0.11315 -0.7285,2.34368 -1.6188,4.95674 -2.082,6.11013 -1.5627,20.547 0.9175,25.5089 0.9357,1.872 1.7013,3.9544 1.7013,4.62755 0,1.38673 2.8004,4.00174 3.5175,3.28465 0.258,-0.25805 -0.7192,-2.90967 -2.1716,-5.8925 -3.438,-7.06063 -4.5939,-20.25378 -2.3459,-26.77386 1.2842,-3.72458 2.2913,-4.75133 7,-7.13646 9.3051,-4.71336 13.0087,-5.46342 20.1932,-4.08959 13.5224,2.58574 13.3503,2.4886 15.6466,8.83292 1.1434,3.15901 2.2097,6.85198 2.3695,8.20662 0.2269,1.92236 1.0558,2.61857 3.7763,3.17189 3.2445,0.65987 6.764,3.72446 9.7056,8.45109 1.1373,1.82742 1.1938,1.81222 1.25,-0.33595 0.081,-3.10596 -7.1961,-10.25 -10.4412,-10.25 -1.375,0 -2.531,-0.3375 -2.5689,-0.75 -0.3482,-3.7902 -0.9959,-6.46931 -2.3441,-9.69604 -1.9325,-4.62517 -1.9306,-4.55396 -0.1222,-4.55396 0.8057,0 1.9257,-0.86114 2.489,-1.91365 0.8184,-1.52917 2.5834,-2.0464 8.7852,-2.57439 4.2685,-0.36341 11.1375,-1.75227 15.2644,-3.08635 10.0534,-3.24993 16.5748,-3.11489 25.8267,0.53481 4.0316,1.59037 8.8207,3.9129 10.6424,5.16118 2.902,1.98848 3.3664,2.92213 3.7492,7.5379 0.3472,4.18698 1.3955,6.71 5.1076,12.29241 2.5689,3.86326 4.6707,7.6445 4.6707,8.40275 0,1.20112 3.8103,11.42793 4.6803,12.56201 0.1759,0.22916 0.5719,0.16448 0.8801,-0.14374 1.1817,-1.18174 -4.8926,-16.51666 -8.8159,-22.25578 -3.1528,-4.61221 -4.213,-7.20869 -4.5405,-11.12032 l -0.4273,-5.10317 4.5545,-1.14683 c 5.796,-1.45945 9.1571,-1.44358 17.1951,0.0812 6.0723,1.15191 6.4737,1.39625 6.4737,3.94098 0,1.49211 0.5023,3.02339 1.1163,3.40285 0.7525,0.46505 0.9012,2.8729 0.4564,7.38764 l -0.66,6.69773 3.868,1.15888 c 2.3498,0.70404 4.3957,2.14499 5.2126,3.67137 1.2639,2.36166 3.0496,3.4209 2.9713,1.76249 -0.1122,-2.3744 -3.2117,-5.82335 -6.1125,-6.80163 -3.3164,-1.11846 -3.3534,-1.19867 -3.474,-7.53943 -0.067,-3.52492 -0.447,-7.81262 -0.8443,-9.52823 -0.6669,-2.87938 -0.4652,-3.21322 2.6219,-4.34038 1.8394,-0.6716 7.1718,-1.46156 11.8499,-1.75548 8.3305,-0.52339 8.7319,-0.4416 19.5,3.97336 6.0469,2.47927 16.5918,7.10961 23.433,10.28966 10.3664,4.81872 13.6981,5.89486 20,6.45996 5.5073,0.49385 9.2076,1.51351 13.6212,3.75351 6.9377,3.52095 7.7215,4.31711 9.4105,9.55868 0.6771,2.101 1.8607,4.06165 2.6304,4.35699 2.3616,0.90622 1.5674,4.59293 -2.1007,9.75222 -1.925,2.70755 -3.5,5.36789 -3.5,5.91187 0,0.54397 -2.7,3.80082 -6,7.23742 -5.5032,5.73101 -5.9942,6.60745 -5.9299,10.58493 l 0.07,4.33656 1.7368,-5 c 1.1505,-3.31232 3.4896,-6.74428 6.9299,-10.16769 2.8562,-2.84223 5.1974,-5.76723 5.2028,-6.5 0.01,-0.73277 1.5803,-3.30814 3.5,-5.72304 2.1372,-2.68855 3.4903,-5.49181 3.4903,-7.23095 0,-2.17306 0.5703,-2.98335 2.4278,-3.44956 4.1746,-1.04775 6.4296,0.47905 12.3557,8.36582 5.1475,6.85054 6.2009,7.73795 10.1005,8.50914 2.3945,0.47353 6.4376,2.10215 8.9848,3.61915 2.5472,1.517 9.2147,5.314 14.8169,8.43778 13.5643,7.56357 18.5059,11.63257 28.1297,23.16241 6.369,7.63045 8.7616,11.43047 11.2302,17.83656 4.2241,10.9616 3.7414,16.58576 -2.5021,29.15541 -5.1708,10.40996 -10.5365,16.23165 -16.1635,17.5371 -5.5304,1.28304 -13.7728,1.15505 -15.1633,-0.23546 -2.0931,-2.09312 -2.5134,-0.0154 -0.8419,4.16208 2.1577,5.39248 2.0495,8.66642 -0.3888,11.76618 -2.7947,3.55283 -1.3698,4.39869 1.5991,0.94931 2.5718,-2.98802 2.989,-6.20575 1.4847,-11.45084 l -0.9302,-3.2434 7.9799,0 c 5.1002,0 9.0157,-0.53568 10.8505,-1.48448 8.935,-4.62049 20.1115,-27.12642 18.8475,-37.95315 -0.3438,-2.94443 -0.1716,-3.16484 2.1544,-2.75808 3.2987,0.57684 8.2528,5.2693 13.213,12.51498 5.5665,8.13139 7.1794,13.41634 6.5704,21.52864 -0.5804,7.73096 -2.5424,11.60447 -7.745,15.29068 -4.8664,3.44796 -7.9834,10.08362 -9.1497,19.47856 -1.6503,13.29267 -7.2357,21.48922 -18.5815,27.26835 -8.0875,4.11945 -20.2791,17.50471 -20.2791,22.26454 0,1.01748 -0.4166,1.84996 -0.9258,1.84996 -0.5092,0 -2.3967,3.59744 -4.1944,7.99431 -1.8713,4.57697 -3.9956,8.22507 -4.9694,8.53414 -0.9355,0.29691 -4.1062,2.77447 -7.046,5.50569 -2.9398,2.73122 -5.5777,4.96586 -5.8619,4.96586 -0.2842,0 -2.9853,2.025 -6.0025,4.5 -3.0172,2.475 -5.8894,4.5 -6.3827,4.5 -1.0289,0 -2.2283,1.46125 -7.1052,8.65669 -2.3756,3.5049 -4.9438,5.85798 -8.0178,7.34605 -3.122,1.51135 -5.3143,3.54031 -7.0791,6.55178 -4.5112,7.69783 -14.426,14.4847 -23.4152,16.02829 -7.7794,1.33583 -28.783,6.61985 -33,8.30202 -2.475,0.98729 -7.425,2.58621 -11,3.55316 -3.575,0.96695 -8.5873,2.66736 -11.1383,3.77868 -4.0378,1.75897 -5.3973,1.88871 -10.5,1.00207 -6.0774,-1.056 -7.8649,-0.78103 -5.3327,0.82032 4.4678,2.82555 17.1292,0.38522 38.971,-7.51121 3.575,-1.29246 11.9,-3.54849 18.5,-5.01339 24.1192,-5.35336 32.3736,-9.504 38.0026,-19.10904 1.8024,-3.0756 4.0456,-5.15624 7.3815,-6.8467 3.6322,-1.84056 5.7393,-3.9206 8.7041,-8.59224 2.5828,-4.06962 5.1859,-6.81668 7.6618,-8.08546 2.0625,-1.05692 3.75,-2.32582 3.75,-2.81978 0,-0.49397 1.6875,-1.91949 3.75,-3.16782 2.0625,-1.24834 6.3267,-4.62629 9.476,-7.50655 3.1493,-2.88027 6.7293,-5.5553 7.9556,-5.94452 1.2264,-0.38922 4.8207,-2.47623 7.9873,-4.63779 8.0695,-5.50814 15.2113,-7.80456 24.2722,-7.80456 9.2949,0 12.7685,1.57503 18.0589,8.18831 7.3314,9.16464 8.5211,11.25683 11.2658,19.81169 2.5323,7.89257 3.2392,9.00024 9.893,15.5 3.9413,3.85 9.5273,9.025 12.4135,11.5 4.1953,3.59766 6.148,6.40494 9.7383,14 3.8926,8.23488 4.4714,10.30108 4.3464,15.51548 -0.1915,7.98544 -2.4287,16.44498 -6.6031,24.96801 -3.3883,6.91832 -3.8101,9.86761 -0.8602,6.01494 4.8267,-6.30377 9.3063,-21.54888 9.3063,-31.67149 0,-5.41427 -0.6285,-7.90879 -3.6371,-14.43611 -3.4942,-7.58097 -12.5411,-19.00765 -16.2698,-20.54963 -0.8762,-0.36234 -4.1554,-3.28734 -7.2871,-6.5 -4.819,-4.94354 -6.1872,-7.2243 -8.9029,-14.8412 -3.5714,-10.01711 -4.9089,-12.25404 -12.6742,-21.19756 -6.5841,-7.58319 -9.4517,-8.67986 -21.2242,-8.11701 -7.3597,0.35187 -9.8152,0.93902 -15.3761,3.67664 -3.6397,1.79185 -7.9437,4.37361 -9.5643,5.73726 l -2.9465,2.47935 2.3221,-5.78934 c 6.0966,-15.19977 14.5121,-26.18269 24.0554,-31.39416 7.7985,-4.25863 14.717,-10.79825 17.0712,-16.13615 1.033,-2.34247 2.1633,-4.48403 2.5117,-4.75903 0.3483,-0.275 0.935,-2.14185 1.3038,-4.14855 0.3688,-2.00671 1.5685,-4.79012 2.666,-6.18536 2.4321,-3.09191 10.6602,-5.66609 18.111,-5.66609 l 5.3512,0 2.3656,6.25 c 1.3011,3.4375 3.0988,7.375 3.9949,8.75 1.2297,1.88693 1.6293,4.94612 1.6293,12.4749 0,8.60164 0.2348,10.02169 1.7057,10.31478 1.5454,0.30796 1.5732,0.0744 0.2963,-2.48528 -1.1411,-2.2874 -1.2049,-4.20325 -0.3349,-10.06479 1.6445,-11.07968 3.8321,-9.81206 11.7202,6.79136 8.3197,17.51186 10.4597,26.17855 8.5881,34.78055 -0.5772,2.65296 -0.3075,3.69623 1.356,5.24605 1.1421,1.06399 2.3265,3.39881 2.6322,5.18848 1.6845,9.86409 3.5201,22.44851 3.4649,23.75395 -0.035,0.825 -0.6648,-0.75 -1.3998,-3.5 -1.0365,-3.87813 -2.4175,-5.95359 -6.1551,-9.25 -2.6592,-2.34525 -5.8395,-4.25 -7.0962,-4.25 -2.8225,0 -2.8229,0.0101 0.2226,-6 2.774,-5.47414 2.9118,-6 1.5733,-6 -1.036,0 -6.0733,10.46793 -6.0733,12.62084 0,0.85131 1.0966,1.37916 2.8651,1.37916 2.8592,0 7.1339,2.68974 10.3164,6.49139 1.8294,2.18527 3.8185,8.90602 3.8185,12.90174 0,1.37912 0.7875,2.94852 1.75,3.48756 1.5573,0.87214 1.7465,2.77711 1.718,17.29969 -0.031,15.79267 -0.1396,16.64251 -3.3685,26.31962 -4.0414,12.11232 -10.7113,26.48751 -14.9511,32.22284 -3.7913,5.12877 -8.6698,7.75182 -17.2028,9.24956 -9.5907,1.68339 -9.7374,1.75773 -17.0742,8.64836 -3.7357,3.50858 -7.2915,6.37924 -7.9016,6.37924 -0.6102,0 -2.9905,-1.26654 -5.2896,-2.81454 -2.2991,-1.548 -6.2052,-3.98014 -8.6802,-5.40477 -2.475,-1.42462 -8.1474,-6.22905 -12.6053,-10.67651 -5.5911,-5.5779 -9.8354,-8.85138 -13.6824,-10.55271 -5.4523,-2.41125 -5.5908,-2.57361 -6.1922,-7.25894 -0.3384,-2.63589 -1.2688,-7.29705 -2.0677,-10.35813 -0.7988,-3.06109 -1.4524,-6.99859 -1.4524,-8.75 0,-1.75142 -0.45,-3.1844 -1,-3.1844 -1.4423,0 -1.2291,6.35704 0.414,12.34609 0.7776,2.83465 1.6326,7.05017 1.9,9.36783 l 0.486,4.21391 -5.7501,-2.90265 c -6.7245,-3.39452 -11.7049,-3.39568 -16.2927,-0.004 l -2.9689,2.19496 -4.6441,-4.56157 c -8.5139,-8.36244 -17.6482,-10.44836 -20.6167,-4.70803 -2.6447,5.11431 -3.6987,5.29157 -9.0102,1.51524 -7.9776,-5.67188 -17.0717,-4.48753 -20.4369,2.66156 -1.554,3.30144 -1.7559,3.38891 -9.0849,3.93729 -8.7862,0.65742 -10.2678,1.21097 -12.0239,4.4922 -0.7202,1.34583 -1.796,2.48352 -2.3906,2.5282 -0.5945,0.0447 -2.3853,0.17497 -3.9795,0.28952 -3.6584,0.26289 -9.2375,6.47087 -10.6165,11.81316 -0.5417,2.09884 -1.4373,5.56335 -1.99,7.69891 -0.7367,2.84606 -2.5069,5.16588 -6.6296,8.68804 -6.1,5.21136 -8.8126,10.1174 -7.8972,14.28272 0.8914,4.05572 6.6002,10.62592 14.9609,17.21826 4.164,3.28326 7.5709,6.21558 7.5709,6.51625 0,0.68742 -3.4396,-0.25489 -8.0369,-2.20181 -1.9453,-0.82381 -3.9703,-2.48524 -4.5,-3.69206 -0.9484,-2.16079 -2.3567,-3.00415 -13.6613,-8.18115 -8.7549,-4.00935 -10.3168,-7.21339 -10.243,-21.01308 0.055,-10.23412 0.2811,-11.46845 3.25,-17.72804 3.9758,-8.38219 4.0092,-11.07633 0.1912,-15.42474 -2.3469,-2.67294 -3,-4.36093 -3,-7.75341 0,-3.60976 -0.6423,-5.06032 -3.832,-8.65468 -3.7835,-4.26353 -3.932,-4.32516 -11.75,-4.8786 l -7.918,-0.56032 -0.308,-5.5 c -0.2429,-4.33629 -0.8776,-6.10884 -3,-8.37754 l -2.692,-2.87753 3.7362,0.67027 c 2.055,0.36864 5.655,1.54115 8,2.60557 5.7924,2.62912 7.1636,2.48122 10.1749,-1.0975 3.171,-3.76852 3.4346,-9.34597 0.6953,-14.71311 -3.6659,-7.18276 -10.2204,-10.99171 -20.3945,-11.85174 -4.1503,-0.35083 -8.0675,-0.96014 -8.7048,-1.35403 -0.6373,-0.39388 -1.4089,-2.581 -1.7146,-4.86027 -0.5914,-4.40918 -2.2925,-5.73989 -2.2925,-1.79334 0,4.15626 2.0377,8.42524 4.3129,9.03538 1.2029,0.32259 4.4746,0.59268 7.2704,0.60019 6.1382,0.0165 6.891,0.58819 4.3565,3.30866 -2.5764,2.76544 -2.4466,4.63179 0.6096,8.76071 l 2.5493,3.44428 -4.143,0.31208 c -2.2787,0.17164 -6.2061,-0.39086 -8.7275,-1.25 -2.5215,-0.85915 -5.2918,-1.56787 -6.1563,-1.57495 -0.8646,-0.007 -3.8219,-1.05364 -6.5719,-2.3257 l -5,-2.31284 0,-12.4243 c 0,-10.43294 -0.3755,-13.51152 -2.3426,-19.20765 -3.0302,-8.77409 -5.5537,-11.64031 -14.1552,-16.07769 -7.7177,-3.98141 -8.0022,-4.07705 -8.0022,-2.68957 0,0.52215 3.5293,2.78554 7.843,5.02975 6.9474,3.61441 8.0937,4.61941 10.0382,8.80062 3.4587,7.43679 5.0953,15.0616 5.0916,23.72025 -0.01,10.8607 -0.4621,11.35651 -6.827,7.39986 -2.8418,-1.76659 -5.4622,-2.91676 -5.8231,-2.55593 -0.3608,0.36084 -0.4685,0.78353 -0.2394,0.93932 7.1546,4.86367 15.5671,9.96167 18.373,11.13403 l 3.6293,1.51645 -1.6368,3.16522 c -0.9265,1.79173 -1.4662,4.62667 -1.2436,6.53314 0.2163,1.85235 0.2218,3.36791 0.012,3.36791 -0.2095,0 -2.3033,-1.57527 -4.6529,-3.50061 -4.284,-3.51039 -25.3493,-13.04797 -26.4306,-11.96674 -0.8461,0.84614 1.3597,2.02433 11.1752,5.96896 16.6085,6.67462 28.0399,16.5751 36.6839,31.77099 7.7877,13.69065 8.5129,15.48127 11.0925,27.3919 4.782,22.0791 14.0672,42.02486 23.2126,49.86359 4.8361,4.14518 14.4901,8.93549 19.9518,9.90018 2.0625,0.3643 3.75,1.07508 3.75,1.57953 0,0.50445 -0.8679,3.29656 -1.9287,6.20469 -3.8356,10.51505 -9.0319,29.44835 -10.0965,36.78751 -0.5984,4.125 -0.9819,16.95 -0.8522,28.5 0.2068,18.41603 0.014,21.49219 -1.5673,25 -4.0885,9.0698 -7.0714,30.75403 -8.3912,61 l -0.6982,16 -2.7778,-14 z m 8.5702,-214.75 c 3.8354,-4.2447 4.7417,-6.76108 4.7417,-13.16616 0,-3.71786 -0.7416,-6.68078 -2.5,-9.98782 -1.6819,-3.16327 -2.5,-6.2973 -2.5,-9.57751 0,-4.97681 -1.7341,-8.01851 -4.5714,-8.01851 -2.1418,0 -1.7199,1.69056 0.5714,2.28975 1.6937,0.44291 2,1.36401 2,6.01456 0,4.01772 0.6677,6.65956 2.488,9.84362 1.7851,3.12275 2.4913,5.85359 2.5,9.66781 0.014,6.02208 -0.9227,8.30517 -5.3042,12.93426 -1.7908,1.892 -2.5091,3.25 -1.7192,3.25 0.7464,0 2.6785,-1.4625 4.2937,-3.25 z m 205.7417,-25.65454 c 0,-0.4975 -2.4649,-2.29565 -5.4776,-3.9959 -3.8457,-2.1704 -6.0741,-4.26071 -7.48,-7.01648 -1.1014,-2.15882 -4.9457,-7.44817 -8.5429,-11.7541 -3.5972,-4.30594 -9.0582,-10.84118 -12.1355,-14.52275 -6.234,-7.45801 -15.7033,-14.36141 -22.0258,-16.05744 -3.4394,-0.92264 -4.2638,-1.62686 -4.75,-4.05759 -1.0145,-5.07268 -0.6456,-9.3987 0.9118,-10.6912 1.5691,-1.30225 2.0597,-4 0.7274,-4 -0.4249,0 -1.6135,1.56143 -2.6412,3.46984 -1.4602,2.71141 -1.7318,4.63423 -1.2426,8.79703 0.5932,5.04709 0.4198,5.61392 -3.2983,10.78016 -2.1585,2.99914 -5.1892,7.22729 -6.7349,9.3959 -1.5457,2.16862 -6.8604,6.77862 -11.8104,10.24445 -4.95,3.46583 -10.5926,7.42598 -12.539,8.80035 -2.4181,1.70733 -5.5078,2.70461 -9.7543,3.14846 -6.1227,0.63994 -10.3961,2.50773 -8.9793,3.92455 0.3984,0.39834 1.2976,0.27147 1.9984,-0.28195 0.7008,-0.55341 3.909,-1.30203 7.1294,-1.66359 6.6204,-0.74331 8.8641,-1.69468 13.1448,-5.57362 1.65,-1.49514 5.025,-3.87107 7.5,-5.27985 7.6871,-4.37556 14.7143,-10.59438 17.5479,-15.52937 3.4965,-6.08956 7.3656,-10.23236 9.5563,-10.23236 3.0872,0 10.2727,3.65599 15.6397,7.9575 5.7418,4.60197 24.2275,26.76445 28.5536,34.2329 1.9185,3.31206 4.2576,5.55681 7.9597,7.63879 5.8257,3.27622 6.7428,3.58445 6.7428,2.26627 z m -2,-34.52955 c 0,-2.18349 -5.1415,-13.56591 -6.1278,-13.56591 -0.4766,0 -2.5769,-1.5453 -4.6675,-3.43401 -3.5362,-3.19475 -6.7588,-9.02563 -8.8343,-15.98428 -0.4787,-1.60505 -1.5046,-3.12896 -2.2797,-3.38645 -0.9912,-0.32923 -1.2131,0.0434 -0.7479,1.25571 0.3638,0.94813 0.9349,3.43335 1.269,5.52272 0.5857,3.66302 0.4784,3.84144 -3.0022,4.99013 -1.9853,0.65521 -3.6096,1.60639 -3.6096,2.11373 0,1.18323 0.013,1.18185 4.7644,-0.49444 l 4.0159,-1.41689 3.0499,4.24693 c 1.6775,2.33581 4.6557,5.33591 6.6182,6.66689 2.511,1.70292 4.1585,3.98667 5.56,7.70747 1.0954,2.90813 1.9916,5.72063 1.9916,6.25 0,0.52937 0.45,0.96249 1,0.96249 0.55,0 1,-0.64534 1,-1.43409 z m -323.6349,-42.63849 c 3.9883,-3.13715 3.6974,-8.30897 -0.6151,-10.93838 -7.2541,-4.42293 -18.7286,-0.99099 -18.7432,5.60597 -0.011,5.04185 3.4077,7.19947 11.6083,7.32604 3.7464,0.0578 5.8202,-0.47566 7.75,-1.99363 z m -11.679,0.0314 c -3.9591,-1.15375 -5.6861,-2.8317 -5.6861,-5.52456 0,-3.30861 3.6252,-5.43426 9.268,-5.43426 3.8076,0 5.3478,0.52485 7.3162,2.49331 2.031,2.03096 2.2965,2.86117 1.4316,4.47708 -1.8758,3.50499 -7.6163,5.36193 -12.3297,3.98839 z m 166.0992,-33.31947 c 2.6392,-4.47303 7.6571,-8.05857 13.4647,-9.62119 2.6125,-0.70292 4.75,-1.66956 4.75,-2.14808 0,-1.13578 -0.9795,-1.09735 -5.1008,0.20012 -6.8507,2.15679 -13.377,6.96199 -15.7738,11.6141 -2.4087,4.67504 -0.102,4.63606 2.6599,-0.045 z m 158.6845,-8.11874 c -0.643,-6.86084 -0.4846,-7.89314 1.9146,-12.48159 2.1477,-4.10729 2.6053,-6.30247 2.558,-12.27057 -0.069,-8.77007 -1.0744,-14.97907 -2.5011,-15.45464 -0.7118,-0.23726 -0.6412,2.45895 0.2185,8.34649 1.3416,9.18747 0.7118,15.10685 -1.9323,18.16131 -0.7991,0.92314 -1.7442,3.21956 -2.1002,5.10317 -0.8221,4.34996 0.3422,16.07526 1.5961,16.07526 0.5744,0 0.6713,-2.94434 0.2464,-7.47943 z m 24.0302,6.47939 c 0.3399,-0.55 2.6165,-1 5.059,-1 2.4426,0 4.441,-0.45 4.441,-1 0,-1.58812 -7.8268,-1.15959 -10.4716,0.57334 -2.2986,1.50608 -2.467,1.45264 -3.9413,-1.25 -1.6473,-3.01975 -6.1326,-8.32334 -7.0391,-8.32334 -1.2951,0 -0.3486,2.16172 2.2833,5.2152 1.5572,1.80664 3.1181,4.0723 3.4686,5.0348 0.6889,1.89172 5.1602,2.43259 6.2001,0.75 z m -103.8488,-67.99413 c -0.5664,-2.8317 -1.3176,-4.49835 -6.663,-14.78156 -3.1013,-5.9661 -3.7369,-15.45415 -1.4886,-22.22297 1.9343,-5.82385 7.0313,-14.00134 8.7269,-14.00134 0.5966,0 2.5597,-1.125 4.3624,-2.5 1.8027,-1.375 4.0556,-2.5 5.0065,-2.5 2.3682,0 10.1858,-4.59309 14.2636,-8.38034 5.1902,-4.82032 8.2517,-10.34324 9.146,-16.49908 0.449,-3.09132 1.1297,-6.40808 1.5127,-7.37058 0.3862,-0.97056 0.2468,-1.75 -0.3129,-1.75 -1.3003,0 -3.2048,5.46066 -3.2048,9.18906 0,3.85978 -3.2176,9.96189 -7.5231,14.26741 -1.9303,1.93027 -8.6223,6.02442 -14.8712,9.09811 -10.0317,4.93435 -11.7117,6.13615 -14.3522,10.26697 -7.928,12.40226 -8.167,22.69257 -0.8707,37.49289 2.5395,5.15127 4.6172,10.11286 4.6172,11.02576 0,0.91289 0.5062,1.6598 1.125,1.6598 0.7162,0 0.9074,-1.08806 0.5262,-2.99413 z m -20.3614,-4.11367 c 4.8451,-2.42564 10.7102,-7.67645 10.7102,-9.58837 0,-1.97911 -1.7846,-1.55775 -2.4637,0.58169 -0.6599,2.07939 -6.4932,6.42411 -10.7863,8.03384 -1.5125,0.56713 -2.75,1.49228 -2.75,2.05589 0,1.41957 0.4924,1.31874 5.2898,-1.08305 z m -46.2898,-45.66184 c 2.475,-0.97241 6.075,-3.28539 8,-5.13996 1.925,-1.85457 5.1875,-4.43924 7.25,-5.74372 2.0625,-1.30447 3.75,-2.91168 3.75,-3.57157 0,-0.65989 1.1563,-2.34175 2.5696,-3.73746 1.4133,-1.39571 4.5549,-5.04803 6.9814,-8.11628 6.3945,-8.08575 13.4406,-11.45369 23.449,-11.2083 4.125,0.10114 9.7499,0.76957 12.4998,1.48541 4.3093,1.12178 5.276,1.85394 7,5.30152 1.1001,2.2 2.1127,4.1875 2.2502,4.41667 0.1375,0.22916 0.5513,0.11535 0.9196,-0.25291 0.3682,-0.36827 -0.3631,-2.87429 -1.6252,-5.56893 -2.1513,-4.59308 -2.1931,-5.0444 -0.6696,-7.2196 1.7984,-2.56745 2.0625,-3.87523 0.7827,-3.87523 -0.4634,0 -1.6745,1.54478 -2.6913,3.43284 -1.3746,2.55263 -2.2483,3.22786 -3.4074,2.63342 -0.8574,-0.43967 -5.1826,-1.35067 -9.6118,-2.02443 -6.2359,-0.94861 -9.0564,-0.95848 -12.5,-0.0437 -6.9672,1.85072 -14.1275,6.47796 -17.947,11.59799 -1.925,2.58047 -4.9625,6.12145 -6.75,7.86885 -1.7875,1.7474 -3.25,3.65588 -3.25,4.24107 0,0.5852 -1.1987,1.8494 -2.6638,2.80935 -1.465,0.95995 -4.5121,3.44918 -6.7713,5.53163 -2.2592,2.08245 -6.123,4.56646 -8.5863,5.52003 -2.4632,0.95357 -4.9061,2.11609 -5.4286,2.58338 -1.5992,1.43019 1.6465,0.96723 6.45,-0.92002 z m -27.6707,-4.16546 c 4.5078,-1.71388 6.89,-7.3052 7.852,-18.42958 0.482,-5.57443 1.5738,-13.95943 2.4263,-18.63335 1.3072,-7.16755 1.3556,-9.69392 0.3094,-16.13648 -1.6536,-10.18245 -0.2135,-15.55508 5.932,-22.1309 2.4494,-2.62097 4.1522,-5.06673 3.7839,-5.43502 -1.3163,-1.31625 -8.6696,7.18247 -10.5401,12.18188 -2.4902,6.65578 -2.7048,9.85377 -1.1203,16.69953 1.067,4.60984 1.0791,6.87242 0.065,12 -0.6877,3.47546 -1.8127,11.97371 -2.5001,18.88499 -1.4402,14.48171 -2.7022,17.21862 -9.2293,20.01646 -7.0824,3.03589 -4.5473,3.86018 3.0216,0.98247 z m 23.0818,-20.14163 c 2.9529,-3.50934 2.8862,-3.05533 3.0021,-20.42327 0.081,-12.07318 0.2591,-13.24161 2.5039,-16.38903 1.5031,-2.10754 1.8812,-3.21278 1,-2.92291 -0.7794,0.25637 -2.4495,1.99002 -3.7113,3.85256 -2.1672,3.1988 -2.278,4.17467 -2,17.61173 l 0.2942,14.2253 -3.4462,3.56117 c -2.4274,2.50839 -2.971,3.56118 -1.8389,3.56118 0.884,0 2.7723,-1.38453 4.1962,-3.07673 z m -103.9377,-5.15992 c 3.1059,-4.61193 3.5266,-5.98642 3.5266,-11.52144 0,-5.99601 -0.8199,-8.1733 -5.7084,-15.15858 -0.1604,-0.22916 -0.5713,-0.13699 -0.9131,0.20483 -0.3418,0.34182 0.5582,2.63446 2,5.09474 1.9992,3.41143 2.6215,5.82685 2.6215,10.17574 0,4.92253 -0.4787,6.36885 -3.5,10.57424 -3.7576,5.23037 -4.0318,5.86712 -2.5266,5.86712 0.5354,0 2.5604,-2.35649 4.5,-5.23665 z m -185.4576,-39.28017 c 1.3004,-1.38425 4.1914,-3.0088 6.4243,-3.6101 2.2329,-0.60131 4.9599,-1.45921 6.0599,-1.90644 5.4636,-2.22135 16.81,-4.12652 21.2284,-3.56444 11.0431,1.40487 18.2716,1.77016 18.2716,0.92336 0,-0.49508 -1.4625,-0.98634 -3.25,-1.09169 -1.7875,-0.10535 -6.7561,-0.73517 -11.0413,-1.39959 -7.036,-1.09093 -8.6839,-1.00081 -17,0.92978 -14.134,3.28122 -18.9787,3.66481 -22.6046,1.78978 -3.1308,-1.61899 -4.1211,-0.97085 -1.9041,1.24616 0.66,0.66 2.5179,1.2 4.1286,1.2 l 2.9286,0 -4.3786,3.95899 c -2.7438,2.4809 -3.7903,3.9743 -2.8029,4 0.8666,0.0226 2.6397,-1.09156 3.9401,-2.47581 z m 174.9842,-12.80504 c 0,-5.24069 -3.1827,-11.69395 -7.5204,-15.24834 -3.3015,-2.70537 -4.4788,-4.46528 -4.9829,-7.44919 -0.7303,-4.32295 -6.7614,-12.98061 -9.0425,-12.98061 -2.0176,0 -1.953,0.12695 2.5458,5 2.2,2.38303 4.0025,4.8204 4.0056,5.41639 0.021,4.10632 2.4352,8.85232 5.5239,10.86 3.7874,2.46177 8.0835,11.2714 7.1806,14.72434 -0.3398,1.29915 -0.03,1.99927 0.8835,1.99927 0.8047,0 1.4064,-0.99334 1.4064,-2.32186 z m 73.5612,-5.23743 c 0.6835,-4.55793 0.6843,-4.55874 2.8112,-2.68462 3.5001,3.08401 7.7564,5.45072 8.4644,4.70653 0.3647,-0.38345 -0.1981,-1.20691 -1.2508,-1.8299 -4.5393,-2.68631 -8.0454,-6.63115 -9.038,-10.16913 -0.5869,-2.09181 -1.697,-4.01326 -2.4669,-4.26989 -1.0472,-0.34908 -1.1858,0.008 -0.5501,1.41985 1.0851,2.40903 1.1299,6.63091 0.1341,12.63645 -0.5016,3.02508 -0.4245,4.75 0.2123,4.75 0.5501,0 1.3077,-2.05168 1.6838,-4.55929 z m 65.9388,508.58609 c -2.75,-0.38039 -9.95,-1.52003 -16,-2.53255 l -11,-1.84093 -6.0102,-6.07666 c -11.4524,-11.57903 -16.0441,-18.77896 -17.5869,-27.57666 -0.6979,-3.97957 0.3714,-26.09843 1.6763,-34.67397 l 0.4829,-3.17396 4.719,5.0518 c 7.4372,7.96186 14.9211,12.5537 22.3602,13.71951 17.5028,2.74292 24.0445,3.15146 31.699,1.97969 7.6027,-1.16385 7.7641,-1.14202 18.1998,2.46134 5.791,1.99957 12.1461,3.63559 14.1224,3.63559 4.8227,0 10.532,-2.50255 15.0904,-6.61459 2.811,-2.53576 4.6636,-3.38541 7.3816,-3.38541 4.9254,0 11.6599,-6.58225 13.3184,-13.01719 3.0606,-11.8758 4.2383,-14.94829 7.1185,-18.57142 4.4013,-5.5366 5.9116,-9.62389 7.3903,-20.00015 0.7125,-4.99882 1.8,-10.03173 2.4168,-11.18426 2.2169,-4.1423 1.2864,-10.60289 -2.8785,-19.98602 -2.2,-4.95638 -4,-10.49426 -4,-12.30639 0,-2.59649 -0.9209,-4.15737 -4.3453,-7.36468 -2.39,-2.23844 -6.93,-8.34489 -10.0891,-13.56989 -3.1591,-5.225 -7.4734,-11.56989 -9.5875,-14.09975 l -3.8438,-4.59975 5.1829,2.65284 c 2.8505,1.45906 7.6578,3.68975 10.6828,4.95708 3.8737,1.62289 8.1612,4.87133 14.5,10.9859 4.95,4.77491 12.0611,10.44172 15.8025,12.59291 10.5052,6.04023 26.8948,26.02526 28.2508,34.44839 0.3154,1.95931 1.9393,7.13936 3.6087,11.51123 3.5661,9.33948 3.4364,11.24161 -1.5194,22.27757 -1.92,4.27547 -3.776,9.57358 -4.1244,11.77358 -0.3484,2.2 -0.8458,5.03128 -1.1053,6.29173 -0.2596,1.26045 -3.5698,5.63275 -7.356,9.71622 -3.7863,4.08347 -8.3277,9.43463 -10.092,11.89146 -2.4309,3.38492 -4.5714,5.00694 -8.8364,6.69614 -3.8862,1.53913 -6.9792,3.73936 -9.9918,7.10768 -3.3502,3.74581 -6.7807,6.03582 -14.7754,9.86315 -5.7266,2.74157 -12.0907,6.50124 -14.1424,8.35483 -2.0517,1.85358 -5.7528,3.89147 -8.2246,4.52864 -13.9329,3.5915 -45.7468,15.49363 -48.4443,18.12383 -1.0338,1.00808 -2.4716,1.00137 -10.05,-0.0469 z m -59.0853,-27.10583 c -1.3577,-2.10914 -1.7564,-30.8498 -0.5511,-39.72492 0.5749,-4.23283 3.3836,-15.34605 6.2416,-24.69605 6.5568,-21.45026 6.5726,-21.70759 1.3948,-22.63033 -11.6701,-2.07973 -24.0503,-11.70046 -30.278,-23.52926 -4.6355,-8.80475 -9.6643,-23.24174 -12.1357,-34.84041 -1.1719,-5.5 -2.6506,-11.35 -3.2861,-13 -2.6499,-6.88089 -14.2517,-25.75373 -19.3312,-31.44635 -6.0227,-6.74975 -7.0444,-10.8866 -3.7067,-15.00847 1.4796,-1.82715 2.187,-2.01496 4.4084,-1.17039 1.4553,0.5533 6.5122,1.31971 11.2376,1.70312 9.8963,0.80298 10.6639,0.005 5.9468,-6.17896 -2.2646,-2.96913 -2.4834,-3.82206 -1.5214,-5.93328 2.1577,-4.73572 9.2518,-2.72904 13.4969,3.81783 3.027,4.66831 3.4175,9.36909 1.1437,13.76616 -1.7988,3.47857 -2.7724,3.59073 -8.6397,0.99534 -2.4307,-1.07525 -6.3055,-2.25656 -8.6104,-2.62515 -5.4929,-0.87834 -6.702,1.42822 -2.8541,5.44457 2.1454,2.23936 2.6299,3.69556 2.6299,7.90512 0,6.14568 1.9496,7.76881 8.3071,6.91609 8.5485,-1.14659 15.6929,4.8643 15.6929,13.20317 0,3.40561 0.6045,4.86957 3,7.26505 3.8044,3.80436 3.7664,6.00337 -0.25,14.48388 -3.0538,6.448 -3.25,7.52633 -3.25,17.86227 0,9.8793 0.2527,11.44142 2.4806,15.33265 2.1444,3.74542 3.7307,4.92864 11.7041,8.72993 5.0729,2.4185 9.7092,5.30484 10.3028,6.41408 2.305,4.30699 16.5125,8.68787 16.5125,5.09164 0,-0.78744 -3.7678,-4.38744 -8.3729,-8 -10.0253,-7.86453 -14.5271,-13.65442 -14.5271,-18.6836 0,-3.09845 0.9051,-4.42469 7.0268,-10.29692 l 7.0267,-6.74038 3.3876,2.32119 c 1.8632,1.27666 4.8661,2.59858 6.6732,2.9376 2.4062,0.45139 3.2857,1.14873 3.2857,2.6051 0,3.13138 6.2862,8.80341 9.65,8.70714 l 2.85,-0.0816 -3.3874,-1.47737 c -4.136,-1.80383 -7.0348,-5.10866 -7.0793,-8.07094 -0.026,-1.74765 -0.9246,-2.4486 -4.2833,-3.34217 -2.3375,-0.6219 -5.684,-2.21542 -7.4367,-3.54116 -2.8528,-2.1579 -3.126,-2.80305 -2.6074,-6.15782 1.1628,-7.52185 6.5747,-15.24737 10.6812,-15.24737 1.7073,0 2.7567,0.99244 4.0262,3.80768 1.0194,2.26059 3.0692,4.5359 5.045,5.59996 2.0039,1.07916 4.0278,3.34403 5.0868,5.69231 0.9672,2.14503 2.1778,3.90005 2.6901,3.90005 0.5123,0 0.7792,-0.3375 0.5932,-0.75 -0.1861,-0.4125 -0.9791,-2.40996 -1.7621,-4.4388 -0.9179,-2.37794 -2.636,-4.33242 -4.835,-5.5 -3.0275,-1.60746 -6.2313,-5.74058 -6.2313,-8.03868 0,-0.45474 1.3246,-2.27709 2.9436,-4.04966 2.7323,-2.99149 3.4055,-3.22286 9.3772,-3.22286 l 6.4335,0 -0.5069,4.4974 c -0.4684,4.15558 -0.2079,4.82181 3.4276,8.76584 3.3196,3.60136 4.2125,5.55529 5.7136,12.5026 0.9785,4.52879 2.1914,8.23416 2.6952,8.23416 1.1562,0 1.1862,0.41424 -0.5782,-7.97351 -1.801,-8.56157 -3.6862,-12.44351 -7.143,-14.70849 -2.3783,-1.55828 -2.5467,-2.1154 -2.0101,-6.64657 0.3222,-2.72015 1.2746,-5.70694 2.1166,-6.63732 0.842,-0.93037 1.5309,-2.43328 1.5309,-3.3398 0,-2.45322 4.5371,-4.96704 8.9648,-4.96704 2.7974,0 5.1051,0.88649 8.1644,3.13637 2.3457,1.725 4.7387,3.13608 5.3178,3.13574 0.6435,-3.8e-4 0.918,1.9483 0.7057,5.0109 -0.2968,4.28458 0.1272,5.75084 2.9234,10.10827 2.7292,4.25312 3.0763,5.40772 2.0972,6.97553 -0.6453,1.03333 -1.1733,2.97556 -1.1733,4.31606 0,3.93401 2.2608,12.58986 3.2883,12.58986 0.5197,0 0.6652,-1.2375 0.3235,-2.75 -1.4842,-6.56865 -1.8309,-12.99652 -0.7376,-13.67226 1.8653,-1.15281 1.2796,-3.83354 -1.8742,-8.57774 -3.9833,-5.99198 -3.9773,-10.88312 0.021,-17.25 1.7618,-2.80554 3.7204,-4.75 4.7846,-4.75 0.991,0 4.1036,1.147 6.9168,2.54888 8.6567,4.3138 12.7187,12.09639 8.6565,16.58513 -2.0088,2.21972 -1.1338,4.86599 1.6089,4.86599 1.7344,0 1.9461,0.42392 1.3732,2.75 -0.3725,1.5125 -1.3099,3.72764 -2.0833,4.92254 -1.861,2.87556 -2.9726,13.32746 -1.4174,13.32746 0.6379,0 1.1399,-1.55454 1.1399,-3.53013 0,-1.94158 1.125,-6.20302 2.5,-9.46987 3.0947,-7.3527 3.0925,-7.62566 -0.074,-9.28456 -2.2879,-1.19874 -2.3989,-1.4934 -1,-2.65438 0.8655,-0.71827 1.59,-2.48835 1.6101,-3.9335 0.047,-3.37023 7.761,-8.64617 11.3317,-7.75 2.0995,0.52696 8.6493,8.05042 12.9404,14.86427 1.6661,2.64557 1.6459,2.87379 -0.5763,6.5 -3.2945,5.37572 -4.7323,8.98263 -4.7323,11.87096 0,3.66921 -1.6518,6.41902 -6.3402,10.55493 -2.2868,2.01725 -3.8422,3.98323 -3.4566,4.36885 0.8667,0.86668 8.838,-5.84202 10.5056,-8.84157 0.6712,-1.20725 1.2406,-3.545 1.2655,-5.195 0.046,-3.04402 4.0805,-12.79784 5.7105,-13.80524 0.4898,-0.30267 2.1979,1.77969 3.7959,4.62746 2.5722,4.58382 4.065,6.23496 9.2019,10.17778 0.7166,0.55 1.6868,3.07723 2.156,5.61608 0.765,4.13905 0.6713,4.56853 -0.9061,4.15602 -2.1379,-0.55906 -7.6788,3.35317 -8.5249,6.01906 -0.3369,1.06146 -2.2046,3.69208 -4.1503,5.84581 -1.9458,2.15374 -3.245,4.20869 -2.8871,4.56656 0.973,0.973 6.3096,-4.50906 8.1358,-8.35758 1.8973,-3.99809 5.5444,-6.64756 7.9043,-5.742 2.3698,0.90937 8.7897,14.06411 8.7897,18.01055 0,1.797 -0.6895,5.43138 -1.5322,8.07639 -0.8428,2.64501 -1.8442,7.73411 -2.2254,11.30911 -0.3812,3.575 -1.76,8.91452 -3.0639,11.8656 -2.3293,5.27196 -2.4013,5.33036 -4.1246,3.34621 -2.935,-3.37923 -11.6782,-8.92508 -17.1149,-10.85604 -3.5553,-1.26272 -5.139,-2.36923 -5.139,-3.59049 0,-0.9709 -0.4799,-1.76528 -1.0664,-1.76528 -0.5866,0 -0.9241,1.15932 -0.75,2.57626 0.2609,2.12446 1.2434,2.88881 5.6022,4.35847 6.3975,2.157 16.1328,8.67574 17.1871,11.50846 0.5197,1.39605 0.1753,2.81 -1.0719,4.40134 -1.0107,1.28948 -2.3615,5.00758 -3.0018,8.26243 -1.3662,6.94414 -2.8179,6.66465 -5.3753,-1.03488 -1.3868,-4.17551 -2.0664,-4.91805 -5.4208,-5.92304 -4.5814,-1.37262 -5.1031,-1.40404 -5.1031,-0.30733 0,0.46294 1.7277,1.35934 3.8393,1.992 3.2683,0.97921 4.0205,1.75491 5.0573,5.2156 0.6699,2.23592 2.0842,4.93146 3.1428,5.99007 1.4601,1.46008 1.711,2.47228 1.0396,4.19269 -1.4818,3.79641 -7.2862,8.5162 -11.079,9.00869 -1.925,0.24996 -4.3014,0.80151 -5.2808,1.22567 -1.5935,0.69008 -1.7129,0.3467 -1.1355,-3.26438 0.4419,-2.76351 0.098,-5.46966 -1.0922,-8.58516 -0.9556,-2.50228 -1.499,-5.79745 -1.2074,-7.3226 0.2915,-1.52515 0.1061,-3.56529 -0.4122,-4.53365 -0.9952,-1.85952 -4.8719,-2.46478 -4.8719,-0.76064 0,0.55 0.6484,1 1.441,1 2.0877,0 2.6881,1.48113 1.6853,4.15765 -0.6195,1.65347 -0.3109,3.78834 1.0492,7.25908 1.471,3.7537 1.7708,6.16475 1.2675,10.19282 -0.7593,6.07757 -2.0866,7.55937 -8.7819,9.80448 -4.7891,1.60589 -4.9281,1.59067 -13.5,-1.47852 -4.7636,-1.70562 -10.8555,-3.49573 -13.5375,-3.97803 -5.7436,-1.03286 -6.5144,-1.53998 -3.699,-2.43356 1.7756,-0.56356 2.0789,-1.47945 2.0993,-6.34131 0.03,-7.21917 1.2834,-12.63278 3.4184,-14.7678 0.92,-0.91998 1.4218,-2.32647 1.1152,-3.12554 -0.3066,-0.79906 -0.5575,-1.64104 -0.5575,-1.87106 0,-0.23001 -0.4981,-0.41821 -1.107,-0.41821 -0.6088,0 -0.8385,0.69957 -0.5104,1.5546 0.3281,0.85503 -0.3278,2.80481 -1.4575,4.33284 -1.4774,1.99835 -2.2188,4.95645 -2.6409,10.53775 l -0.5869,7.75951 -4.5986,2.95652 c -4.4203,2.84182 -4.9207,2.93305 -12.8981,2.35148 -17.0584,-1.2436 -24.9497,-3.06479 -31.1301,-7.18434 -3.1424,-2.0946 -7.3507,-5.64294 -9.3519,-7.8852 l -3.6385,-4.07684 2.4385,-3.58853 c 1.3671,-2.01185 3.8758,-4.08325 5.7099,-4.71452 3.9575,-1.36211 11.1231,-7.4886 10.5987,-9.06171 -0.2094,-0.62808 -2.365,0.59588 -4.852,2.75495 -2.4614,2.13684 -5.9337,4.47323 -7.7164,5.19198 -1.7826,0.71875 -4.2576,2.94138 -5.5,4.93917 -2.1751,3.49773 -2.2716,3.54132 -2.6054,1.17629 -0.4706,-3.33527 1.3654,-9.12972 5.6341,-17.78138 1.964,-3.98059 3.2974,-7.51105 2.9629,-7.84547 -0.8588,-0.85886 -6.3667,5.41708 -8.3565,9.52174 -1.7966,3.70637 -2.7382,10.22799 -4.4123,30.56116 -1.0207,12.39759 -4.1735,32.14125 -5.8609,36.70267 -0.64,1.73023 -0.9662,1.86758 -1.706,0.7183 z m 53.0382,-34.08149 c 2.2608,-1.03007 2.5471,-1.75332 2.5471,-6.4349 0,-6.13091 1.1921,-9.78327 4.22,-12.92921 1.9987,-2.07665 6.1221,-12.46655 5.2813,-13.30739 -0.9465,-0.94652 -2.3534,1.18022 -3.3507,5.06502 -0.6024,2.34685 -2.4146,5.79476 -4.027,7.66203 -3.1602,3.65971 -4.1236,6.86755 -4.1236,13.72997 0,2.40625 -0.1125,4.38178 -0.25,4.39006 -0.1375,0.008 -2.05,0.66353 -4.25,1.4561 -3.5109,1.26484 -3.6695,1.44642 -1.2971,1.48495 1.4867,0.0241 3.8492,-0.47834 5.25,-1.11663 z m -290.9529,-33.63422 c -6.0262,-0.68815 -20.1473,-4.08141 -25.751,-6.18787 -4.9384,-1.85637 -6.3745,-3.03478 -10.1636,-8.33962 -5.69,-7.9664 -7.8881,-9.96551 -15.6736,-14.2552 -3.5265,-1.94303 -5.3883,-3.24917 -4.1374,-2.90253 1.2509,0.34663 5.1385,0.67367 8.639,0.72675 6.3154,0.0958 13.3647,-2.40512 19.0136,-6.74549 3.7053,-2.84701 0.6308,-2.70872 -4.1269,0.18563 -7.5074,4.56706 -10.8097,5.61232 -15.5363,4.91757 -2.3451,-0.34469 -6.7988,-0.83681 -9.8971,-1.09359 -10.0878,-0.83605 -24.2625,-8.00943 -28.2226,-14.2826 -3.8381,-6.08004 -7.8243,-14.3814 -7.2037,-15.002 0.3161,-0.31616 6.3089,-1.15449 13.3172,-1.86296 14.3612,-1.45178 31.8897,-4.54573 41.7844,-7.37536 10.016,-2.86433 21.772,-3.47175 28.458,-1.47041 9.9642,2.9826 16.8836,3.99882 18.2083,2.67416 0.9223,-0.92232 0.2987,-1.19466 -2.7583,-1.20464 -2.1725,-0.007 -6.8026,-0.9071 -10.2891,-2 -3.5333,-1.10759 -9.2873,-2.0092 -13,-2.03703 l -6.6609,-0.0499 9.5,-3.44269 c 5.225,-1.89348 13.8978,-5.63279 19.2728,-8.30957 7.9964,-3.98223 9.6627,-4.52016 9.1674,-2.9594 -1.6356,5.15318 5.7817,6.31791 14.4722,2.27253 2.9767,-1.3857 5.7698,-2.3938 6.2068,-2.24024 1.668,0.58621 -3.4659,9.49693 -9.1685,15.91337 -3.2729,3.6826 -5.9507,7.52603 -5.9507,8.54096 0,2.82142 4.6008,7.15937 8.3365,7.86019 2.1325,0.40007 4.7544,0.0336 7.2518,-1.01359 2.4532,-1.02863 5.1335,-1.41293 7.1883,-1.03066 2.7405,0.50982 3.7632,0.12301 6.25,-2.36382 3.6217,-3.62167 3.8771,-7.8915 1.0765,-17.99771 -1.0433,-3.76483 -1.5481,-7.40954 -1.1217,-8.09935 1.4859,-2.40425 9.0827,-3.01163 15.7506,-1.25929 l 6.232,1.63778 2.9798,-2.85479 2.9797,-2.85479 4.3217,1.65046 c 2.3769,0.90775 6.0701,1.65046 8.2072,1.65046 3.5062,0 4.6127,-0.73202 11.337,-7.5 4.0983,-4.125 8.2722,-7.5 9.2753,-7.5 2.5896,0 5.6132,3.03994 14.9195,15 4.7113,6.05482 9.8309,11.49553 12.093,12.85154 2.1575,1.29335 3.9228,2.71545 3.9228,3.16023 0,0.44478 -3.8596,1.13019 -8.5768,1.52313 -5.6538,0.47097 -10.0413,1.4559 -12.8743,2.89011 l -4.2974,2.17566 -5.3583,-4.09407 c -4.5842,-3.50266 -5.8374,-5.23843 -8.6747,-12.01593 -3.5667,-8.51995 -3.9176,-9.12488 -4.7879,-8.25458 -0.3132,0.31318 0.8606,4.10068 2.6085,8.41667 3.0455,7.52001 5.5626,10.85417 10.9759,14.53854 2.392,1.628 2.1251,1.66948 -7.1287,1.10814 -8.8578,-0.53732 -10.1603,-0.36869 -16.5669,2.14487 l -6.9533,2.72804 -7.8131,-2.62277 c -8.9272,-2.99676 -11.2482,-2.63753 -3.9575,0.61254 7.6526,3.41145 13.8105,3.53416 21.2034,0.42254 6.0664,-2.55335 6.4906,-2.59429 15.2454,-1.47153 l 9.0053,1.15489 -2.5353,3.11599 c -8.4284,10.35885 -15.5143,26.40572 -15.5143,35.13407 l 0,4.30744 -10.75,2.55465 c -22.661,5.38522 -29.0844,5.44193 -48.6573,0.42957 -6.1984,-1.58735 -10.0884,-1.93349 -18,-1.60173 -9.6962,0.40659 -21.5927,3.14735 -21.5927,4.97459 0,1.15884 0.7071,1.0451 8,-1.2868 9.2803,-2.96737 21.4702,-2.78263 35,0.53043 16.7794,4.10881 28.1672,3.48024 53.25,-2.93925 2.7353,-0.70006 2.75,-0.67629 2.75,4.44991 l 0,5.15372 -3.75,-0.70782 c -4.9145,-0.92761 -2.609,-1.2484 -28.5763,3.97631 -30.524,6.14153 -52.6497,8.93373 -62.1737,7.84614 z M -1844.57,639.51514 c -16.1245,-2.6136 -31.9092,-8.03096 -48.5262,-16.65437 -8.479,-4.40018 -20.8635,-16.10246 -20.8635,-19.71425 0,-1.1278 -1.1622,-2.85906 -2.5827,-3.84724 -8.9,-6.19142 -22.6351,-22.9444 -25.7969,-31.46496 -2.8567,-7.69847 -4.9381,-22.01712 -5.1359,-35.33172 -0.1062,-7.15 -0.5962,-13.9 -1.0888,-15 -1.6524,-3.68959 -1.0275,-28.30168 0.9898,-38.98925 1.6856,-8.92989 2.2423,-10.31607 5.25,-13.07101 2.5985,-2.3801 3.3645,-3.8832 3.3645,-6.60181 0,-5.43707 2.598,-12.80887 5.6291,-15.97269 2.2171,-2.3141 2.8272,-4.0253 3.1814,-8.92269 0.3778,-5.22187 0.8013,-6.28428 3.0639,-7.68564 1.4441,-0.89438 3.6238,-2.50807 4.8438,-3.58597 2.0203,-1.78493 2.7321,-1.8566 7.9775,-0.80319 10.9476,2.19859 17.6158,6.23678 29.6735,17.96994 10.8064,10.51561 11.3348,10.8819 18.1308,12.56995 3.85,0.95629 8.35,2.76972 10,4.02983 3.3251,2.53939 12.0059,16.9349 11.098,18.40395 -0.3167,0.51252 -2.2474,1.24544 -4.2904,1.6287 -5.1666,0.96925 -10.233,3.75607 -14.0423,7.72404 -3.2944,3.43171 -7.453,13.63303 -8.718,21.38637 l -0.6658,4.08052 -2.6908,-2.32222 c -1.4799,-1.27722 -4.7157,-3.81109 -7.1907,-5.63083 -10.6466,-7.82787 -22.436,-27.23967 -24.1376,-39.74348 -0.5587,-4.10548 -1.2267,-8.92702 -1.4844,-10.71452 -0.6184,-4.28887 -2.378,-4.18304 -2.378,0.14301 0,4.18387 -0.9719,4.60699 -10.5818,4.60699 -4.8718,0 -7.4182,0.39003 -7.4182,1.13626 0,0.80238 2.7536,0.99223 9.371,0.64609 l 9.3711,-0.49017 1.5633,7.93513 c 1.1362,5.76747 2.7422,9.8908 5.8789,15.09419 6.4762,10.74306 15.1902,21.0686 20.8398,24.69394 2.7693,1.77709 5.6681,4.13477 6.4418,5.23928 2.3206,3.31322 4.0659,1.41057 5.4115,-5.89957 1.5997,-8.68989 6.3146,-18.64361 10.1121,-21.34766 2.8257,-2.0121 13.1129,-6.00749 15.4678,-6.00749 0.6293,0 2.179,2.1375 3.4439,4.75 3.0184,6.23461 9.9293,15.88104 14.7483,20.5862 6.7611,6.6014 13.7808,9.20044 38.1878,14.13895 23.9156,4.83908 32.7814,7.09884 33.7032,8.59044 0.7309,1.18256 3.4595,1.22796 3.4595,0.0575 0,-1.99902 -11.154,-5.40155 -29.7391,-9.07193 -27.9897,-5.52772 -32.6125,-6.83252 -39.129,-11.04434 -7.4614,-4.82257 -14.234,-13.87727 -22.7748,-30.44905 -3.6686,-7.1182 -8.3506,-14.7682 -10.4043,-17 -5.7945,-6.2967 -8.8707,-19.928 -5.839,-25.87356 0.6125,-1.20134 4.4773,-7.21321 8.5884,-13.35971 7.3178,-10.94076 9.2259,-15.49031 9.2739,-22.1124 0.021,-2.95562 0.291,-3.25876 2.6672,-3 2.049,0.22313 3.0238,-0.3867 4.3352,-2.71215 1.5806,-2.80287 2.0238,-2.97808 6.7444,-2.66637 5.5307,0.36521 18.8967,-3.67673 29.2084,-8.83274 6.7059,-3.35304 17.0687,-4.6371 17.0687,-2.115 0,1.8337 3.8782,5.34822 9.6491,8.74425 l 4.1491,2.44164 0.7063,7.9788 c 0.5782,6.53178 0.4109,8.42954 -0.9222,10.46411 -0.8956,1.36692 -1.1784,2.48531 -0.6284,2.48531 0.55,0 1.7461,-1.13871 2.658,-2.53047 1.3327,-2.03389 1.5239,-3.84911 0.9744,-9.25 -1.0254,-10.07781 -1.2107,-10.42748 -7.6541,-14.43947 -8.0054,-4.98456 -8.6735,-7.03879 -4.1031,-12.61637 2.6694,-3.25763 6.2423,-5.68734 14.3218,-9.73937 10.9789,-5.50607 12.8491,-7.24768 12.8491,-11.96552 0,-2.15134 0.3414,-2.53316 1.75,-1.95729 7.8448,3.20712 25.7145,3.16902 37.5511,-0.0801 6.7993,-1.86637 6.8027,-1.86627 13,0.35608 8.8208,3.16316 18.4488,2.96395 33.8852,-0.7011 22.8046,-5.41445 36.9732,-6.8128 45.0747,-4.44854 2.2902,0.66837 4.739,5.4644 4.739,9.28154 0,2.34835 -1.6981,4.88672 -7.7371,11.56566 -5.4803,6.06104 -8.1784,8.35662 -9.25,7.87005 -0.8321,-0.37781 -5.1807,-0.87936 -9.6635,-1.11454 -7.5695,-0.39712 -8.6388,-0.19651 -15,2.81417 -3.7672,1.78298 -8.1753,4.17087 -9.7957,5.30643 -1.6205,1.13556 -4.3205,2.8018 -6,3.70277 -1.6795,0.90097 -5.1186,2.83028 -7.6423,4.28737 -2.5237,1.4571 -6.9038,3.08834 -9.7335,3.62499 -4.8517,0.9201 -5.2951,0.82565 -7.7776,-1.65688 -1.4479,-1.44794 -3.0303,-4.01941 -3.5164,-5.7144 -1.173,-4.08968 -1.1265,-9.59499 0.081,-9.59499 1.1686,0 3.413,-3.95553 2.6675,-4.70103 -0.2913,-0.29136 -1.6636,0.75969 -3.0494,2.33565 -2.9239,3.32507 -3.1508,6.38379 -1.1029,14.86538 2.4591,10.18423 2.0754,13.22155 -2.1604,17.10138 -4.2794,3.91983 -3.8888,5.61867 0.5392,2.34489 3.804,-2.81238 5.4637,-6.76762 4.9778,-11.8625 -0.356,-3.73299 -0.2711,-3.88201 1.3666,-2.39992 1.3973,1.26459 2.9888,1.43963 7.9676,0.87634 6.1998,-0.70142 13.5856,-4.22463 24.4093,-11.64371 2.244,-1.53819 6.069,-3.56988 8.5,-4.51488 2.431,-0.945 4.9974,-2.16449 5.7032,-2.70997 0.7058,-0.54549 4.4348,-0.9336 8.2865,-0.86247 11.0291,0.20367 17.319,4.67826 20.4269,14.5314 l 1.3056,4.13944 0.095,-3.5 c 0.1004,-3.69284 -2.7878,-9.47671 -5.9962,-12.00818 -1.8319,-1.44539 -1.6663,-1.7799 3.9784,-8.03416 3.2395,-3.58928 7.6293,-7.68642 9.7552,-9.10475 5.5551,-3.70621 17.6681,-6.21575 27.1548,-5.62585 8.9697,0.55775 22.6235,5.38319 27.4601,9.70478 2.7349,2.44356 2.9005,2.92673 1.7597,5.13282 -0.6926,1.33944 -2.0303,3.33534 -2.9725,4.43534 -3.8223,4.46209 -4.3711,7.99401 -3.6894,23.7431 0.3593,8.30001 0.878,15.31577 1.1529,15.59058 1.4458,1.4458 1.7008,-1.85111 0.8943,-11.56168 -1.2405,-14.9357 -0.5619,-20.72374 3.1053,-26.48549 1.65,-2.59242 3.5421,-4.72992 4.2045,-4.75 0.6625,-0.0201 2.3836,-1.21554 3.8246,-2.65657 2.2698,-2.26971 3.2453,-2.55717 7.2955,-2.14975 2.5715,0.25867 7.8903,2.0002 11.8196,3.87006 6.7012,3.18898 7.2831,3.73123 9.3857,8.7465 1.9594,4.6738 2.1563,6.36876 1.5643,13.46712 -0.4401,5.27738 -1.2421,8.74457 -2.2907,9.90325 -1.4726,1.62717 -1.4739,1.78288 -0.015,1.78288 0.8791,0 2.2799,-0.97317 3.113,-2.1626 l 1.5148,-2.1626 2.0087,2.4126 c 1.5122,1.81635 2.0169,2.01841 2.0419,0.81759 0.018,-0.87726 -0.8667,-2.4095 -1.9667,-3.40499 -1.6753,-1.51614 -2,-3.07997 -2,-9.63283 0,-6.50697 -0.4623,-8.76551 -2.7484,-13.42678 -2.6929,-5.4907 -2.7092,-5.63258 -0.8089,-7.02216 2.6118,-1.90979 5.7925,-1.78776 15.0385,0.57695 9.5771,2.44943 14.1604,5.95456 21.3107,16.29792 3.7202,5.38149 6.1128,10.41232 8.5981,18.07894 4.0178,12.39415 5.7157,15.38534 12.5243,22.06394 4.5089,4.42282 5.2018,5.69912 6.6652,12.2766 2.3124,10.39388 1.5368,13.16959 -5.9087,21.14717 -11.7456,12.58502 -16.9916,21.41217 -20.2207,34.02455 -0.899,3.51137 -1.4444,8.01137 -1.2119,10 0.4131,3.53369 0.1029,3.29817 -13.6735,-10.3843 -23.2063,-23.048 -50.6201,-40.33256 -88.0644,-55.52521 -13.6506,-5.53856 -14.0151,-5.76499 -14.6124,-9.07752 -0.3369,-1.8685 -1.0716,-4.52483 -1.6326,-5.90295 -1.3375,-3.28558 0.025,-18.33688 2.1127,-23.33257 0.8683,-2.07826 2.4908,-4.93803 3.6054,-6.35506 1.1146,-1.41702 2.0266,-2.96572 2.0266,-3.44155 0,-1.71714 -1.919,-0.81399 -3.1954,1.50386 -0.7175,1.30295 -2.4121,4.34045 -3.7658,6.75 -2.2265,3.96338 -2.4575,5.47725 -2.4236,15.881 0.021,6.325 0.3915,12.96045 0.824,14.74545 l 0.7865,3.24545 -3.8629,-1.35801 c -5.9133,-2.0789 -20.6988,-5.38087 -32.3628,-7.22743 -21.7236,-3.43913 -72.3928,-1.57147 -97.4958,3.59368 -36.5879,7.52824 -59.9323,19.64373 -67.1183,34.83355 -2.2138,4.67972 -2.5514,6.51622 -2.1401,11.6412 1.1408,14.21209 11.0774,23.59664 30.7542,29.04576 5.225,1.44696 14,3.94278 19.5,5.54626 5.5,1.60348 15.4692,3.9929 22.1538,5.30982 25.438,5.0115 30.0455,11.00263 32.5726,42.35403 0.8451,10.48457 0.8593,17.91729 0.054,28.24047 -1.2653,16.22121 -2.9328,20.80357 -9.741,26.76851 -9.8812,8.65733 -44.3189,22.23469 -70.1353,27.65148 -22.2835,4.67553 -53.7214,7.11491 -66.0146,5.12232 z m 2.6103,-27.11367 c 0,-0.33063 -2.9547,-3.79254 -6.5661,-7.69315 -5.0125,-5.41389 -6.4265,-7.57872 -5.9759,-9.14887 2.112,-7.36054 2.0624,-7.55685 -1.9072,-7.55685 -3.1324,0 -4.6304,-0.88118 -9.7749,-5.75 -10.0317,-9.49412 -17.6778,-19.90861 -23.5026,-32.01223 -4.1823,-8.69046 -6.0989,-11.61335 -8.3934,-12.79989 -2.5711,-1.32955 -3.3498,-1.34996 -5.7536,-0.15078 l -2.78,1.38687 1.4769,-4.08698 c 3.2898,-9.10352 1.0617,-26.29739 -4.6023,-35.5149 -2.8697,-4.67006 -14.8055,-14.82079 -16.0104,-13.61591 -0.3888,0.38876 0.6423,1.68201 2.2913,2.8739 10.454,7.55608 14.1753,13.26205 17.0208,26.0981 1.4973,6.75484 1.5823,8.87882 0.5739,14.35165 -0.651,3.5329 -1.8878,7.49814 -2.7484,8.81163 -1.3926,2.12535 -1.3977,2.45227 -0.047,2.97071 0.8349,0.32039 2.9128,-0.13868 4.6174,-1.02017 4.7053,-2.43319 6.4903,-0.78505 12.5632,11.60006 5.708,11.64096 9.7697,17.59378 18.6123,27.27823 6.6061,7.23493 12.4334,11.57971 15.531,11.57971 2.0827,0 2.2235,0.26746 1.3499,2.5651 -1.6843,4.43011 -1.1228,5.7476 5.6187,13.1849 5.8647,6.46997 8.4061,8.4801 8.4061,6.64887 z m 36.5,-14.71366 c 1.7979,-3.30802 2.4111,-3.68008 6.0685,-3.68251 2.2377,-0.001 6.385,-0.69064 9.2163,-1.53145 4.2303,-1.25624 6.0897,-2.62585 10.4315,-7.68347 10.4562,-12.17998 15.3329,-17.08519 18.1987,-18.30506 1.9039,-0.81043 5.7198,-1.06582 11.0015,-0.73631 l 8.0865,0.5045 5.2485,-4.14871 c 2.8867,-2.28179 5.2485,-4.6148 5.2485,-5.18447 0,-1.23667 -1.2297,-0.55551 -6.3521,3.51853 -3.7409,2.97522 -4.1687,3.06716 -14.8078,3.18203 -10.5337,0.11372 -11.0671,0.22497 -13.8467,2.88799 l -2.8909,2.7697 1.1181,-3.64323 c 1.0012,-3.26213 0.8804,-3.89638 -1.1553,-6.06322 -3.1613,-3.36506 -9.3723,-4.59576 -25.0653,-4.96666 -12.217,-0.28875 -14.878,-0.70658 -28,-4.39644 -7.975,-2.24255 -15.7873,-4.21891 -17.3607,-4.3919 -1.5733,-0.17299 -4.4267,-1.66453 -6.3408,-3.31453 -9.7919,-8.4408 -16.5402,-15.21892 -19.5044,-19.59033 -3.0982,-4.56927 -4.7941,-6.00532 -4.7941,-4.05971 0,2.68688 12.6166,16.65727 20.8332,23.06867 3.9938,3.11636 4.2829,3.64911 3.6913,6.80228 -0.353,1.88162 -0.9121,4.12556 -1.2425,4.98655 -0.3978,1.03671 -0.1402,1.41194 0.7627,1.11097 0.7499,-0.24996 1.7287,-1.86421 2.1752,-3.58722 0.4465,-1.72301 1.2481,-3.40243 1.7814,-3.73204 0.5334,-0.32961 8.7387,1.51709 18.2342,4.10377 16.0315,4.36718 18.1929,4.71646 30.2645,4.89052 13.0902,0.18874 19.4113,1.25872 23.0185,3.89639 1.9349,1.41484 1.9354,1.49574 0.046,7.27045 -1.9814,6.05553 -6.9127,13.54301 -12.5098,18.99419 -3.8311,3.73124 -8.7377,5.13188 -21.0353,6.00479 -9.3972,0.66703 -11.9916,2.00275 -4.9203,2.53322 l 4.099,0.3075 -2.099,2.65773 c -2.3885,3.02417 -2.6627,4.18968 -0.8491,3.60811 0.6875,-0.22046 2.15,-2.05674 3.25,-4.08063 z m -6.9911,-149.29853 c -1.7115,-3.17799 -1.7028,-3.21934 2.0012,-9.53918 2.046,-3.49104 4.6026,-7.24738 5.6812,-8.34742 2.6875,-2.74085 7.0166,-9.62555 6.4247,-10.21746 -0.8669,-0.86689 -2.5985,0.78114 -4.2351,4.03079 -0.8826,1.75263 -2.8524,4.53659 -4.3773,6.18659 -1.5249,1.65 -4.1281,5.41096 -5.7849,8.35769 l -3.0125,5.35768 -0.6825,-3.10768 c -0.6015,-2.7382 -1.0893,-3.10769 -4.1032,-3.10769 -1.8813,0 -3.4205,0.49878 -3.4205,1.10841 0,0.68028 0.957,0.86822 2.4776,0.48657 2.1023,-0.52764 2.577,-0.20324 3.1343,2.1416 0.3612,1.51988 1.2541,3.45489 1.9843,4.30002 0.7301,0.84513 2.101,3.32013 3.0464,5.5 1.356,3.12653 1.8104,3.54939 2.1521,2.00265 0.2382,-1.07841 -0.3404,-3.39706 -1.2858,-5.15257 z m 289.9771,-10.28462 0.6736,-4.89793 5.7868,0.52473 c 5.3386,0.48409 6.5434,0.16635 15.5541,-4.10206 5.372,-2.54474 10.3652,-4.6268 11.0959,-4.6268 3.1449,0 13.115,4.55752 15.7631,7.20566 1.5862,1.58625 3.0907,2.67743 3.3433,2.42486 0.8252,-0.82513 -1.5662,-4.31098 -4.0932,-5.96678 -3.3703,-2.20829 -12.6398,-5.66262 -15.197,-5.66324 -1.1481,-2.7e-4 -5.7564,1.84175 -10.2406,4.09339 -12.2096,6.13071 -19.5308,6.52885 -21.9899,1.19585 -2.8232,-6.12249 -5.8105,-10.93408 -8.305,-13.37644 -1.4425,-1.41246 -3.2204,-4.22078 -3.9509,-6.24071 -1.2433,-3.43847 -2.9262,-4.95701 -2.9262,-2.64047 0,2.18859 2.9984,8.05718 5.2847,10.34352 1.3172,1.31714 3.8551,4.98219 5.6398,8.14456 3.0192,5.34968 3.1695,6.04951 2.1602,10.0576 -1.3222,5.2511 -1.3895,8.4222 -0.1785,8.4222 0.4984,0 1.2093,-2.20407 1.5798,-4.89794 z m -224.0174,-46.95911 c 0.3451,-1.57138 2.1291,-4.49638 3.9643,-6.5 2.6595,-2.90346 4.0707,-3.64295 6.952,-3.64295 1.9883,0 3.6151,-0.50078 3.6151,-1.11285 0,-0.7769 -2.1886,-0.90897 -7.25,-0.43749 -3.9875,0.37144 -8.9375,0.69218 -11,0.71275 -2.0625,0.0206 -3.75,0.42205 -3.75,0.89218 0,1.48528 6.6655,2.1948 8.9803,0.95593 3.0679,-1.64189 3.5865,-0.61134 0.8179,1.62548 -3.5417,2.86146 -6.3487,10.364 -3.8777,10.364 0.5063,0 1.203,-1.28567 1.5481,-2.85705 z m 216.8774,140.74711 c -15.977,-15.17501 -35.7146,-28.29177 -52.0833,-34.61237 l -11.7627,-4.54201 -15,-0.0793 c -16.8456,-0.089 -26.3543,1.18928 -40.8261,5.48852 -5.454,1.62027 -10.1736,2.68873 -10.488,2.37436 -0.9178,-0.91785 10.8917,-12.3282 14.5622,-14.06998 6.1573,-2.92181 22.2959,-6.44928 29.5063,-6.44928 9.0798,0 25.0224,2.58921 30.7456,4.99334 2.475,1.03966 6.3,2.41483 8.5,3.05592 9.466,2.75843 29.7886,16.15105 39.4323,25.98588 3.0622,3.1229 7.7721,9.45505 10.4664,14.07143 2.6944,4.61639 6.0366,9.62624 7.4271,11.133 1.3906,1.50676 2.2669,3.00108 1.9473,3.3207 -0.3197,0.31962 -5.9119,-4.48197 -12.4271,-10.67021 z m -147.846,7.10994 c -1.0489,-2.02834 -2.3044,-3 -3.8765,-3 -5.3031,0 -8.7533,-2.13701 -10.6702,-6.609 -3.4085,-7.95159 -11.4256,-18.74421 -15.7024,-21.1386 -2.2081,-1.23618 -9.1303,-4.01428 -15.3828,-6.17356 -12.7547,-4.40481 -20.2868,-8.26211 -22.3843,-11.46326 -0.7767,-1.18542 -1.6797,-4.62136 -2.0065,-7.63544 -0.736,-6.78766 0.888,-9.7309 8.6061,-15.59707 4.3728,-3.32358 17.9166,-9.29476 17.9166,-7.89906 0,0.19408 -1.5859,1.33302 -3.5242,2.53097 -4.6962,2.90237 -6.4758,6.67805 -6.4758,13.73902 0,6.86709 2.7878,13.20813 8.954,20.36642 5.858,6.80042 8.8499,7.87958 21.8456,7.87958 10.2011,0 11.3965,-0.20997 16.5107,-2.90019 l 5.5133,-2.90018 -1.9607,5.65018 c -1.2154,3.5024 -1.7391,6.86269 -1.3778,8.83991 0.7557,4.13504 5.9714,8.64734 9.2671,8.01732 2.3641,-0.45193 2.3886,-0.37951 1.576,4.66695 -0.4539,2.81931 -0.826,7.71351 -0.8268,10.87601 0,5.2762 -0.1847,5.75 -2.2257,5.75 -1.4601,0 -2.7574,-1.03079 -3.7757,-3 z m 425.579,-0.58333 c 0.048,-1.16495 0.2849,-1.4019 0.6041,-0.60417 0.2889,0.72187 0.2534,1.58438 -0.079,1.91667 -0.3323,0.33229 -0.5686,-0.25834 -0.5252,-1.3125 z m -457.2851,-36.08007 c -8.5771,-1.04629 -19.8077,-16.07977 -19.7792,-26.47658 0.02,-7.16351 1.3603,-9.38619 8.6815,-14.39409 6.4693,-4.42514 12.1812,-5.96426 31.3038,-8.4351 19.6872,-2.54379 49.6091,-0.2594 70,5.34414 16.9457,4.65681 49.8494,17.5002 45,17.565 -0.825,0.011 -9.825,-2.02338 -20,-4.52089 -29.8986,-7.33877 -45.9948,-7.06818 -62.5746,1.05197 -7.2373,3.54448 -17.4254,12.86085 -17.4254,15.93429 0,2.57464 -6.0499,8.58624 -11.3373,11.2656 -5.1295,2.59931 -15.1964,3.72358 -23.8688,2.66566 z m -158.1839,-52.07781 c -5.4293,-1.42203 -6.7199,-2.37791 -16.5,-12.22042 -11.679,-11.75354 -18.401,-15.81454 -29.9321,-18.08315 -5.6466,-1.11091 -6.1779,-1.43574 -6.1779,-3.77736 0,-3.0148 8.081,-15.71716 16.3221,-25.6562 9.576,-11.54912 54.5697,-56.25274 63.1779,-62.77058 4.4,-3.33154 12.5897,-8.29279 18.1994,-11.025 8.3848,-4.08388 10.8037,-4.85427 13.5966,-4.33032 2.9269,0.54909 3.57,1.21355 4.6442,4.79884 0.6857,2.28883 2.1047,5.76222 3.1533,7.71864 1.0486,1.95643 1.9065,4.60589 1.9065,5.88769 0,1.28181 0.4684,3.20572 1.0408,4.27536 0.8508,1.58961 0.4863,2.53645 -1.9953,5.18426 -2.884,3.07703 -3.9424,5.73945 -2.2816,5.73945 0.4202,0 1.8764,-1.8 3.2361,-4 2.7879,-4.51098 2.8842,-4.55482 5.5589,-2.5318 1.0676,0.80751 3.7411,1.45116 5.9411,1.43035 l 4,-0.0378 -4.5228,-1.39437 c -5.6162,-1.73143 -8.9772,-4.75944 -8.9772,-8.08767 0,-1.39889 -1.35,-5.61928 -3,-9.37866 -1.65,-3.75937 -3,-7.57732 -3,-8.48433 0,-1.79692 3.6589,-7.15127 8.3684,-12.24613 2.5174,-2.72344 15.463,-9.26954 18.3315,-9.26954 0.4614,0 0.6714,3.31793 0.4666,7.37318 -0.3014,5.96948 0.029,8.20642 1.7348,11.75 3.023,6.27926 7.7613,12.63033 13.7103,18.37682 6.3674,6.15065 11.8099,14.47849 10.39,15.89836 -0.5509,0.5509 -1.0016,2.1919 -1.0016,3.64665 0,3.50322 -2.0456,5.19095 -11.547,9.52682 -5.4889,2.50481 -9.812,5.42116 -13.953,9.41265 -5.7072,5.50115 -6.2955,5.80794 -12.0558,6.287 -4.0432,0.33626 -8.1424,1.557 -12.3346,3.67322 -3.4535,1.74327 -10.1783,4.43791 -14.9443,5.9881 -16.4209,5.34113 -18.8237,2.89367 -17.6621,-17.99013 0.59,-10.60847 0.4452,-13.14172 -0.9,-15.7431 -0.8818,-1.70514 -1.6317,-5.2601 -1.6666,-7.89991 -0.051,-3.88916 -0.2349,-4.37283 -0.9678,-2.54966 -1.0592,2.63527 -1.888,2.77837 -4.5277,0.7818 -2.2184,-1.67796 -6.4411,-2.0266 -6.4411,-0.5318 0,0.55 0.6538,1 1.4529,1 3.7608,0 6.8697,2.64598 9.2671,7.88719 2.3903,5.22589 2.4692,6.00368 1.7943,17.70364 -0.5039,8.73731 -0.3555,13.20622 0.5187,15.624 1.0233,2.82972 0.9637,3.89085 -0.3623,6.45512 -2.1693,4.19501 -5.8695,3.53829 -8.2427,-1.46296 -0.9355,-1.97148 -3.5724,-5.63707 -5.8596,-8.14575 -2.2872,-2.50868 -4.7104,-5.68624 -5.3849,-7.06124 -0.6745,-1.375 -2.3417,-4.02905 -3.7049,-5.89788 -1.3632,-1.86884 -2.4786,-4.68134 -2.4786,-6.25 0,-1.56867 -0.45,-2.85212 -1,-2.85212 -2.7968,0 0.099,10.05247 3.862,13.40499 1.1759,1.04774 2.138,2.4318 2.138,3.07568 0,0.64389 1.1744,2.26164 2.6098,3.59502 4.3122,4.0056 9.4082,12.7765 10.021,17.24743 0.9164,6.68584 -1.1772,11.94351 -9.8722,24.7918 -7.443,10.9984 -8.1737,12.51763 -8.5163,17.70782 -0.2152,3.25964 0.2505,7.70001 1.0936,10.42726 1.6653,5.38704 1.9197,5.27324 -6.7259,3.00879 z m -20.3796,-45.25879 c 2.6958,-2.51153 6.0595,-2.50518 11.6288,0.022 4.9747,2.25731 5.1408,2.29288 5.1408,1.10114 0,-1.15976 -9.2843,-5.12314 -12.0011,-5.12314 -1.1717,0 -3.0008,0.46583 -4.0646,1.03518 -1.7014,0.91054 -1.9343,0.69312 -1.9343,-1.80572 0,-1.56249 -1.125,-4.36575 -2.5,-6.22946 -1.375,-1.86371 -2.5,-3.97613 -2.5,-4.69428 0,-0.71815 -0.45,-1.30572 -1,-1.30572 -0.55,0 -1,0.42883 -1,0.95295 0,1.7338 2.4361,6.53332 3.7289,7.34674 0.7492,0.47136 1.2711,2.83212 1.2711,5.75 0,2.72267 0.2438,4.95031 0.5418,4.95031 0.298,0 1.5079,-0.9 2.6886,-2 z m 571.7794,32.20455 c 0.022,-3.88924 4.9522,-12.19528 8.8554,-14.91986 2.1941,-1.53158 4.4416,-3.68469 4.9944,-4.78469 0.8646,-1.72046 1.0145,-1.75716 1.0727,-0.26254 0.037,0.9556 1.8138,2.8397 3.9479,4.1869 3.1515,1.98948 6.1198,6.46379 6.1198,9.22486 0,0.19293 -2.0682,0.35078 -4.5961,0.35078 -6.3129,0 -15.2522,2.75739 -18.068,5.57322 -1.9512,1.95114 -2.3343,2.05513 -2.3261,0.63133 z m -563.0098,-75.47958 c 0,-0.15126 3.4875,-3.63876 7.75,-7.75 l 7.75,-7.47497 -7.475,7.75 c -6.9426,7.19803 -8.025,8.20627 -8.025,7.47497 z m 530.9243,-26.47497 -2.4243,-2.75 2.75,2.42432 c 1.5125,1.33337 2.75,2.57087 2.75,2.75 0,0.78427 -0.8098,0.14597 -3.0757,-2.42432 z"
         id="path4576"
         inkscape:connector-curvature="0" />
    </g>
  </g>
</svg>
