<?xml version="1.0" encoding="UTF-8" standalone="no"?>
<!-- Created with Inkscape (http://www.inkscape.org/) -->

<svg
   xmlns:dc="http://purl.org/dc/elements/1.1/"
   xmlns:cc="http://creativecommons.org/ns#"
   xmlns:rdf="http://www.w3.org/1999/02/22-rdf-syntax-ns#"
   xmlns:svg="http://www.w3.org/2000/svg"
   xmlns="http://www.w3.org/2000/svg"
   xmlns:sodipodi="http://sodipodi.sourceforge.net/DTD/sodipodi-0.dtd"
   xmlns:inkscape="http://www.inkscape.org/namespaces/inkscape"
   width="278.27136mm"
   height="261.64346mm"
   viewBox="0 0 986.00089 927.08313"
   id="svg7110"
   version="1.1"
   inkscape:version="0.91 r13725"
   sodipodi:docname="cerebellum.svg">
  <defs
     id="defs7112" />
  <sodipodi:namedview
     id="base"
     pagecolor="#ffffff"
     bordercolor="#666666"
     borderopacity="1.0"
     inkscape:pageopacity="0.0"
     inkscape:pageshadow="2"
     inkscape:zoom="0.35"
     inkscape:cx="170.85757"
     inkscape:cy="97.827279"
     inkscape:document-units="px"
     inkscape:current-layer="layer1"
     showgrid="false"
     fit-margin-top="0"
     fit-margin-left="0"
     fit-margin-right="0"
     fit-margin-bottom="0"
     inkscape:window-width="1920"
     inkscape:window-height="1005"
     inkscape:window-x="-9"
     inkscape:window-y="-9"
     inkscape:window-maximized="1" />
  <metadata
     id="metadata7115">
    <rdf:RDF>
      <cc:Work
         rdf:about="">
        <dc:format>image/svg+xml</dc:format>
        <dc:type
           rdf:resource="http://purl.org/dc/dcmitype/StillImage" />
        <dc:title></dc:title>
      </cc:Work>
    </rdf:RDF>
  </metadata>
  <g
     inkscape:label="Layer 1"
     inkscape:groupmode="layer"
     id="layer1"
     transform="translate(298.71471,296.89364)">
    <g
       id="g4778"
       transform="translate(405.71429,-377.14285)">
      <ellipse
         ry="463.01562"
         rx="492.47449"
         cy="543.79077"
         cx="-211.42857"
         id="path4687-67"
         style="color:#000000;clip-rule:nonzero;display:inline;overflow:visible;visibility:visible;opacity:1;isolation:auto;mix-blend-mode:normal;color-interpolation:sRGB;color-interpolation-filters:linearRGB;solid-color:#000000;solid-opacity:1;fill:#b2df8a;fill-opacity:1;fill-rule:nonzero;stroke:#000000;stroke-width:1.05187511;stroke-linecap:butt;stroke-linejoin:miter;stroke-miterlimit:1;stroke-dasharray:none;stroke-dashoffset:0;stroke-opacity:1;color-rendering:auto;image-rendering:auto;shape-rendering:auto;text-rendering:auto;enable-background:accumulate" />
      <g
         style="fill:none;stroke-width:15;stroke-miterlimit:4;stroke-dasharray:none"
         transform="translate(-4283.094,922.53815)"
         id="g4673">
        <path
           inkscape:connector-curvature="0"
           id="path4649"
           d="m 3933.3143,-169.34454 c -5.9947,-3.23724 -7.8044,-4.77136 -10.7477,-9.11138 -4.5001,-6.63536 -3.8237,-9.53727 5.5295,-23.72309 6.0362,-9.15484 11.261,-15.49128 20.0221,-24.28192 6.5201,-6.542 11.6415,-12.10782 11.3808,-12.36847 -0.8587,-0.85874 -14.6903,12.11868 -21.0639,19.76303 -3.4392,4.125 -9.6947,12.78091 -13.9011,19.23536 -9.0507,13.88773 -10.9363,15.24371 -21.1053,15.17725 -7.9731,-0.0521 -12.9566,-2.11998 -19.6227,-8.14247 -9.6047,-8.6772 -12.226,-22.40662 -6.3392,-33.20135 3.3197,-6.08738 7.7101,-9.66047 26.3034,-21.40686 33.1313,-20.93083 73.6149,-40.71296 106.1585,-51.87384 11.3372,-3.88813 32.7763,-9.78809 35.5676,-9.78809 1.1404,0 1.4313,1.88581 1.4268,9.25 0,5.0875 -0.478,10.95125 -1.0554,13.03055 -1.5124,5.44627 -7.9216,12.79871 -20.9896,24.07863 -26.721,23.06499 -32.0025,27.95946 -38.6727,35.83908 -12.008,14.18531 -17.6131,23.94662 -23.3601,40.6819 -4.8005,13.97929 -10.1761,19.1312 -19.9166,19.08793 -3.745,-0.0166 -6.8129,-0.7334 -9.6144,-2.24626 z m 259.6149,1.15472 c -5.8949,-2.35063 -8.836,-6.86009 -13.9418,-21.37655 -3.8908,-11.062 -8.5257,-19.69081 -15.8458,-29.5 -8.4596,-11.33609 -14.8191,-17.64419 -37.0465,-36.7466 -21.2949,-18.30107 -28.4966,-26.32224 -29.6206,-32.99121 -1.0799,-6.40795 -2.3794,-20.7385 -1.9229,-21.20698 0.877,-0.90012 21.2949,4.25792 35.3771,8.9371 34.2767,11.38932 80.7382,35.26382 120.9784,62.16551 10.8284,7.23901 12.7851,8.97039 14.7972,13.09273 5.2084,10.6708 3.6134,21.76373 -4.4128,30.69085 -6.3838,7.10025 -13.0373,10.36191 -21.3628,10.47236 -10.2509,0.136 -12.4795,-1.47313 -20.3619,-14.70213 -9.5921,-16.09837 -25.885,-37.79808 -27.3101,-36.37301 -0.3017,0.30175 2.117,3.83651 5.375,7.85501 11.1195,13.71515 23.5921,32.91574 25.3584,39.03718 1.8466,6.39981 -4.5001,15.79479 -13.3999,19.83575 -4.5021,2.04414 -12.581,2.4369 -16.661,0.80999 z m -212.5005,-18.87655 c 0.9955,-1.1 2.035,-2 2.31,-2 0.275,0 -0.3145,0.9 -1.31,2 -0.9955,1.1 -2.035,2 -2.31,2 -0.275,0 0.3145,-0.9 1.31,-2 z m 180.905,-0.25 -1.905,-2.25 2.25,1.90499 c 2.1144,1.79022 2.7052,2.59501 1.905,2.59501 -0.1898,0 -1.2023,-1.0125 -2.25,-2.25 z m -321.905,-37.62244 c -13.1697,-3.48106 -15.0942,-11.50855 -5.7499,-23.98394 6.4767,-8.64702 43.8629,-27.97457 89.4884,-46.26279 37.5908,-15.06766 79.3482,-28.88083 87.3073,-28.88083 1.8998,0 3.4542,-0.45 3.4542,-1 0,-2.92369 -15.325,0.78583 -45.0316,10.90017 -47,16.00232 -99.7526,39.06103 -124.8245,54.56206 -10.4226,6.44392 -15.1112,7.43036 -24.2224,5.09616 -9.7948,-2.5093 -18.3982,-7.89231 -27.9524,-17.48928 -17.6669,-17.74597 -28.2238,-39.51814 -28.1566,-58.06911 0.03,-8.21642 0.9818,-11.58511 4.872,-17.23939 5.3198,-7.732 13.3624,-9.69778 68.3155,-16.69758 57.2182,-7.28833 106.298,-11.17347 142,-11.24066 42.5231,-0.08 55.425,3.06681 61.4416,14.98591 3.5502,7.033 5.6677,18.43451 6.2601,33.70733 l 0.5825,15.0156 -11.6944,2.79774 c -45.996,11.00399 -104.2718,39.31841 -156.9381,76.25147 -2.6666,1.86998 -7.8416,4.34979 -11.5,5.5107 -7.1448,2.26723 -22.5002,3.39809 -27.6517,2.03644 z m 439.5526,-1.18759 c -7.9614,-2.08447 -8.8081,-2.55426 -35.2571,-19.56089 -52.0603,-33.47456 -101.6857,-56.45373 -139.1866,-64.45067 l -10.8912,-2.3225 0.6351,-11.11919 c 1.4305,-25.0474 8.6168,-39.92094 22.3191,-46.19405 7.8588,-3.59787 29.946,-4.64342 70.3281,-3.32914 68.57,2.23169 126.0672,7.60974 165.3129,15.46269 15.3991,3.08131 20.0415,5.7826 24.1871,14.07378 2.6119,5.22374 2.9914,7.03501 2.9337,14 -0.2493,30.0793 -30.7644,69.97651 -57.7288,75.47814 -8.6317,1.76114 -12.8561,0.62124 -25.7049,-6.9362 -43.0629,-25.32879 -90.0774,-47.20208 -124.5,-57.92315 -20.0593,-6.24753 -42.5,-10.66344 -42.5,-8.36318 0,0.54233 2.8125,1.2924 6.25,1.66681 16.302,1.77563 47.4086,11.38208 75.75,23.39337 30.8583,13.07799 86.0411,42.21165 95.5,50.41909 4.8558,4.21331 8.5,11.16886 8.5,16.22344 0,10.00443 -16.9127,14.46539 -35.9474,9.48165 z m -134.6476,-11.18997 -1.905,-2.25 2.25,1.90499 c 1.2375,1.04774 2.25,2.06024 2.25,2.25 0,0.80025 -0.8048,0.20945 -2.595,-1.90499 z m -13,-5 -1.905,-2.25 2.25,1.90499 c 1.2375,1.04774 2.25,2.06024 2.25,2.25 0,0.80025 -0.8048,0.20945 -2.595,-1.90499 z m -68.905,-27.09509 c -3.0537,-1.39565 -11.3796,-9.69287 -13.269,-13.22336 -0.6523,-1.21868 -0.8362,-6.68132 -0.4927,-14.63398 l 0.548,-12.68943 5.6068,-0.80407 c 3.0838,-0.44224 12.486,-0.80407 20.8938,-0.80407 17.1035,0 17.172,0.0279 17.1965,7 0.01,2.2 0.528,7.67833 1.1562,12.17406 l 1.1422,8.17405 -3.611,4.91926 c -5.784,7.87941 -10.6042,10.65593 -19.068,10.98364 -4.4505,0.17231 -8.2231,-0.23699 -10.1028,-1.0961 z m 289.5,-1.03247 c 0,-0.20765 0.7875,-0.99515 1.75,-1.75 1.5861,-1.24387 1.6214,-1.2085 0.3776,0.37756 -1.3064,1.66575 -2.1276,2.19548 -2.1276,1.37244 z m -303.34,-55.84495 c -0.3595,-7.85262 -1.3272,-17.42749 -2.1504,-21.27749 -2.0538,-9.60528 -6.6648,-18.66683 -11.0016,-21.62027 -3.5531,-2.41975 -4.4383,-3.87973 -2.3524,-3.87973 2.5517,0 7.8338,-5.28111 10.2436,-10.24169 1.4049,-2.89207 2.8386,-7.7338 3.186,-10.75939 l 0.6316,-5.50108 23.8916,-0.0274 23.8916,-0.0274 0,2.59698 c 0,4.47502 3.096,13.26666 6.1881,17.57238 2.959,4.12038 4.7411,5.4134 10.1827,7.38814 l 2.8708,1.04182 -4.0178,2.91045 c -10.7126,7.76018 -16.2603,21.66096 -17.7964,44.59169 l -0.6866,10.25046 -13.6204,-0.14748 c -7.4912,-0.0811 -17.0373,0.20239 -21.2135,0.63001 l -7.5932,0.77748 -0.6537,-14.27748 z m -271.66,-32.41487 c -12.5585,-1.83364 -22.8682,-6.00223 -28.875,-11.67519 -8.7979,-8.30913 -13.1335,-19.09631 -13.1102,-32.61893 0.034,-19.79598 8.3539,-37.82956 24.3605,-52.80299 16.0835,-15.04531 35.7796,-22.26551 60.7384,-22.26551 l 12.1981,0 12.349,8.02594 c 34.4396,22.38314 69.8073,39.50723 106.0509,51.34706 28.7029,9.37648 52.6703,14.2902 88.5383,18.15185 5.6921,0.61283 5.75,0.65173 5.75,3.86561 0,5.68377 -2.9669,13.56717 -6.6334,17.62549 -4.5737,5.06258 -9.3622,6.11741 -18.3583,4.04406 -8.5516,-1.97091 -67.1739,-2.12755 -91.5083,-0.24453 -39.517,3.05788 -101.5714,10.14837 -133.2335,15.22358 -12.108,1.94084 -13.3984,2.03434 -18.2665,1.32356 z m 574.5,-0.87035 c -16.6764,-3.91316 -59.9618,-9.16166 -98.5,-11.94345 -50.3711,-3.63594 -68.3925,-3.93837 -137.1554,-2.30169 -4.7499,0.11305 -6.2332,-0.30615 -9.2646,-2.61827 -4.5704,-3.48607 -8.3605,-10.90992 -9.1951,-18.01106 -0.7602,-6.46811 -2.0688,-5.82932 15.6151,-7.6226 61.4683,-6.23337 133.7172,-33.45674 192.2211,-72.42887 l 5.721,-3.81107 15.279,0.493 c 16.5515,0.53405 27.1533,2.87299 38.0864,8.40245 19.1452,9.68284 34.8785,27.63862 41.0504,46.84929 6.1541,19.15529 3.0457,37.84886 -8.2859,49.83032 -10.5,11.10218 -30.1563,16.77926 -45.572,13.16195 z m -304.5,-42.11778 c -54.252,-3.99901 -104.7719,-18.11625 -155,-43.31308 -18.1891,-9.12454 -32.0111,-17.21437 -53.7557,-31.46262 -24.3682,-15.96742 -29.7443,-22.58237 -29.7443,-36.59879 0,-6.16236 0.4917,-8.50132 2.7572,-13.1143 7.5393,-15.35201 28.7354,-27.8857 47.1584,-27.8857 9.9246,0 15.7878,2.29168 24.7377,9.669 54.7901,45.16269 119.0036,78.69568 166.2277,86.8058 11.3752,1.95354 32.8234,1.95781 44.238,0.009 46.7887,-7.98901 108.9523,-40.25843 165.2812,-85.79824 10.8886,-8.80298 15.4923,-10.6906 26.0279,-10.67198 18.6424,0.0329 39.7977,12.79289 47.2291,28.48662 6.582,13.89973 2.1807,28.05998 -12.0866,38.88627 -12.8878,9.77953 -45.737,29.44243 -66.8027,39.9868 -46.1899,23.12008 -92.8798,37.36339 -141.2679,43.09533 -13.0344,1.54402 -53.7237,2.73708 -65,1.90589 z m 192,-139.87449 c 1.8658,-1.925 3.6173,-3.5 3.8923,-3.5 0.275,0 -1.0265,1.575 -2.8923,3.5 -1.8658,1.925 -3.6173,3.5 -3.8923,3.5 -0.275,0 1.0265,-1.575 2.8923,-3.5 z"
           style="fill:none;stroke:#000000;stroke-width:15;stroke-miterlimit:4;stroke-dasharray:none" />
        <path
           inkscape:connector-curvature="0"
           id="path4639"
           d="m 4055.9287,-465.10449 c -39.5883,-4.85077 -85.4815,-25.07752 -126.8359,-55.90111 -14.9745,-11.16128 -34.5601,-30.27232 -39.0058,-38.06077 -2.2633,-3.96495 -3.1422,-6.78823 -3.1489,-10.11564 -0.022,-10.77528 13.3516,-28.68709 29.3449,-39.30309 13.2913,-8.82249 23.9079,-12.81537 38.3793,-14.43442 8.309,-0.92961 26.2352,0.22922 27.2398,1.76089 1.1697,1.7836 18.2011,11.7594 28.5266,16.70897 12.8511,6.1602 22.8798,9.64602 36.3172,12.62323 13.7956,3.05657 38.5758,3.05521 52.3793,-0.003 19.0667,-4.2241 36.965,-12.31597 55.0396,-24.88353 7.3621,-5.11902 8.1506,-5.42104 16.3123,-6.24831 16.8439,-1.70729 34.5289,2.13946 49.4665,10.75967 17.9468,10.3568 31.6745,26.19317 34.9426,40.31011 0.9049,3.90907 0.6981,4.95008 -2.151,10.82499 -5.2136,10.75088 -26.3846,30.97404 -48.8936,46.70463 -34.7586,24.29135 -74.9831,42.07351 -107.9129,47.70532 -11.9403,2.04208 -30.2136,2.75106 -40,1.55193 z m 2,-126.56761 c -20.9281,-3.82811 -34.2876,-8.01851 -49.0226,-15.37654 -12.1049,-6.04471 -24.9774,-14.0689 -24.9774,-15.56993 0,-2.9029 3.9754,-10.24927 6.8594,-12.67605 4.6752,-3.93388 9.4179,-5.11151 18.0545,-4.48304 8.7844,0.63922 18.5061,3.45245 28.9614,8.38072 11.2111,5.28456 20.582,7.33057 33.5746,7.33057 12.6179,0 19.2774,-1.41404 30.527,-6.4819 12.4069,-5.58926 22.9049,-8.64684 31.7303,-9.24159 7.4844,-0.50437 8.6892,-0.31726 13.6802,2.12459 4.583,2.24224 5.8909,3.51629 8.0428,7.83463 1.4134,2.83633 2.5698,5.98192 2.5698,6.99021 0,2.57294 -17.8364,13.98852 -31.2366,19.99192 -5.9051,2.64555 -16.0301,6.20703 -22.5,7.91442 -10.3757,2.73812 -13.6509,3.1406 -27.7634,3.4118 -8.8,0.16912 -17.125,0.1017 -18.5,-0.14981 z m 3.5,-34.32575 c -2.75,-0.44353 -7.8125,-1.59969 -11.25,-2.56925 -7.2436,-2.04308 -7.5173,-2.79642 -3.6686,-10.10033 6.8529,-13.00507 18.2504,-18.55795 31.5447,-15.36869 4.3487,1.04325 6.3831,2.32683 10.898,6.87622 3.3795,3.40532 6.3942,7.64558 7.7062,10.83901 2.0849,5.07461 2.0945,5.27792 0.2942,6.2414 -6.3788,3.41383 -25.8173,5.64725 -35.5245,4.08164 z"
           style="fill:none;stroke:#000000;stroke-width:15;stroke-miterlimit:4;stroke-dasharray:none" />
        <path
           inkscape:connector-curvature="0"
           id="path4637"
           d="m 4069.1643,-103.04798 c -1.7954,-0.42443 -5.1704,-2.05089 -7.5,-3.61436 -2.3296,-1.56348 -4.5731,-2.74399 -4.9856,-2.62336 -0.4125,0.12063 -0.6512,-0.11817 -0.5303,-0.53067 0.1208,-0.4125 -1.3289,-3.86451 -3.2216,-7.67114 -3.069,-6.17255 -3.4838,-7.98386 -3.8358,-16.74672 -0.2964,-7.37996 0.028,-11.13315 1.3034,-15.07886 2.3784,-7.35784 6.8756,-14.02477 11.7294,-17.38846 3.5997,-2.49459 5.0496,-2.86482 11.2194,-2.86482 5.8172,0 7.8015,0.4464 11.0855,2.49379 2.2,1.37159 4.45,2.34659 5,2.16667 0.55,-0.17992 0.6758,-0.003 0.2796,0.39333 -0.3963,0.39625 0.1827,1.98895 1.2867,3.53935 10.329,14.50565 9.4521,38.13533 -1.8947,51.05858 -1.7193,1.95826 -2.7988,3.92237 -2.3988,4.3647 0.3999,0.44233 0.1779,0.48869 -0.4934,0.10304 -0.6714,-0.38566 -2.4714,-0.0679 -4,0.70602 -3.8051,1.92655 -9.1312,2.61781 -13.0438,1.69291 z m -139.7861,-25.95227 c -15.8572,-2.79304 -28.1676,-7.37193 -38.0723,-14.16117 -2.2676,-1.5543 -4.4051,-2.61877 -4.75,-2.36548 -0.345,0.25329 -0.418,0.17628 -0.1622,-0.17113 0.2557,-0.34742 -0.6443,-2.52445 -2,-4.83786 -2.889,-4.92972 -3.1332,-9.37609 -0.7594,-13.83014 0.9381,-1.76019 1.6452,-3.44141 1.5714,-3.73605 -0.1755,-0.70089 2.6079,-1.0815 8.473,-1.15861 6.1077,-0.0803 10.1739,0.50663 9.6287,1.38984 -0.6616,1.07162 11.0458,8.67015 18.9994,12.33132 8.6292,3.97217 21.0147,7.76593 33.1219,10.14545 13.4824,2.64981 41.2286,2.40191 51.7069,-0.46198 11.0551,-3.02157 18.4557,-6.94576 24.5358,-13.01022 5.3241,-5.31034 6.3372,-8.60903 1.7137,-5.57959 -1.3416,0.87905 -2.1486,2.06857 -1.7933,2.64339 0.3552,0.57482 0.1743,0.75366 -0.4021,0.39743 -0.5764,-0.35623 -4.5834,1.1181 -8.9045,3.27629 -20.278,10.12799 -33.3059,10.59894 -42.037,1.51961 -3.1754,-3.30207 -4.3434,-5.43383 -4.8582,-8.86682 -1.0168,-6.78067 1.0438,-13.74662 5.5966,-18.91879 2.132,-2.42216 3.6362,-4.64416 3.3426,-4.93777 -0.2936,-0.29361 0.2837,-0.46634 1.2828,-0.38384 1.5728,0.12986 1.8958,-0.92417 2.4058,-7.85 0.6134,-8.3305 2.9619,-15.45238 7.4289,-22.52856 1.4047,-2.22521 2.2433,-4.54863 1.8635,-5.16315 -0.3992,-0.64591 -0.2407,-0.83932 0.3756,-0.45841 0.5864,0.36239 2.6501,-1.48058 4.5861,-4.09549 1.936,-2.61492 6.4541,-7.64492 10.0402,-11.17778 3.5862,-3.53287 6.2474,-6.8649 5.9139,-7.40451 -0.3412,-0.55209 -0.093,-0.66357 0.5687,-0.25494 1.3016,0.80445 7.8001,-4.18695 7.3592,-5.65249 -0.1511,-0.50233 0.2062,-0.61609 0.794,-0.2528 0.5878,0.36328 2.0615,0.0269 3.2748,-0.74747 7.3935,-4.71889 17.3645,-6.28839 20.7108,-3.26001 1.5566,1.40866 1.6433,2.12109 0.6465,5.31125 -1.6063,5.1403 -1.4699,45.52008 0.1863,55.18436 0.707,4.125 2.0068,9.90243 2.8887,12.83873 1.5876,5.2865 1.577,5.39229 -1.0816,10.81305 -1.4766,3.01087 -2.4173,5.90709 -2.0904,6.43604 0.3269,0.52895 0,0.83808 -0.73,0.68696 -0.7284,-0.15113 -1.2647,0.49507 -1.192,1.436 0.073,0.94094 -0.1522,1.63408 -0.5,1.54033 -0.3477,-0.0938 -4.0073,3.20422 -8.1323,7.32883 -4.125,4.1246 -10.1701,9.24784 -13.4336,11.38497 -12.5896,8.24455 -31.6765,14.91401 -49.9582,17.45676 -11.8252,1.64474 -36.4468,1.20733 -48.1586,-0.85555 z m 238.0505,1.25824 c -7.7869,-0.97588 -23.7499,-4.80155 -30.8555,-7.39477 -13.674,-4.99037 -26.9762,-13.33056 -35.5529,-22.29088 -1.8747,-1.95849 -3.8567,-3.28387 -4.4046,-2.94529 -0.5735,0.35449 -0.6819,0.10733 -0.2554,-0.58272 0.8243,-1.33376 -1.2157,-4.3622 -2.432,-3.61045 -0.4256,0.26302 -0.7121,-0.30443 -0.6367,-1.26101 0.076,-0.96193 -0.4548,-1.61644 -1.1872,-1.46446 -0.7284,0.15112 -1.0498,-0.1695 -0.7142,-0.71251 0.3356,-0.54301 -0.5775,-3.33098 -2.029,-6.19549 l -2.6392,-5.20821 2.1499,-13.48382 c 3.2541,-20.4099 4.2959,-38.57723 3.0147,-52.57337 -1.2617,-13.78266 -0.894,-14.68622 6.0152,-14.78157 7.0328,-0.0971 19.3024,6.80028 29.9842,16.85572 4.9158,4.62755 10.5762,10.64562 12.5787,13.37349 2.0024,2.72787 4.0002,4.73763 4.4395,4.46613 0.4393,-0.27149 0.756,0.064 0.7039,0.74561 -0.052,0.68158 1.9001,5.27121 4.3383,10.19917 3.8135,7.70766 4.5064,10.08363 4.9577,17 0.4465,6.843 0.7835,8.01966 2.2638,7.90297 0.9566,-0.0754 1.533,0.19669 1.2809,0.60464 -0.2522,0.40796 0.6965,1.81965 2.108,3.1371 3.4939,3.26086 6.2842,8.9761 7.0265,14.39203 1.2398,9.0451 -4.9018,18.14048 -13.8915,20.5725 -8.2228,2.22456 -19.0586,-0.10868 -33.1196,-7.13156 -4.3211,-2.15819 -8.3281,-3.63252 -8.9045,-3.27629 -0.5764,0.35623 -0.7574,0.17739 -0.4021,-0.39743 0.3553,-0.57482 -0.4517,-1.76434 -1.7933,-2.64339 -4.6235,-3.02944 -3.6104,0.26925 1.7137,5.57959 6.0682,6.05258 13.4502,9.97239 24.5358,13.02833 10.4086,2.86931 38.1081,3.10453 51.7069,0.43908 12.0904,-2.36979 24.4823,-6.16371 33.1219,-10.14066 8.0739,-3.71656 19.6576,-11.26554 18.9769,-12.36703 -0.2486,-0.40218 0.3025,-0.80031 1.2246,-0.88474 0.9221,-0.0844 3.7395,-0.45597 6.2609,-0.82566 11.2589,-1.65082 17.5029,8.75384 11.4507,19.08107 -1.3557,2.31341 -2.2557,4.49044 -2,4.83786 0.2558,0.34741 0.1828,0.42442 -0.1622,0.17113 -0.345,-0.25329 -2.4824,0.81118 -4.75,2.36548 -15.8579,10.86991 -38.1229,16.22861 -66.2511,15.94522 -8.1794,-0.0824 -16.2217,-0.31902 -17.8717,-0.52581 z m -101.6906,-45.56523 c -9.4485,-4.42168 -13.7833,-21.95601 -13.8012,-55.82547 -0.016,-30.85073 2.7409,-35.93366 19.4918,-35.93366 9.0436,0 13.8007,1.74707 15.9209,5.84708 4.748,9.18149 4.2273,43.59137 -1.0715,70.81692 -1.3895,7.13902 -2.0645,8.62834 -5.3764,11.86239 -4.2682,4.16774 -10.3809,5.47093 -15.1636,3.23274 z m 204.3856,-40.25913 c 0.02,-1.65 0.2444,-2.20394 0.498,-1.23097 0.2535,0.97297 0.2369,2.32297 -0.037,3 -0.2739,0.67703 -0.4814,-0.11903 -0.461,-1.76903 z m 102.6774,-137.25 c -1.2438,-1.58606 -1.2085,-1.62143 0.3776,-0.37756 0.9625,0.75485 1.75,1.54235 1.75,1.75 0,0.82304 -0.8212,0.29331 -2.1276,-1.37244 z"
           style="fill:none;stroke:#000000;stroke-width:15;stroke-miterlimit:4;stroke-dasharray:none" />
      </g>
    </g>
  </g>
</svg>
