<?xml version="1.0" encoding="UTF-8" standalone="no"?>
<!-- Created with Inkscape (http://www.inkscape.org/) -->

<svg
   xmlns:dc="http://purl.org/dc/elements/1.1/"
   xmlns:cc="http://creativecommons.org/ns#"
   xmlns:rdf="http://www.w3.org/1999/02/22-rdf-syntax-ns#"
   xmlns:svg="http://www.w3.org/2000/svg"
   xmlns="http://www.w3.org/2000/svg"
   xmlns:sodipodi="http://sodipodi.sourceforge.net/DTD/sodipodi-0.dtd"
   xmlns:inkscape="http://www.inkscape.org/namespaces/inkscape"
   width="278.27136mm"
   height="261.64346mm"
   viewBox="0 0 986.00089 927.08313"
   id="svg8260"
   version="1.1"
   inkscape:version="0.91 r13725"
   sodipodi:docname="heart.svg">
  <defs
     id="defs8262" />
  <sodipodi:namedview
     id="base"
     pagecolor="#ffffff"
     bordercolor="#666666"
     borderopacity="1.0"
     inkscape:pageopacity="0.0"
     inkscape:pageshadow="2"
     inkscape:zoom="0.35"
     inkscape:cx="679.42904"
     inkscape:cy="126.39871"
     inkscape:document-units="px"
     inkscape:current-layer="layer1"
     showgrid="false"
     fit-margin-top="0"
     fit-margin-left="0"
     fit-margin-right="0"
     fit-margin-bottom="0"
     inkscape:window-width="1920"
     inkscape:window-height="1005"
     inkscape:window-x="-9"
     inkscape:window-y="-9"
     inkscape:window-maximized="1" />
  <metadata
     id="metadata8265">
    <rdf:RDF>
      <cc:Work
         rdf:about="">
        <dc:format>image/svg+xml</dc:format>
        <dc:type
           rdf:resource="http://purl.org/dc/dcmitype/StillImage" />
        <dc:title></dc:title>
      </cc:Work>
    </rdf:RDF>
  </metadata>
  <g
     inkscape:label="Layer 1"
     inkscape:groupmode="layer"
     id="layer1"
     transform="translate(807.28618,268.32221)">
    <g
       id="g4770"
       transform="translate(-2828.5714,-548.57142)">
      <ellipse
         ry="463.01562"
         rx="492.47449"
         cy="743.79077"
         cx="2514.2856"
         id="path4687-84"
         style="color:#000000;clip-rule:nonzero;display:inline;overflow:visible;visibility:visible;opacity:1;isolation:auto;mix-blend-mode:normal;color-interpolation:sRGB;color-interpolation-filters:linearRGB;solid-color:#000000;solid-opacity:1;fill:#e31a1c;fill-opacity:1;fill-rule:nonzero;stroke:#000000;stroke-width:1.05187511;stroke-linecap:butt;stroke-linejoin:miter;stroke-miterlimit:1;stroke-dasharray:none;stroke-dashoffset:0;stroke-opacity:1;color-rendering:auto;image-rendering:auto;shape-rendering:auto;text-rendering:auto;enable-background:accumulate" />
      <path
         style="fill:none;stroke:#1a1a1a;stroke-width:15;stroke-miterlimit:4;stroke-dasharray:none"
         d="m 2668.3348,1089.6422 c -18.1716,-1.2975 -91.0059,-13.3932 -144.3827,-23.9779 -10.8189,-2.1454 -28.3454,-5.3314 -38.9479,-7.0801 -74.0544,-12.2134 -122.6347,-29.5504 -147.2691,-52.5561 -10.9063,-10.18541 -13.6703,-15.95851 -14.5467,-30.38435 -0.7727,-12.71953 1.1596,-23.13152 9.5331,-51.36504 1.9614,-6.61304 3.7969,-14.57966 4.0789,-17.7036 l 0.513,-5.67987 4.5895,-4.18316 c 10.7129,-9.76436 22.475,-33.02532 27.7774,-54.93332 1.3,-5.37112 1.5298,-5.72338 5.3491,-8.19819 14.8814,-9.64279 43.1259,-44.28999 60.9019,-74.70753 8.6992,-14.88558 11.4416,-25.67612 8.8749,-34.91992 -1.2343,-4.44533 -7.1514,-10.03298 -12.413,-11.72167 -7.1801,-2.30454 -17.0551,-1.84818 -27.7148,1.2808 -4.9384,1.44957 -10.27,2.87498 -11.8479,3.1676 l -2.8688,0.53198 -2.421,-6.69078 c -4.2119,-11.64008 -7.3838,-26.1409 -10.0765,-46.06721 -2.0435,-15.12092 -2.055,-57.17341 -0.019,-69.24074 2.065,-12.23893 4.7899,-23.02239 8.0526,-31.86648 1.5966,-4.32754 4.2323,-11.49986 5.8572,-15.93859 3.5225,-9.62186 7.7434,-16.79615 18.2089,-30.95006 4.2904,-5.80237 8.9452,-12.84494 10.3441,-15.65021 2.3183,-4.64928 2.5394,-5.72818 2.4988,-12.19582 -0.062,-9.91464 -1.2222,-13.72249 -13.425,-44.07614 -0.1932,-0.48067 2.0601,-0.81523 5.7898,-0.85968 4.7551,-0.0567 7.522,-0.60295 12.505,-2.46851 7.8174,-2.92668 16.7595,-8.06104 21.253,-12.20306 l 3.3521,-3.08986 1.267,3.0159 c 3.8057,9.05897 14.5598,40.08229 15.7325,45.38566 1.5369,6.94964 1.2243,11.53008 -1.096,16.05472 -2.058,4.01313 -4.3668,6.00797 -9.9289,8.57869 -3.2296,1.49261 -4.2541,2.27582 -3.2468,2.48189 2.4953,0.51042 10.0649,-3.93508 12.7947,-7.51411 3.0436,-3.99047 4.5704,-10.42554 3.8414,-16.19054 -0.2837,-2.24316 -2.3006,-9.37055 -4.4822,-15.83858 l -3.9664,-11.76007 0.8855,-15.77886 c 0.487,-8.67838 1.3879,-19.1409 2.0021,-23.2501 0.9899,-6.6228 1.3859,-7.71169 3.4881,-9.59 4.3091,-3.85018 11.6522,-4.78666 20.1903,-2.57489 5.9865,1.55076 10.4189,4.47602 11.8035,7.79014 0.9303,2.22632 0.9215,4.36791 -0.061,14.70083 -1.3708,14.42591 -2.3944,42.82666 -1.6503,45.79134 1.241,4.9445 1.6881,1.01713 1.8434,-16.19297 0.091,-10.05974 0.6219,-23.05559 1.1803,-28.87976 l 1.0151,-10.58943 3.5408,-1.07363 c 4.4382,-1.34563 16.196,-0.79493 21.3414,0.99967 2.0009,0.69783 4.4475,2.13057 5.437,3.18381 1.7855,1.90058 1.7923,1.99044 0.9005,11.95906 -1.6518,18.46186 -1.8363,24.15975 -1.01,31.18572 1.1698,9.94769 2.8732,13.0012 9.7821,17.53647 30.2958,19.88681 44.8068,39.72861 51.3609,70.22861 1.6543,7.69784 0.9163,11.11432 -3.4426,15.93921 -11.0292,12.20801 -44.0274,24.28006 -66.2723,24.24504 -9.0929,-0.0142 -10.3021,-0.733 -11.922,-7.08568 -0.715,-2.80363 -1.3346,-5.53328 -1.377,-6.06604 -0.1197,-1.50308 3.3002,-1.99595 6.9782,-1.00557 3.4784,0.93664 5.1401,0.48319 3.1506,-0.85992 -0.6387,-0.43118 -4.3307,-0.65362 -8.2388,-0.49625 -8.8973,0.35824 -12.2662,1.97084 -19.2773,9.22751 -6.482,6.70911 -10.0064,12.60567 -12.3889,20.72784 -5.964,20.33168 -7.1532,33.99603 -5.6257,64.64686 1.23,24.68204 1.4359,51.00281 0.4386,56.06139 -0.4218,2.13907 -0.3766,3.34402 0.1252,3.34402 0.4315,0 1.2149,-2.40809 1.7409,-5.35129 1.0626,-5.94589 0.809,-22.00447 -0.8765,-55.51502 -1.1324,-22.5134 -0.4227,-37.44603 2.3797,-50.07625 2.4112,-10.86709 2.1975,-10.5788 9.2308,-12.44633 26.1204,-6.93525 100.9538,-16.62117 130.8682,-16.93857 10.0997,-0.10725 11.7039,0.0574 13.9788,1.43297 7.4499,4.50521 11.5326,18.40694 11.444,38.96751 -0.063,14.5031 -2.0727,25.82561 -6.0017,33.80561 -3.6545,7.42261 -4.0818,7.6046 -20.2079,8.60977 -13.068,0.81452 -21.9202,2.32995 -29.589,5.06551 l -3.2302,1.15223 -0.4558,-10.7438 c -0.5087,-11.98912 -2.0206,-22.93962 -3.1671,-22.93962 -0.4485,0 -0.5365,1.51055 -0.2178,3.73743 1.6593,11.59593 2.0732,17.78724 2.0909,31.27636 0.024,18.719 -1.4621,31.13315 -5.2056,43.47217 -0.3256,1.07315 -0.2032,1.77036 0.311,1.77036 0.7993,0 3.2695,-6.94446 3.2695,-9.19132 0,-1.56201 0.6953,-1.26702 2.7396,1.16254 2.4925,2.96216 8.8046,6.29768 13.6603,7.2185 3.2507,0.61648 4.5832,1.41558 7.3304,4.396 6.0983,6.61588 15.0366,10.01166 42.3632,16.09423 33.3348,7.42001 41.2737,10.52435 49.5557,19.37781 11.873,12.6923 24.2331,36.54022 36.4415,70.31114 5.8143,16.08368 15.4561,46.83853 17.872,57.007 9.2611,38.98097 16.0498,119.87859 12.2021,145.40529 -4.9281,32.694 -24.8332,51.258 -60.9935,56.8841 -7.5905,1.181 -28.3085,2.0082 -36.194,1.4452 z m -336.0754,-86.6562 c -0.9786,-1.248 -0.9509,-1.2758 0.2971,-0.2971 1.3107,1.0279 1.7275,1.674 1.0799,1.674 -0.1634,0 -0.783,-0.6196 -1.377,-1.3769 z m -13.9802,-12.45746 c -6.5731,-1.76768 -11.7099,-4.91963 -18.4205,-11.30292 -18.7158,-17.80305 -32.1028,-52.52419 -36.8748,-95.64056 -1.5403,-13.91645 -1.3127,-48.28047 0.4143,-62.55272 1.8973,-15.67925 5.4892,-33.51763 9.6232,-47.79138 3.4908,-12.053 10.275,-30.40833 13.9089,-37.63179 1.0739,-2.13489 2.5148,-5.82905 3.202,-8.2092 1.8361,-6.36039 4.7342,-10.39508 15.6056,-21.72585 9.6946,-10.10435 13.8248,-15.79759 17.1732,-23.67239 3.1301,-7.36163 1.153,-6.29131 -2.4955,1.3509 -1.9588,4.10299 -5.1942,9.54153 -7.1897,12.08582 -4.8232,6.14928 -21.2008,22.86982 -20.6994,21.13274 2.4681,-8.55021 8.4353,-58.71678 14.2481,-119.78444 4.34,-45.59526 4.7958,-48.9912 7.2458,-53.99479 5.1467,-10.51106 19.5063,-21.14699 36.043,-26.69671 7.8755,-2.64303 19.3304,-3.051 24.3493,-0.86717 10.1845,4.43141 14.5986,12.69459 14.5986,27.32807 0,6.81714 -0.2672,8.26836 -2.4726,13.42995 -4.6345,10.84617 -8.0693,23.53209 -10.5575,38.993 -1.9307,11.99674 -2.3874,44.79561 -0.8468,60.81965 2.1058,21.90242 7.1363,46.90148 11.4538,56.91927 0.9027,2.09469 1.4423,4.13061 1.199,4.52426 -0.6218,1.00596 -12.0298,0.89234 -17.0309,-0.16964 -9.2457,-1.96329 -17.8376,-8.10636 -23.6033,-16.87594 -2.8946,-4.40269 -4.5644,-6.09484 -4.5644,-4.62544 0,1.37616 6.051,9.51211 9.8691,13.26968 12.1538,11.9611 28.6387,13.65569 54.5058,5.60275 8.1418,-2.53468 13.7222,-3.09836 19.7865,-1.99869 18.5657,3.36659 22.4742,18.27507 10.661,40.6654 -7.0271,13.31885 -25.6634,40.21274 -37.8231,54.58224 -10.2847,12.15372 -22.1068,23.33342 -27.7721,26.26301 -1.8237,0.94309 -2.382,2.07093 -3.6015,7.27579 -5.4095,23.08856 -19.6529,50.07333 -29.6965,56.26125 -2.7432,1.69018 -2.9699,2.10838 -2.9895,5.51487 -0.029,5.04072 -1.6328,12.2106 -5.9519,26.60685 -5.2988,17.66172 -7.4076,27.57188 -7.9528,37.37425 -0.4371,7.85701 -0.1837,11.00463 1.758,21.83443 0.5936,3.31034 0.715,3.26974 -5.1024,1.70545 z m 371.6933,-240.88632 c -6.6245,-3.60091 -16.6694,-6.59415 -38.8631,-11.58043 -28.9487,-6.50391 -39.7303,-10.66662 -43.9906,-16.98413 -1.5389,-2.28203 -2.536,-2.83281 -6.6454,-3.67109 -6.0045,-1.22478 -11.2938,-4.42173 -14.089,-8.51567 -1.9522,-2.85925 -2.0752,-3.46747 -1.4284,-7.06279 0.3894,-2.16377 0.9521,-9.1567 1.2507,-15.53983 l 0.5427,-11.60569 3.2218,0.008 c 8.5633,0.0126 25.711,3.85167 35.4815,7.94419 6.7563,2.82998 16.3258,7.86536 21.2444,11.17869 17.8778,12.04293 34.5694,30.63312 44.4801,49.53939 2.2165,4.22824 3.9144,7.95127 3.7731,8.27332 -0.1412,0.32197 -2.3812,-0.56927 -4.9778,-1.98068 z m -307.7239,-230.94801 -1.4989,-1.77036 1.7703,1.49891 c 1.6637,1.40857 2.1285,2.04181 1.4989,2.04181 -0.1493,0 -0.946,-0.79666 -1.7703,-1.77036 z m 185.7163,-25.96528 -2.311,-2.55718 2.5572,2.31099 c 2.3837,2.15409 2.9189,2.80338 2.311,2.80338 -0.1354,0 -1.2862,-1.15073 -2.5572,-2.55719 z m -158.2994,-51.12051 c -2.1989,-1.06057 -2.2127,-1.83748 -0.087,-4.93931 4.8738,-7.11291 23.4328,-16.13152 33.1963,-16.13152 3.6303,0 6.7332,1.21258 7.3737,2.8816 0.7851,2.04598 -6.3416,8.09707 -14.445,12.26497 -11.6735,6.00404 -21.3209,8.19905 -26.0378,5.92426 z"
         id="path4431"
         inkscape:connector-curvature="0" />
    </g>
  </g>
</svg>
