<?xml version="1.0" encoding="UTF-8" standalone="no"?>
<!-- Created with Inkscape (http://www.inkscape.org/) -->

<svg
   xmlns:dc="http://purl.org/dc/elements/1.1/"
   xmlns:cc="http://creativecommons.org/ns#"
   xmlns:rdf="http://www.w3.org/1999/02/22-rdf-syntax-ns#"
   xmlns:svg="http://www.w3.org/2000/svg"
   xmlns="http://www.w3.org/2000/svg"
   xmlns:sodipodi="http://sodipodi.sourceforge.net/DTD/sodipodi-0.dtd"
   xmlns:inkscape="http://www.inkscape.org/namespaces/inkscape"
   width="278.27136mm"
   height="261.64346mm"
   viewBox="0 0 986.00089 927.08313"
   id="svg7674"
   version="1.1"
   inkscape:version="0.91 r13725"
   sodipodi:docname="kidney.svg">
  <defs
     id="defs7676" />
  <sodipodi:namedview
     id="base"
     pagecolor="#ffffff"
     bordercolor="#666666"
     borderopacity="1.0"
     inkscape:pageopacity="0.0"
     inkscape:pageshadow="2"
     inkscape:zoom="0.35"
     inkscape:cx="39.428999"
     inkscape:cy="246.39871"
     inkscape:document-units="px"
     inkscape:current-layer="layer1"
     showgrid="false"
     fit-margin-top="0"
     fit-margin-left="0"
     fit-margin-right="0"
     fit-margin-bottom="0"
     inkscape:window-width="1920"
     inkscape:window-height="1005"
     inkscape:window-x="-9"
     inkscape:window-y="-9"
     inkscape:window-maximized="1" />
  <metadata
     id="metadata7679">
    <rdf:RDF>
      <cc:Work
         rdf:about="">
        <dc:format>image/svg+xml</dc:format>
        <dc:type
           rdf:resource="http://purl.org/dc/dcmitype/StillImage" />
        <dc:title></dc:title>
      </cc:Work>
    </rdf:RDF>
  </metadata>
  <g
     inkscape:label="Layer 1"
     inkscape:groupmode="layer"
     id="layer1"
     transform="translate(167.28614,148.32221)">
    <g
       id="g4764"
       transform="translate(-719.99995,-251.42854)">
      <ellipse
         ry="463.01562"
         rx="492.47449"
         cy="566.64789"
         cx="1045.7142"
         id="path4687-0"
         style="color:#000000;clip-rule:nonzero;display:inline;overflow:visible;visibility:visible;opacity:1;isolation:auto;mix-blend-mode:normal;color-interpolation:sRGB;color-interpolation-filters:linearRGB;solid-color:#000000;solid-opacity:1;fill:#fb9a99;fill-opacity:1;fill-rule:nonzero;stroke:#000000;stroke-width:1.05187511;stroke-linecap:butt;stroke-linejoin:miter;stroke-miterlimit:1;stroke-dasharray:none;stroke-dashoffset:0;stroke-opacity:1;color-rendering:auto;image-rendering:auto;shape-rendering:auto;text-rendering:auto;enable-background:accumulate" />
      <g
         style="fill:none;stroke-width:17.36191368;stroke-miterlimit:4;stroke-dasharray:none"
         transform="matrix(0.86396003,0,0,0.86396003,117.14424,244.23786)"
         id="g4523">
        <path
           inkscape:connector-curvature="0"
           id="path4501"
           d="m 1037.8023,643.95079 c -12.1132,-0.72459 -25.2443,-3.28171 -41.4129,-8.06468 C 928.4019,615.77421 876.8507,561.90997 850.1065,483.0397 829.0751,421.01707 824.0793,347.68287 835.8733,274.10752 c 12.4639,-77.755 40.8806,-149.5337 82.7687,-209.067818 41.446,-58.9058965 100.4485,-107.657312 149.2985,-123.359451 49.4205,-15.885526 100.4294,-11.848619 148.8618,11.781103 23.6225,11.525216 48.3326,29.476555 67.0756,48.7289385 12.3522,12.6879545 17.943,20.4910795 24.4678,34.1503595 14.2439,29.8183 15.3919,64.057108 3.3762,100.699048 -14.3623,43.79826 -47.2447,79.46403 -77.5811,84.14809 -6.5643,1.01355 -8.6409,0.94193 -14.5,-0.50006 -7.8089,-1.92186 -8.6833,-2.75942 -14.2482,-13.64803 -15.0162,-29.38185 -15.7256,-60.76172 -2.0639,-91.29396 2.2655,-5.06332 4.3596,-9.76854 4.6534,-10.45604 0.2938,-0.6875 0.1012,-1.25 -0.4279,-1.25 -0.5292,0 -2.8732,2.72449 -5.2091,6.05443 -8.894,12.67933 -18.2751,19.87435 -25.9771,19.92361 -8.5019,0.0544 -18.6436,-8.90546 -27.7851,-24.54726 -2.8707,-4.91193 -5.6851,-9.476358 -6.2543,-10.143188 -0.5692,-0.66682 -1.539,-2.46682 -2.1551,-4 -2.1463,-5.34091 -3.2143,-7.28759 -3.9984,-7.28759 -0.434,0 0.492,2.85547 2.0579,6.34548 2.1347,4.75792 3.3734,10.199488 4.9511,21.749998 4.2738,31.28986 4.8545,46.20743 2.0827,53.49778 -3.0031,7.89883 -13.8162,-4.56146 -31.7557,-36.59326 -3.8504,-6.875 -8.3964,-14.92514 -10.1021,-17.8892 -2.7871,-4.843 -3.2003,-6.6673 -4.0763,-17.999998 -0.8612,-11.14201 -1.9879,-19.60477 -3.5761,-26.8608 -0.2708,-1.2375 -0.9604,-2.25 -1.5324,-2.25 -0.5719,0 -0.7629,0.44831 -0.4242,0.99624 0.7321,1.18457 1.2953,3.90404 2.0719,10.00376 0.3151,2.475 0.7334,5.49766 0.9294,6.71702 0.1962,1.21936 0.6683,7.74436 1.0493,14.5 0.3809,6.755638 1.1584,12.577788 1.7277,12.938118 1.6227,1.0271 0.099,15.76635 -2.2892,22.15072 -4.8532,12.97122 -16.8225,15.77171 -30.083,7.03861 -2.9683,-1.95485 -6.2205,-3.71287 -7.227,-3.90672 -1.0066,-0.19384 -3.8773,-1.49663 -6.3794,-2.89509 -2.5021,-1.39846 -4.9872,-2.54266 -5.5225,-2.54266 -1.0366,0 -19.9311,-10.87302 -20.7749,-11.95515 -0.275,-0.35266 -2.075,-1.73759 -4,-3.07762 -5.7773,-4.0217 -11.733,-10.71873 -14.1877,-15.953948 -1.2718,-2.71221 -2.6425,-4.94975 -3.0461,-4.97229 -0.7259,-0.0405 2.1989,6.994138 3.3091,7.959008 0.3164,0.275 1.426,1.9625 2.4656,3.75 1.0397,1.7875 2.1701,3.25 2.5119,3.25 0.3419,0 2.4598,1.74861 4.7065,3.8858 5.3972,5.13422 34.7451,22.69235 39.5419,23.65689 2.3243,0.46737 4.1749,2.70442 12.7876,15.45731 15.5021,22.9541 22.8846,45 15.0692,45 -7.8781,0 -21.1894,-8.89001 -49.6085,-33.13128 l -3.0848,-2.63127 0.018,10.63127 c 0.015,9.29607 -0.2905,11.25278 -2.4358,15.57985 -7.6186,15.36653 -21.7713,19.57767 -49.0465,14.59391 -6.325,-1.15571 -13.075,-2.35813 -15,-2.67206 -1.9251,-0.31392 -4.2876,-0.99152 -5.25,-1.50578 -0.9626,-0.51425 -1.7501,-0.67834 -1.7501,-0.36464 0,0.3137 -0.9,0.0887 -2,-0.5 -1.3011,-0.69636 -2,-0.71841 -2,-0.0631 0,0.94212 7.3657,3.45132 13,4.4286 1.375,0.2385 5.2,0.90917 8.5,1.4904 3.3,0.58122 7.9878,1.33438 10.4172,1.67368 5.2068,0.72719 24.1078,9.51699 39.5957,18.4137 43.1691,24.79771 54.9107,45.66881 31.834,56.58585 -12.3363,5.83601 -34.25,8.15304 -61.2352,6.47469 -12.0068,-0.74676 -17.7879,-1.49273 -18.5313,-2.39119 -0.5942,-0.71822 -2.8804,-2.36862 -5.0804,-3.66757 -2.2,-1.29895 -4.45,-2.87731 -5,-3.50746 -0.55,-0.63016 -3.925,-2.85849 -7.5,-4.95184 -8.1604,-4.77838 -8,-4.69536 -8,-4.13978 0,0.2552 2.1375,1.7053 4.75,3.22245 2.6125,1.51715 4.975,3.07864 5.25,3.46996 0.275,0.39133 2.5407,2.00528 5.0349,3.58657 12.9443,8.20655 21.6394,18.79169 23.4753,28.5779 1.4158,7.54677 -4.3089,15.16648 -14.9215,19.86094 -2.6406,1.16808 -4.4158,2.46219 -3.9449,2.8758 0.4709,0.41361 5.1312,2.19855 10.3562,3.96655 20.1641,6.82298 36.65,16.64889 40.5335,24.15871 7.4461,14.39911 -11.8862,31.21927 -55.5089,48.29573 -6.3116,2.47069 -11.5987,4.8628 -11.7493,5.31579 -0.1506,0.453 3.6742,0.82434 8.4996,0.82521 7.9077,10e-4 9.4368,0.32809 15.4944,3.31022 13.9454,6.86532 17.73,19.38906 10.2938,34.06369 -1.4282,2.81849 -2.304,5.12452 -1.9461,5.12452 0.3579,0 3.9806,-3.16311 8.0505,-7.02912 19.3832,-18.41212 40.0652,-29.9709 53.6266,-29.9709 4.3069,0 5.7836,0.45378 7.5316,2.31445 4.905,5.22116 1.3113,19.62674 -8.748,35.06622 -4.2146,6.46884 -8.4697,10.89404 -9.4921,9.87161 -0.3221,-0.32209 -0.5856,-0.10337 -0.5856,0.48603 0,0.58941 -2.0026,2.24527 -4.4503,3.67969 -2.4477,1.43443 -6.3154,4.28969 -8.595,6.34502 -9.7449,8.78633 -13.2604,12.23698 -12.4669,12.23698 0.465,0 2.008,-1.11901 3.4289,-2.4867 6.6577,-6.40866 12.5442,-11.5133 13.2767,-11.5133 0.4436,0 1.6608,-0.85418 2.7048,-1.89817 1.044,-1.04399 4.0815,-3.14765 6.75,-4.67479 2.6685,-1.52715 6.9162,-4.25762 9.4393,-6.06771 2.5231,-1.8101 6.5949,-4.15156 9.0484,-5.20325 14.185,-6.08042 24.5725,-2.21056 30.4829,11.35644 1.5544,3.56811 3.0834,6.48748 3.3976,6.48748 0.3142,0 1.8425,-3.9375 3.3961,-8.75 9.3946,-29.10158 23.9301,-51.85908 38.769,-60.69858 l 6.1838,-3.68363 4.5673,1.7126 c 28.2358,10.58746 47.6632,31.69114 55.1603,59.91961 2.6854,10.11115 3.6917,32.20545 1.9721,43.29664 -10.43,67.2698 -63.3882,124.41328 -127.5941,137.67794 -4.384,0.90571 -10.8959,1.86243 -14.4709,2.12604 -3.575,0.26361 -7.85,0.58936 -9.5,0.72388 -1.65,0.13452 -7.95,-0.0515 -14,-0.41341 z m 33.5,-83.26708 c 4.8684,-1.0751 7.6753,-2.08283 9,-3.23115 4.368,-3.7865 9.0216,-8.72456 8.61,-9.1362 -0.2583,-0.2583 -2.5252,1.58591 -5.0375,4.09825 -5.5128,5.51272 -12.6336,7.96944 -21.6267,7.46127 -3.2722,-0.1849 -5.9486,-0.0272 -5.9476,0.35046 0,1.28507 9.8889,1.58645 15.0018,0.45737 z m -18,-1.03702 c 0,-0.21616 -0.675,-0.65203 -1.5,-0.96862 -0.825,-0.31658 -1.5,-0.13972 -1.5,0.39301 0,0.53274 0.675,0.96862 1.5,0.96862 0.825,0 1.5,-0.17686 1.5,-0.39301 z m -6,-1.4701 c 0,-0.80419 -9.8967,-4.38709 -11,-3.98235 -0.275,0.10088 -1.625,-0.3977 -3,-1.10797 -1.8526,-0.95698 -2.2002,-0.97288 -1.3424,-0.0614 0.6367,0.6765 4.2367,2.28748 8,3.57995 8.1465,2.79783 7.3424,2.6257 7.3424,1.57176 z m -18.4427,-7.71865 c -1.0668,-0.78003 -2.4719,-1.41824 -3.1225,-1.41824 -1.5787,0 -10.4348,-4.98181 -10.4348,-5.86989 0,-0.38439 -1.4625,-1.55316 -3.25,-2.59726 -1.7875,-1.0441 -3.838,-2.71612 -4.5567,-3.7156 -0.7187,-0.99949 -1.7841,-1.81725 -2.3676,-1.81725 -0.5836,0 0.6794,1.73417 2.8067,3.85371 3.9825,3.96823 21.353,14.49425 22.3212,13.52606 0.2988,-0.29881 -0.3296,-1.1815 -1.3963,-1.96153 z m 62.2109,-5.66824 c 2.2543,-4.58552 3.4317,-9.75 2.2228,-9.75 -0.4577,0 -1.147,1.4625 -1.532,3.25 -0.3849,1.7875 -1.3322,4.4875 -2.1051,6 -0.7729,1.5125 -1.0197,2.75 -0.5486,2.75 0.4712,0 1.3545,-1.0125 1.9629,-2.25 z m -87.5002,-12.75 c -0.9419,-1.1 -1.8533,-2 -2.0254,-2 -0.1721,0 0.1687,0.9 0.7574,2 0.5887,1.1 1.5001,2 2.0254,2 0.5253,0 0.1844,-0.9 -0.7574,-2 z m -2.9295,-5.25 c -1.4062,-5.78836 -1.4237,-13.49147 -0.04,-17.5 0.8071,-2.3375 1.0836,-4.25 0.6146,-4.25 -1.5572,0 -3.7092,9.42063 -3.3617,14.71659 0.303,4.61713 1.7738,9.28341 2.9262,9.28341 0.224,0 0.1614,-1.0125 -0.1393,-2.25 z m -56.5313,-19.91421 c 4.3783,-1.0862 8.1202,-2.92333 10.8417,-5.32282 0.6318,-0.55714 2.8453,-2.36297 4.9187,-4.01297 2.0735,-1.65 4.4815,-3.82354 5.3512,-4.83009 0.8697,-1.00655 2.5937,-2.94223 3.8312,-4.30152 2.6357,-2.89512 2.8072,-3.51945 0.75,-2.73002 -0.825,0.31659 -1.5,0.90722 -1.5,1.31253 0,1.61349 -10.0773,11.11517 -15.003,14.14595 -5.5906,3.43996 -13.595,5.74336 -18.497,5.32286 -4.2691,-0.3662 -8.2994,-1.17772 -9.4835,-1.90951 -0.5591,-0.34553 -1.0165,-0.16454 -1.0165,0.40219 0,2.66943 12.074,3.84188 19.8072,1.9234 z m -20.8072,-2.24077 c 0,-0.22274 -2.0536,-1.60847 -4.5636,-3.07942 -2.51,-1.47094 -6.0619,-4.1012 -7.8932,-5.84502 -1.8313,-1.74382 -4.1652,-3.88213 -5.1864,-4.7518 -1.0212,-0.86967 -3.2068,-3.26477 -4.8568,-5.32245 -1.65,-2.05768 -3.8062,-4.69906 -4.7916,-5.86974 -0.9854,-1.17068 -3.1559,-4.51308 -4.8234,-7.42755 -1.6675,-2.91447 -3.4775,-5.29904 -4.0224,-5.29904 -0.5448,0 0.021,1.8 1.2576,4 1.2364,2.2 2.6902,4 3.2306,4 0.5404,0 0.72,0.2625 0.3992,0.58333 -0.3208,0.32084 0.1667,1.41434 1.0833,2.43001 0.9167,1.01567 2.7917,3.31221 4.1667,5.10341 4.9953,6.50737 14.1274,15.02038 19.7488,18.41013 5.9712,3.60064 6.2512,3.73807 6.2512,3.06814 z m 81.3409,-3.59502 c 0.9747,-1.65 1.3083,-3 0.7413,-3 -0.567,0 -1.729,1.35 -2.5822,3 -0.8533,1.65 -1.1868,3 -0.7413,3 0.4456,0 1.6076,-1.35 2.5822,-3 z m 3.6174,-5.92202 c 0.5657,-1.05712 1.7387,-2.63212 2.6066,-3.5 0.8679,-0.86789 1.2083,-1.57021 0.7565,-1.5607 -1.7957,0.0378 -7.1821,6.98272 -5.4156,6.98272 0.5631,0 1.4867,-0.86491 2.0525,-1.92202 z m 5.5346,-7.06653 c 0.3504,-0.56686 -0.051,-0.7345 -0.941,-0.39301 -1.7324,0.66479 -2.0494,1.38156 -0.6109,1.38156 0.5175,0 1.2159,-0.44485 1.5519,-0.98855 z m -33.9884,-15.30449 c 3.2108,-5.61383 6.9286,-12.11946 8.2617,-14.45696 1.3331,-2.3375 1.9575,-4.25 1.3875,-4.25 -1.0364,0 -7.6893,11.58988 -7.0122,12.21564 0.1972,0.18221 -0.6384,1.40139 -1.8569,2.70927 -1.2185,1.30789 -1.9794,2.75983 -1.691,3.22653 0.2884,0.46671 -0.027,0.84856 -0.7012,0.84856 -0.6742,0 -0.9327,0.29301 -0.5746,0.65112 0.3581,0.35812 0.052,1.14562 -0.68,1.75 -2.2823,1.8842 -5.9743,8.66522 -4.3859,8.05573 0.7781,-0.29861 4.0418,-5.13606 7.2526,-10.74989 z M 885.1136,461.0397 c -1.1429,-2.75 -2.4607,-5 -2.9284,-5 -0.4678,0 -0.2157,1.4625 0.5603,3.25 0.7759,1.7875 1.6545,4.0375 1.9524,5 0.2979,0.9625 0.9808,1.75 1.5176,1.75 0.5368,0 0.041,-2.25 -1.1019,-5 z m -0.6128,-27.06289 c 0.526,-2.39347 9.3684,-10.35609 13.9196,-12.53472 7.8211,-3.74394 11.9215,-5.40239 13.3568,-5.40239 0.7739,0 1.6706,-0.42648 1.9928,-0.94773 0.5129,-0.82987 -0.6598,-0.75604 -4.9677,0.31275 -3.635,0.90182 -8.5,3.1927 -8.5,4.00254 0,0.53117 -0.2842,0.68161 -0.6315,0.33429 -0.6953,-0.69533 -4.0247,0.82506 -6.3685,2.90823 -8.0586,7.16247 -11.9882,12.19477 -11.9963,15.36243 0,1.6798 2.6854,-1.71755 3.1948,-4.0354 z m 41.8015,-21.90573 c 0,-0.53273 -0.675,-0.70959 -1.5,-0.39301 -0.825,0.31659 -1.5,0.75246 -1.5,0.96862 0,0.21615 0.675,0.39301 1.5,0.39301 0.825,0 1.5,-0.43588 1.5,-0.96862 z m 9.191,-0.60355 c 3.4699,-0.28992 9.3587,-0.66695 13.086,-0.83785 3.7274,-0.1709 7.1024,-0.65802 7.5,-1.08248 0.7634,-0.81483 -20.8077,0.14864 -25.8338,1.15387 -1.6188,0.32374 -2.9432,1.00894 -2.9432,1.52265 0,0.51371 0.4234,0.67232 0.941,0.35247 0.5175,-0.31985 3.78,-0.81875 7.25,-1.10866 z m -11.691,-66.88008 c 7.402,-1.5591 18.5677,-4.84822 19.0371,-5.60784 0.6297,-1.01888 -0.9194,-0.71143 -12.449,2.47077 -7.7445,2.13751 -23.4293,3.84305 -28.7305,3.12412 -3.2927,-0.44654 -4.3298,-0.2989 -3.8099,0.54234 0.7342,1.18797 19.6288,0.80255 25.9523,-0.52939 z m -27.5,-0.38108 c 0,-0.45834 -0.675,-0.83334 -1.5,-0.83334 -0.825,0 -1.5,0.375 -1.5,0.83334 0,0.45833 0.675,0.83333 1.5,0.83333 0.825,0 1.5,-0.375 1.5,-0.83333 z m -4,-0.96578 c 0,-0.43951 -1.4914,-1.33841 -3.3142,-1.99755 -2.8422,-1.02776 -12.5802,-10.59057 -11.9765,-11.76109 0.1151,-0.22318 -0.6625,-2.32649 -1.7281,-4.67402 -1.0655,-2.34752 -1.9541,-5.39323 -1.9746,-6.76823 -0.021,-1.375 -0.4995,-3.175 -1.0646,-4 -0.7496,-1.0945 -0.8758,-0.4463 -0.4666,2.39782 0.9617,6.68542 1.6811,8.96034 4.3014,13.60218 3.2272,5.717 5.7537,8.27728 11.2917,11.44287 5.021,2.87 4.9315,2.83809 4.9315,1.75802 z m 56,-5.82518 c 0,0.24534 2.9911,-0.63883 6.6468,-1.96482 3.6557,-1.32599 6.8057,-2.41089 7,-2.41089 0.1943,0 0.3532,-0.38933 0.3532,-0.86518 0,-0.47585 -4.05,0.5081 -9,2.18656 -4.95,1.67846 -9,3.43363 -9,3.90037 0,0.46674 0.9,0.36695 2,-0.22175 1.1,-0.5887 2,-0.86963 2,-0.62429 z m 21.75,-7.07302 c 1.2375,-0.29471 2.25,-0.96371 2.25,-1.48665 0,-0.52704 -1.0028,-0.63842 -2.25,-0.2499 -4.5699,1.42362 -6.75,2.40086 -6.75,3.02574 0,0.35276 1.0125,0.32757 2.25,-0.056 1.2375,-0.38355 3.2625,-0.9385 4.5,-1.23321 z M 876.2198,276.7897 c 0.5899,-1.7875 1.1192,-3.7 1.1762,-4.25 0.057,-0.55 0.525,-1.7875 1.0401,-2.75 0.5151,-0.9625 0.7049,-1.75 0.4217,-1.75 -0.2832,0 -1.4331,1.8 -2.5555,4 -1.1224,2.2 -1.7907,4 -1.4851,4 0.3055,0 0.074,0.9 -0.5149,2 -0.64,1.19586 -0.6853,2 -0.1127,2 0.5267,0 1.4403,-1.4625 2.0302,-3.25 z m 5.0705,-11.72749 c 0.8624,-1.61143 0.7774,-1.86971 -0.4591,-1.39522 -0.8346,0.32025 -1.2922,0.94669 -1.0169,1.39208 0.2752,0.4454 -0.065,1.03772 -0.7558,1.31627 -0.9402,0.37905 -0.9506,0.52633 -0.041,0.58541 0.6682,0.0434 1.6911,-0.81092 2.2731,-1.89854 z m 71.6421,0.22749 c -0.4085,-0.62794 -5.2602,-3.20331 -15.9888,-8.48725 -4.4425,-2.18801 -19.6413,-6.4129 -19.6413,-5.45982 0,0.36409 15.9401,5.85768 18,6.2035 0.275,0.0462 2.4125,1.08526 4.75,2.30908 2.3375,1.22383 4.2569,1.87849 4.2653,1.45481 0.01,-0.42367 0.3459,-0.31949 0.75,0.23152 0.4041,0.55101 2.3097,1.75973 4.2347,2.68604 4.151,1.9975 4.2592,2.02915 3.6301,1.06212 z m -66.5909,-6.13533 c 1.5869,-1.58694 4.9256,-3.72444 7.4193,-4.75 2.4937,-1.02557 4.5357,-2.218 4.5378,-2.64985 0,-0.43185 -0.7838,-0.36373 -1.7463,0.15138 -1.7311,0.92645 -2.4754,1.1338 -4.0699,1.1338 -0.4509,0 -2.332,1.35 -4.1801,3 -1.8481,1.65 -3.681,3 -4.0731,3 -0.3921,0 -0.9719,0.675 -1.2885,1.5 -0.8646,2.25309 0.1933,1.82214 3.4008,-1.38533 z m 17.9608,-8.28134 c 0,-0.45833 -0.675,-0.83333 -1.5,-0.83333 -0.825,0 -1.5,0.375 -1.5,0.83333 0,0.45834 0.675,0.83334 1.5,0.83334 0.825,0 1.5,-0.375 1.5,-0.83334 z m 4,-0.44032 c 0,-0.21615 -0.675,-0.39301 -1.5,-0.39301 -0.825,0 -1.5,0.43588 -1.5,0.96862 0,0.53273 0.675,0.70959 1.5,0.39301 0.825,-0.31659 1.5,-0.75246 1.5,-0.96862 z m 45.3823,-56.10311 c -1.0353,-0.75722 -3.0073,-1.6534 -4.3823,-1.99152 -2.6471,-0.65092 -6.3723,-2.81226 -9.1321,-5.29838 -0.9159,-0.825 -2.7867,-2.5125 -4.1575,-3.75 -3.9634,-3.57804 -4.2668,-2.60636 -0.3951,1.26531 3.9852,3.98521 15.7234,11.15136 18.2659,11.15136 1.4816,0 1.4577,-0.16509 -0.1989,-1.37677 z m -22.0678,-17.5399 c -1.2543,-2.34692 -1.7477,-5.6616 -1.7757,-11.92889 -0.024,-5.25237 -0.3716,-8.08422 -0.8818,-7.17268 -2.3306,4.16441 0.521,22.35157 3.5045,22.35157 0.4894,0 0.1083,-1.4625 -0.847,-3.25 z m 98.8174,-24.42334 c -0.9195,-2.57034 -2.1988,-4.84897 -2.8428,-5.06362 -0.6965,-0.23218 -0.3042,1.66087 0.9685,4.67334 2.689,6.36452 4.1183,6.66213 1.8743,0.39028 z m -96.4164,-6.32666 c 1.1618,-2.75 1.7905,-5 1.3969,-5 -0.3935,0 -1.6661,2.25 -2.8279,5 -1.1618,2.75 -1.7905,5 -1.3969,5 0.3935,0 1.6661,-2.25 2.8279,-5 z m 91.7717,-3.715 c -0.7025,-2.04325 -1.8085,-3.8921 -2.4579,-4.10857 -0.669,-0.22301 -0.2724,1.38699 0.9153,3.715 2.6055,5.10713 3.2166,5.26306 1.5426,0.39357 z m -86.9872,-5.285 c 0.8533,-1.65 1.1014,-3 0.5514,-3 -0.55,0 -1.6981,1.35 -2.5514,3 -0.8533,1.65 -1.1014,3 -0.5514,3 0.55,0 1.6981,-1.35 2.5514,-3 z m 81.3079,-5.86928 c -3.3228,-5.89568 -6.5921,-10.56754 -10.3079,-14.73009 -4.5361,-5.08148 -5.408,-5.99372 -7.6521,-8.00667 -3.1067,-2.78672 -13.1333,-8.40255 -14.9288,-8.36155 -0.7805,0.0178 1.5753,1.53117 5.2351,3.36299 5.8625,2.93436 9.2881,5.83994 17.4466,14.79792 1.1554,1.26868 4.2537,6.01918 6.885,10.55668 2.6313,4.5375 5.1995,8.25 5.7071,8.25 0.5076,0 -0.5656,-2.64118 -2.385,-5.86928 z m -77.8079,-0.13072 c 0.6885,-1.28642 0.7136,-2 0.07,-2 -0.55,0 -1.4817,0.9 -2.0704,2 -0.6884,1.28642 -0.7135,2 -0.07,2 0.55,0 1.4817,-0.9 2.0704,-2 z m 3,-5 c 0.5887,-1.1 0.9295,-2 0.7574,-2 -0.1721,0 -1.0835,0.9 -2.0254,2 -0.9418,1.1 -1.2827,2 -0.7574,2 0.5253,0 1.4367,-0.9 2.0254,-2 z m 4.5464,-5.71112 c 3.159,-4.8213 11.351,-11.95557 17.4779,-15.22113 3.2866,-1.75177 5.9757,-3.6516 5.9757,-4.22185 0,-1.213608 -10.4289,4.47602 -13.8353,7.54806 -4.0453,3.64822 -13.1647,13.52085 -13.1647,14.25206 0,1.28262 2.0576,-0.085 3.5464,-2.35714 z m 259.8888,-19.39366 c -0.3043,-0.49237 -0.1737,-0.89522 0.2902,-0.89522 0.4638,0 1.6747,-1.407248 2.6907,-3.127228 1.016,-1.71998 1.3255,-2.95331 0.6878,-2.74073 -0.6378,0.21258 -2.2942,2.28921 -3.6809,4.61474 -1.8209,3.053458 -2.0926,4.063668 -0.978,3.635938 0.8489,-0.32576 1.2945,-0.99514 0.9902,-1.4875 z m 9.3339,-14.818258 c 1.9638,-3.49625 3.0243,-6.17475 2.3567,-5.95222 -0.6676,0.22253 -2.8271,3.26736 -4.7989,6.7663 -1.9718,3.49894 -3.0324,6.17745 -2.3567,5.95223 0.6756,-0.22521 2.8351,-3.27005 4.7989,-6.76631 z m -83.1567,-4.32696 c -0.5917,-3.51187 -3.9912,-12.75 -4.6919,-12.75 -0.9948,0 -0.4376,3.16524 1.0448,5.9351 0.6078,1.1357 0.8527,2.0649 0.5442,2.0649 -0.3085,0 0.1373,1.35 0.9905,3 1.6319,3.1558 2.4657,3.84648 2.1124,1.75 z m 88.161,-6 c 0.6464,-1.7875 1.2312,-3.7 1.2995,-4.25 0.068,-0.55 0.5458,-1.7875 1.0609,-2.75 0.5889,-1.10039 0.5811,-1.75 -0.021,-1.75 -0.8521,0 -2.934,4.86964 -3.2064,7.5 -0.057,0.55 -0.525,1.7875 -1.0401,2.75 -0.5151,0.9625 -0.5612,1.75 -0.1023,1.75 0.4589,0 1.3631,-1.4625 2.0095,-3.25 z m -215.5055,-1.75 c 0.8641,-2.2 1.3916,-4 1.172,-4 -0.2196,0 -1.3175,1.8 -2.4399,4 -1.1224,2.2 -1.6498,4 -1.172,4 0.4777,0 1.5757,-1.8 2.4399,-4 z m 4.0001,-7 c 0.9418,-1.1 1.2827,-2 0.7574,-2 -0.5253,0 -1.4367,0.9 -2.0254,2 -0.5887,1.1 -0.9295,2 -0.7574,2 0.1721,0 1.0835,-0.9 2.0254,-2 z m 8.4891,-9.80691 c 3.7086,-3.7438 8.2054,-7.66583 9.9929,-8.71561 1.7875,-1.04978 3.25,-2.2189 3.25,-2.59805 0,-1.21819 15.6402,-9.90401 21.6676,-12.03311 6.7328,-2.37829 14.951,-2.12914 20.2558,0.61409 3.1595,1.63381 8.2588,6.4116 10.8636,10.17844 0.7078,1.02363 0.2874,-0.0513 -0.9342,-2.38885 -1.2216,-2.3375 -2.4757,-4.25106 -2.7869,-4.25235 -0.3113,-10e-4 -2.1151,-1.32638 -4.0085,-2.94465 -6.2294,-5.32399 -17.3968,-5.88873 -27.0574,-1.3683 -8.1457,3.81156 -11.5589,5.65232 -12.5,6.7414 -0.55,0.63647 -2.6875,2.18767 -4.75,3.44711 -2.0625,1.25945 -3.75,2.67288 -3.75,3.14096 0,0.46808 -0.8668,1.12616 -1.9262,1.46241 -1.7713,0.56219 -16.0738,13.94804 -16.0738,15.04365 0,1.21657 1.4811,0.008 7.7571,-6.32714 z m 108.705,3.74562 c -2.3134,-3.74327 -2.4444,-20.52445 -0.2086,-26.73881 0.8509,-2.36505 1.0947,-4.1493 0.5418,-3.965 -4.3908,1.4636 -5.0564,31.7651 -0.6977,31.7651 0.5612,0 0.7253,-0.47758 0.3645,-1.06129 z m 99.9937,-4.55493 c 1.8442,-9.83014 -1.6129,-25.07889 -6.0738,-26.79068 -0.6386,-0.24504 0.1641,2.12381 1.7837,5.26412 2.2922,4.44445 3.0007,7.25335 3.1976,12.67621 0.1391,3.83161 -0.079,8.20407 -0.4854,9.71657 -0.4061,1.5125 -0.3698,2.75 0.081,2.75 0.4504,0 1.1242,-1.6273 1.4973,-3.61622 z m -137.4558,-1.38378 c -0.5887,-1.1 -0.818,-2 -0.5095,-2 0.3085,0 -0.1372,-1.35 -0.9905,-3 -0.8533,-1.65 -2.1023,-2.99311 -2.7757,-2.98469 -0.881,0.011 -0.8499,0.25266 0.1111,0.86181 0.7345,0.46557 1.2272,1.02118 1.0949,1.23468 -0.483,0.77951 2.4961,7.8882 3.3058,7.8882 0.4588,0 0.3526,-0.9 -0.2361,-2 z m 43.7762,-30.75 c 3.3508,-3.369473 3.8733,-4.201172 1.7978,-2.86164 -2.6833,1.73173 -7.574,6.41822 -7.574,7.25767 0,1.0413 1.5179,-0.11392 5.7762,-4.39603 z m 84.1102,1.39732 c -2.9163,-2.87513 -6.8864,-5.056677 -6.8864,-3.78404 0,0.76735 7.5751,5.96527 8.8864,6.0977 0.2125,0.0215 -0.6875,-1.01968 -2,-2.31366 z m -8.3285,-5.553611 c -0.5394,-0.872799 -2.972,-1.768573 -10.0579,-3.703692 -3.6633,-1.00044 -5.5,-1.174637 -5.5,-0.521646 0,0.414443 2.3625,1.347254 5.25,2.072913 2.8875,0.725659 6.375,1.896106 7.75,2.600993 2.6854,1.376643 3.5881,1.218333 2.5579,-0.448568 z m -60.3079,-3.301882 c 2.0625,-0.569305 3.75,-1.389633 3.75,-1.82295 0,-0.922274 -8.5879,1.205039 -11.7961,2.922017 -3.1786,1.701119 -2.7101,2.127845 1.0461,0.952766 1.7875,-0.559202 4.9375,-1.482527 7,-2.051833 z m 7.75,-2.398813 c 0,-0.216156 -0.675,-0.393011 -1.5,-0.393011 -0.825,0 -1.5,0.435877 -1.5,0.968615 0,0.532739 0.675,0.709594 1.5,0.393011 0.825,-0.316582 1.5,-0.752459 1.5,-0.968615 z m -195,-6.7705665 c 0,-0.207656 0.7875,-0.995156 1.75,-1.75 1.5861,-1.243871 1.6214,-1.208501 0.3776,0.377555 -1.3064,1.665748 -2.1276,2.195479 -2.1276,1.372445 z"
           style="fill:none;stroke:#000000;stroke-width:17.36191368;stroke-miterlimit:4;stroke-dasharray:none" />
        <path
           inkscape:connector-curvature="0"
           id="path4495"
           d="m 1261.8526,810.81279 c -2.0767,-4.9722 -4.3069,-14.23169 -5.9667,-24.77309 -3.1896,-20.25554 -3.7021,-43.43403 -3.0074,-136 0.8206,-109.34125 -0.2569,-135.29853 -7.1813,-173 -10.0452,-54.69369 -30.0292,-82.99538 -61.3836,-86.93237 -14.309,-1.79671 -35.8468,2.68898 -48.3163,10.06286 -15.4034,9.10886 -28.1855,27.34001 -38.1192,54.36951 -2.0213,5.5 -3.9228,10.675 -4.2256,11.5 -0.4064,1.10738 -0.7992,0.84563 -1.5006,-1 -2.9307,-7.71143 -10.3199,-14.07357 -17.8763,-15.39168 -4.4621,-0.77833 -14.0824,1.68073 -19.8917,5.08451 l -4.4183,2.58882 2.1689,-3.04604 c 5.0323,-7.06715 10.3875,-20.10411 10.9047,-26.54651 0.5935,-7.39362 -0.4434,-9.96885 -4.9527,-12.30071 -10.7067,-5.53664 -35.9201,5.85871 -57.7048,26.08001 -3.1272,2.90281 -5.0748,4.18543 -4.6033,3.0316 1.4792,-3.62005 1.7803,-14.19305 0.5134,-18.03179 -0.677,-2.0513 -2.8641,-5.54108 -4.8602,-7.75508 -4.0087,-4.44627 -13.9602,-9.67201 -18.6293,-9.78263 -3.0005,-0.0711 -8.1151,-1.72755 -5.7437,-1.86021 2.493,-0.13948 26.9234,-11.19898 34.7437,-15.72829 39.2861,-22.75337 35.0572,-41.96211 -13.1651,-59.79929 l -11.3912,-4.21356 3.922,-1.7686 c 4.979,-2.24522 11.5315,-9.03819 13.0143,-13.49207 1.9258,-5.78415 -0.3342,-13.5805 -6.1419,-21.18809 l -3.3441,-4.38039 27.053,0 c 30.05,0 37.2953,-0.97619 49.2842,-6.64034 8.3339,-3.93728 11.7752,-8.41289 11.7505,-15.28182 -0.026,-7.10419 -2.642,-11.84266 -11.4249,-20.69114 -9.2187,-9.28762 -25.6208,-20.24921 -46.1217,-30.82342 l -15.0795,-7.77787 6.3834,-0.5124 c 11.8995,-0.95517 21.4172,-7.28302 26.4613,-17.59285 2.3538,-4.81096 2.7628,-6.9057 2.7798,-14.23707 l 0.02,-8.59614 9.0906,7.68278 c 25.284,21.36835 39.3409,29.04592 44.5625,24.33906 1.8003,-1.62287 2.0075,-2.69307 1.5741,-8.13256 -0.6119,-7.67912 -8.1344,-23.69333 -17.9854,-38.28786 l -6.4471,-9.55164 4.1026,2.05164 c 2.9979,1.49914 6.0421,2.05163 11.3045,2.05163 7.0404,0 7.2927,-0.0888 11.2564,-3.95923 4.4307,-4.3264 7.9801,-12.31692 8.1415,-18.32828 0.2596,-9.67004 1.0396,-9.34337 8.0088,3.35412 13.0474,23.77169 24.6885,40.64883 29.9976,43.49016 7.6758,4.10802 10.6916,-5.49998 8.9022,-28.36157 -1.0381,-13.26344 -3.616,-34.46948 -4.643,-38.1952 -0.3033,-1.1 1.7116,1.6 4.4775,6 9.7508,15.51155 19.3223,23.5 28.1572,23.5 5.4841,0 13.2692,-4.4434 19.4144,-11.0809 l 5.5069,-5.94807 -2.517,6.68695 c -6.2272,16.54416 -8.5561,34.68313 -6.4017,49.86032 3.0882,21.75543 12.9364,44.24036 22.3258,50.97286 32.6013,23.37627 56.5556,64.13633 69.0589,117.50884 9.1968,39.25773 12.1402,75.49369 11.323,139.3931 -0.5808,45.41409 -1.8016,66.55271 -8.2067,142.1069 -6.8015,80.23041 -8.3558,112.89017 -6.5673,138 1.6795,23.58077 4.7453,37.02151 11.1027,48.6753 l 2.005,3.67529 -5.272,0.53345 c -2.8996,0.2934 -9.6781,0.78741 -15.0634,1.0978 l -9.7914,0.56435 -1.367,-3.2731 z"
           style="fill:none;stroke:#000000;stroke-width:17.36191368;stroke-miterlimit:4;stroke-dasharray:none" />
      </g>
    </g>
  </g>
</svg>
