<?xml version="1.0" encoding="UTF-8" standalone="no"?>
<!-- Created with Inkscape (http://www.inkscape.org/) -->

<svg
   xmlns:dc="http://purl.org/dc/elements/1.1/"
   xmlns:cc="http://creativecommons.org/ns#"
   xmlns:rdf="http://www.w3.org/1999/02/22-rdf-syntax-ns#"
   xmlns:svg="http://www.w3.org/2000/svg"
   xmlns="http://www.w3.org/2000/svg"
   xmlns:sodipodi="http://sodipodi.sourceforge.net/DTD/sodipodi-0.dtd"
   xmlns:inkscape="http://www.inkscape.org/namespaces/inkscape"
   width="278.27136mm"
   height="261.64346mm"
   viewBox="0 0 986.00089 927.08313"
   id="svg5965"
   version="1.1"
   inkscape:version="0.91 r13725"
   sodipodi:docname="lung.svg">
  <defs
     id="defs5967" />
  <sodipodi:namedview
     id="base"
     pagecolor="#ffffff"
     bordercolor="#666666"
     borderopacity="1.0"
     inkscape:pageopacity="0.0"
     inkscape:pageshadow="2"
     inkscape:zoom="0.35"
     inkscape:cx="-160.57098"
     inkscape:cy="343.54151"
     inkscape:document-units="px"
     inkscape:current-layer="layer1"
     showgrid="false"
     fit-margin-top="0"
     fit-margin-left="0"
     fit-margin-right="0"
     fit-margin-bottom="0"
     inkscape:window-width="1920"
     inkscape:window-height="1005"
     inkscape:window-x="-9"
     inkscape:window-y="-9"
     inkscape:window-maximized="1" />
  <metadata
     id="metadata5970">
    <rdf:RDF>
      <cc:Work
         rdf:about="">
        <dc:format>image/svg+xml</dc:format>
        <dc:type
           rdf:resource="http://purl.org/dc/dcmitype/StillImage" />
        <dc:title></dc:title>
      </cc:Work>
    </rdf:RDF>
  </metadata>
  <g
     inkscape:label="Layer 1"
     inkscape:groupmode="layer"
     id="layer1"
     transform="translate(-32.713842,51.179408)">
    <g
       id="g4754"
       transform="translate(-1685.7142,1051.4285)">
      <ellipse
         ry="463.01562"
         rx="492.47449"
         cy="-639.06635"
         cx="2211.4285"
         id="path4687-6"
         style="color:#000000;clip-rule:nonzero;display:inline;overflow:visible;visibility:visible;opacity:1;isolation:auto;mix-blend-mode:normal;color-interpolation:sRGB;color-interpolation-filters:linearRGB;solid-color:#000000;solid-opacity:1;fill:#1f78b4;fill-opacity:1;fill-rule:nonzero;stroke:#000000;stroke-width:1.05187511;stroke-linecap:butt;stroke-linejoin:miter;stroke-miterlimit:1;stroke-dasharray:none;stroke-dashoffset:0;stroke-opacity:1;color-rendering:auto;image-rendering:auto;shape-rendering:auto;text-rendering:auto;enable-background:accumulate" />
      <g
         transform="matrix(0.88502212,0,0,0.88502212,1731.77,-2121.642)"
         style="fill:none;stroke-width:16.94872856;stroke-miterlimit:4;stroke-dasharray:none"
         id="g4452">
        <path
           inkscape:connector-curvature="0"
           id="path4365"
           d="m 884.96401,2012.2995 c -25.4574,-7.1717 -52.26,-26.9056 -103.3279,-76.077 -15.0961,-14.5355 -23.3218,-27.0168 -24.7704,-37.5857 l -0.6222,-4.5397 9.8469,-1.2883 c 26.6797,-3.4906 50.8187,-15.4088 72.4114,-35.7519 33.5805,-31.6372 63.5726,-91.3711 75.2309,-149.8344 l 2.1936,-11 2.7229,19.5 c 12.7203,91.0923 17.59926,140.3041 18.49016,186.5 0.782,40.5462 -1.3979,63.0231 -7.90416,81.5 -4.998,14.1934 -11.1947,22.606 -19.98,27.1243 -5.4063,2.7805 -17.0963,3.4796 -24.2912,1.4527 z m -693.0416,-14.9719 c -8.2823,-2.0121 -14.6042,-5.6328 -21.0774,-12.0714 -7.8727,-7.8308 -14.3042,-20.7033 -18.3129,-36.6533 -5.0614,-20.1389 -5.5724,-26.7941 -5.5193,-71.8804 0.042,-35.7059 0.3554,-44.3195 2.2445,-61.695 5.1517,-47.3858 13.1191,-92.568 24.3006,-137.805 5.5769,-22.5623 12.0993,-45.5 12.9381,-45.5 0.3906,0 1.0189,2.3625 1.3961,5.25 0.3772,2.8875 1.804,9.681 3.1708,15.0967 14.9354,59.1827 59.4577,132.9121 111.8324,185.1957 16.478,16.4494 26.5287,24.8723 42.5687,35.6745 10.1578,6.8409 26.9722,15.7831 29.6774,15.7831 4.6092,0 -5.255,13.7462 -21.5926,30.0903 -14.1085,14.1141 -20.3888,19.1606 -40.5849,32.6119 -38.6402,25.7357 -73.7211,42.7192 -95.5,46.2338 -8.4022,1.3559 -19.1728,1.2164 -25.5415,-0.3309 z m 613.4099,-34.0701 c -0.2557,-0.2557 -6.0682,-2.0788 -12.9166,-4.0512 -26.0777,-7.5109 -57.4584,-12.4943 -90.9517,-14.4435 -53.5075,-3.114 -59.3564,-3.7041 -71.5,-7.2139 -20.8037,-6.0128 -32.9714,-18.1956 -40.4412,-40.4915 -10.118,-30.2002 -11.4558,-79.716 -4.5208,-167.3349 2.1119,-26.6829 1.4065,-24.882 7.7302,-19.7355 12.4232,10.1105 27.7228,15.933 71.2318,27.1085 15.95,4.0968 33.05,8.8743 38,10.6166 21.2281,7.4718 31.9519,15.0886 37.7085,26.7832 2.9689,6.0313 3.285,7.5218 3.2252,15.2069 -0.1174,15.0765 -3.6655,29.7017 -13.9146,57.3556 -7.4726,20.1623 -8.9361,25.9729 -8.2749,32.8543 0.9114,9.4859 8.6767,13.8104 24.798,13.8104 l 8.6792,0 0.5935,5.0111 c 0.3264,2.7561 1.9407,7.8186 3.5872,11.25 5.7291,11.9393 14.5369,21.3501 49.0622,52.4211 1.2817,1.1535 1.2713,1.3178 -0.083,1.3178 -0.8512,0 -1.7569,-0.2092 -2.0126,-0.465 z m -464.7983,-29.2483 c 13.8582,-11.6163 28.8244,-27.9646 36.3034,-39.6562 2.9442,-4.6026 3.9447,-5.3625 9.2147,-6.9992 8.5101,-2.6428 28.5575,-12.3864 41.376,-20.1097 21.5007,-12.9544 47.4677,-33.2966 66.4104,-52.025 l 9.7413,-9.6311 -0.6965,3.8172 c -1.3861,7.5966 -10.3833,40.0555 -13.8928,50.1207 -17.1735,49.2529 -39.7461,66.3866 -97.0265,73.6476 -14.2257,1.8033 -45.1514,4.5353 -51.43,4.5433 l -4.4301,0.01 4.4301,-3.7133 z m 397.3913,-42.2765 c -10.185,-1.4964 -15.4613,-6.2392 -15.4613,-13.8982 0,-5.7088 2.0702,-12.8951 9.8951,-34.3488 17.6902,-48.5015 16.9171,-69.5046 -3.1061,-84.3829 -12.3744,-9.1949 -25.0188,-13.8584 -64.8238,-23.908 -46.2632,-11.6802 -61.2431,-17.7749 -73.5711,-29.9329 -8.1813,-8.0685 -13.6526,-16.0795 -20.0589,-29.3699 -12.4356,-25.7986 -21.7175,-60.0733 -25.7729,-95.1695 -1.5903,-13.7632 -2.0597,-48.1481 -0.7547,-55.2882 l 0.6924,-3.7883 4.5,2.9357 c 2.475,1.6146 9.8714,7.9802 16.4364,14.1457 14.2857,13.4165 21.8129,19.5318 34.8691,28.3287 18.9327,12.7562 26.2046,20.5415 50.8145,54.4014 7.7011,10.5957 14.4723,19.265 15.0471,19.265 0.5747,0 5.3848,-3.1727 10.6889,-7.0506 5.3042,-3.8778 10.7007,-7.8153 11.9923,-8.75 l 2.3483,-1.6994 -10.3483,-14.1547 c -5.6916,-7.7851 -14.8483,-20.2963 -20.3483,-27.8027 -5.5,-7.5063 -10.1373,-14.036 -10.3051,-14.5103 -0.9623,-2.7211 13.4326,-3.0523 19.7951,-0.4556 2.4695,1.0079 8.2029,4.6655 12.7409,8.1279 4.538,3.4625 8.4215,6.2954 8.63,6.2954 0.8558,0 11.6391,-17.8808 11.6391,-19.2999 0,-3.6897 -21.8563,-17.5336 -32.7936,-20.7717 l -4.2937,-1.2711 4.7592,-4.8318 4.7592,-4.8319 -5.9343,-5.9968 c -3.2638,-3.2982 -6.2227,-5.9968 -6.5753,-5.9968 -0.3527,0 -4.1773,2.9399 -8.4993,6.5331 -10.1293,8.4213 -16.9808,11.7803 -25.0807,12.2961 -5.4039,0.3441 -7.1701,-0.028 -12.9431,-2.7299 -22.4294,-10.496 -42.5523,-33.0178 -50.9327,-57.0044 -4.579,-13.106 -4.4723,-14.352 2.0627,-24.0949 7.5979,-11.3275 19.4607,-23.596 33.0503,-34.1808 6.1299,-4.7745 13.1936,-11.0226 15.6973,-13.8847 6.2494,-7.1439 19.0267,-30.9651 17.4533,-32.5385 -0.297,-0.297 -3.5552,5.3184 -7.2405,12.4786 -7.9667,15.4785 -13.0605,21.4755 -28.3679,33.3978 l -10.9264,8.5102 -0.6376,-4.2514 c -1.3416,-8.9468 -0.7632,-50.8152 0.8833,-63.9363 4.3039,-34.2972 12.2857,-55.8465 26.1158,-70.5072 17.3048,-18.344 40.3886,-19.6426 71.5458,-4.0248 19.3596,9.7041 47.8505,32.1013 62.3387,49.0057 19.0373,22.2121 42.9121,56.4993 63.9244,91.8035 53.6641,90.165 89.5025,180.0576 101.6593,254.9904 1.5557,9.5892 0.1269,21.4331 -5.0229,41.6375 -13.9958,54.9107 -39.6928,103.6464 -70.1567,133.0558 -23.9374,23.1089 -47.2414,34.2286 -78.2683,37.3465 -11.9486,1.2007 -14.5893,1.2136 -22.115,0.1079 z m -362.4613,-4.712 c -5.0775,-1.8414 -22.0315,-10.9255 -28.6648,-15.3591 -25.8792,-17.2968 -55.8791,-46.7721 -81.2267,-79.8063 -9.0038,-11.7342 -27.8139,-40.0187 -35.6676,-53.6328 -13.6896,-23.7302 -25.8562,-50.4855 -32.8105,-72.1526 -3.9146,-12.1967 -8.6305,-33.9422 -8.6305,-39.7964 0,-4.2445 14.7105,-49.551 16.0887,-49.551 0.5012,0 0.9113,0.8212 0.9113,1.8249 0,3.2903 4.8934,16.2996 8.9827,23.881 17.6763,32.7706 57.8656,65.0521 107.4599,86.3156 75.8811,32.5338 155.3066,35.0762 194.8545,6.2372 2.6383,-1.9239 4.9287,-3.3317 5.0896,-3.1284 0.7576,0.957 3.702,13.2755 5.0795,21.2507 4.1502,24.0291 0.6022,43.5997 -12.9516,71.4396 -7.0292,14.438 -8.0138,15.7507 -23.0244,30.6964 -29.4867,29.3592 -70.7512,57.2989 -101.6964,68.8575 -9.7694,3.649 -11.0468,3.9198 -13.7937,2.9237 z m 45.0718,-174.3381 c -80.2379,-7.739 -164.9727,-51.1379 -198.3182,-101.5733 -9.1917,-13.9025 -15.7537,-29.9728 -15.7537,-38.5805 0,-4.7106 15.7696,-42.9062 29.44,-71.3063 32.4076,-67.3269 77.5846,-130.9204 122.2331,-172.0614 35.6408,-32.841 56.6004,-47.0073 75.6471,-51.1286 13.4071,-2.9011 25.1462,0.442 34.5408,9.8366 21.917,21.917 28.0523,78.0976 14.9758,137.1319 -1.1913,5.3781 -2.6248,9.6255 -3.1855,9.4386 -1.7937,-0.5979 -7.5848,-11.9676 -10.0949,-19.8194 -3.1427,-9.8305 -5.5563,-26.2402 -5.5563,-37.776 0,-5.4145 -0.4064,-9.1217 -1,-9.1217 -1.5142,0 -1.207,17.0486 0.5128,28.4592 3.1934,21.187 7.8756,32.3619 18.0341,43.0408 8.2889,8.7135 15.719,18.6234 21.6958,28.9367 l 4.5995,7.9367 -2.2871,6.0764 c -3.2848,8.7269 -8.1087,17.9749 -13.6965,26.2578 -7.105,10.532 -20.6104,25.947 -23.9415,27.3267 -4.1567,1.7218 -8.7326,0.5401 -19.7352,-5.0964 -5.3014,-2.7159 -10.0113,-4.9379 -10.4666,-4.9379 -0.4553,0 -1.77,2.1375 -2.9215,4.75 -1.1515,2.6125 -4.0512,7.981 -6.4438,11.93 -2.3925,3.9491 -4.35,7.6064 -4.35,8.1276 0,0.5211 5.0625,3.7365 11.25,7.1453 17.1041,9.423 15.9366,6.1967 9.3178,25.7501 -3.1272,9.2383 -7.7362,21.6576 -10.2422,27.5983 -2.506,5.9407 -4.392,10.9373 -4.191,11.1036 0.5807,0.4806 8.629,4.929 17.9877,9.942 l 8.6223,4.6186 2.2423,-6.2327 c 2.6041,-7.2387 11.7052,-25.7785 18.5794,-37.8482 12.2873,-21.5739 35.1336,-53.7453 44.1721,-62.2017 l 3.0111,-2.8171 0.5944,2.3683 c 1.6803,6.6948 3.7086,24.3143 4.7193,40.9961 1.7181,28.3572 -0.9126,67.479 -7.1117,105.7606 -2.2998,14.2021 -1.9712,13.7293 -14.5951,20.9992 -9.7033,5.588 -24.1224,10.5833 -37.5045,12.993 -13.0539,2.3505 -37.1724,3.2896 -50.7801,1.9771 z"
           style="fill:none;stroke:#000000;stroke-width:16.94872856;stroke-miterlimit:4;stroke-dasharray:none" />
        <path
           inkscape:connector-curvature="0"
           id="path4351"
           d="m 938.54287,1930.1392 c 0.048,-1.165 0.285,-1.4019 0.6042,-0.6042 0.2889,0.7219 0.2533,1.5844 -0.079,1.9167 -0.3323,0.3323 -0.5686,-0.2584 -0.5252,-1.3125 z m 0.079,-33.4167 c 0,-1.375 0.227,-1.9375 0.5044,-1.25 0.2774,0.6875 0.2774,1.8125 0,2.5 -0.2775,0.6875 -0.5044,0.125 -0.5044,-1.25 z m -794.07906,-32.5833 c 0.048,-1.165 0.285,-1.4019 0.6042,-0.6042 0.2889,0.7219 0.2534,1.5844 -0.079,1.9167 -0.3323,0.3323 -0.5686,-0.2584 -0.5252,-1.3125 z m 434.2072,-42.9167 c 0.01,-2.75 0.2017,-3.7563 0.4316,-2.2362 0.2298,1.52 0.2237,3.77 -0.014,5 -0.2374,1.2299 -0.4255,-0.014 -0.418,-2.7638 z m 85.1536,-185.9902 c -1.4642,-1.9197 -3.1316,-3.2002 -3.7054,-2.8455 -0.6136,0.3792 -0.7438,0.1602 -0.3162,-0.5316 0.4313,-0.6979 -3.6509,-7.1662 -10.0375,-15.9045 -13.8892,-19.0035 -21.6145,-28.3237 -30.0816,-36.2918 -8.3737,-7.8803 -24.8734,-19.3174 -26.4566,-18.339 -0.6675,0.4126 -0.8809,0.2741 -0.5078,-0.3296 0.8733,-1.413 -1.9488,-3.6242 -3.4452,-2.6994 -0.6832,0.4222 -0.9373,0.3183 -0.5912,-0.2417 0.8406,-1.3601 -8.0326,-8.6088 -9.459,-7.7273 -0.675,0.4172 -0.8767,0.2704 -0.4894,-0.3562 0.8353,-1.3515 -8.2373,-9.4307 -9.6263,-8.5722 -0.5679,0.3509 -0.7444,0.172 -0.3924,-0.3976 0.8461,-1.3689 -13.7697,-15.2741 -19.7198,-18.761 -11.1346,-6.5254 -16.0862,-5.4008 -27.5474,6.2566 -9.1658,9.3228 -24.2849,29.2124 -23.5875,31.03 0.2754,0.7177 0.08,1.0451 -0.4333,0.7276 -2.5717,-1.5894 -29.525,44.293 -37.5807,63.9734 -2.0262,4.95 -3.8001,9.1285 -3.942,9.2855 -0.2077,0.2299 -22.4561,-11.4328 -23.2416,-12.1833 -0.1217,-0.1163 1.5322,-4.2786 3.6753,-9.2495 4.0556,-9.4072 16.046,-43.6309 16.046,-45.7997 0,-0.6833 -5.2875,-4.2233 -11.75,-7.8665 -6.4625,-3.6433 -12.3836,-6.9986 -13.1581,-7.4563 -1.1333,-0.6698 -0.7009,-1.9376 2.2163,-6.4979 1.9934,-3.1161 4.8187,-8.0432 6.2784,-10.949 1.4597,-2.9058 2.7583,-5.4042 2.8857,-5.552 0.1274,-0.1477 4.0108,1.7395 8.6297,4.1939 10.5627,5.6127 16.6674,7.1158 21.2031,5.2207 5.6479,-2.3599 22.2349,-22.1604 30.6869,-36.6322 10.5682,-18.0952 14.4118,-34.3824 15.9325,-67.5137 1.7547,-38.228 3.0299,-69.3719 3.324,-81.1801 0.1532,-6.1491 0.4974,-11.3587 0.765,-11.5768 0.2676,-0.2181 9.4986,-0.199 20.5134,0.043 l 20.0269,0.4391 -0.027,61.6377 -0.027,61.6376 2.8532,8.9829 c 1.5692,4.9407 4.2183,11.6907 5.8868,15 5.808,11.5198 16.0447,25.0772 18.0152,23.8593 0.5796,-0.3582 0.7801,-0.2083 0.4455,0.3331 -0.9218,1.4914 9.8466,11.7225 11.3561,10.7896 0.763,-0.4716 1.0003,-0.3664 0.6074,0.2693 -0.8954,1.4488 5.2367,5.9106 15.0954,10.9835 9.7358,5.0097 15.7639,5.5714 24.4529,2.2784 6.5596,-2.4859 19.1444,-11.6096 18.1757,-13.1769 -0.398,-0.644 -0.2522,-0.8532 0.3397,-0.4873 0.5704,0.3524 2.2746,-0.3326 3.7871,-1.5224 l 2.7501,-2.1632 4.9659,5.2057 c 3.7991,3.9825 4.7099,5.5143 3.8761,6.5189 -0.5994,0.7222 -0.8687,1.6092 -0.5984,1.9711 0.2702,0.3619 0.1834,0.4251 -0.193,0.1404 -0.7181,-0.5432 -7.3157,5.4077 -7.3157,6.5986 0,0.3788 2.3625,1.4568 5.25,2.3954 10.4578,3.3996 28.2045,14.0128 31.0097,18.5449 0.6943,1.1218 -0.4265,3.6706 -4.2676,9.7054 l -5.2092,8.1841 -6.7278,-5.4358 c -3.7002,-2.9897 -9.3349,-6.6294 -12.5215,-8.0882 -5.2447,-2.4012 -6.5959,-2.6025 -14.2589,-2.1244 -4.6559,0.2905 -8.9095,0.9724 -9.4525,1.5153 -0.6496,0.6496 1.5381,4.5328 6.397,11.3548 13.1398,18.4484 27.8997,37.3746 28.9275,37.0927 0.5511,-0.1511 0.7219,0.1784 0.3795,0.7323 -0.3423,0.5539 0.5243,2.6945 1.9257,4.7569 1.4014,2.0624 2.5481,4.0302 2.5481,4.3728 0,0.3427 -2.7061,2.5212 -6.0137,4.8413 -3.4389,2.4123 -5.7275,4.6812 -5.3454,5.2994 0.4013,0.6495 0.2001,0.7918 -0.5042,0.3566 -0.6611,-0.4086 -2.8623,0.6141 -5.0484,2.3455 -2.1319,1.6885 -4.126,3.07 -4.4313,3.07 -0.3054,0 -1.7532,-1.5706 -3.2174,-3.4903 z m -103.1536,-236.0098 c 0.01,-2.75 0.2017,-3.7563 0.4316,-2.2362 0.2298,1.52 0.2237,3.77 -0.014,5 -0.2374,1.2299 -0.4255,-0.014 -0.418,-2.7638 z m -44.1281,-38.5 c 0,-1.375 0.227,-1.9375 0.5044,-1.25 0.2774,0.6875 0.2774,1.8125 0,2.5 -0.2774,0.6875 -0.5044,0.125 -0.5044,-1.25 z m -176.6579,-16 c 2.1482,-2.2 4.1309,-4 4.4059,-4 0.275,0 -1.2577,1.8 -3.4059,4 -2.1483,2.2 -4.131,4 -4.406,4 -0.275,0 1.2577,-1.8 3.406,-4 z m 221.6579,-2 c 0,-1.375 0.227,-1.9375 0.5044,-1.25 0.2774,0.6875 0.2774,1.8125 0,2.5 -0.2774,0.6875 -0.5044,0.125 -0.5044,-1.25 z"
           style="fill:none;stroke:#000000;stroke-width:16.94872856;stroke-miterlimit:4;stroke-dasharray:none" />
      </g>
    </g>
  </g>
</svg>
