<?xml version="1.0" encoding="UTF-8" standalone="no"?>
<!-- Created with Inkscape (http://www.inkscape.org/) -->

<svg
   xmlns:dc="http://purl.org/dc/elements/1.1/"
   xmlns:cc="http://creativecommons.org/ns#"
   xmlns:rdf="http://www.w3.org/1999/02/22-rdf-syntax-ns#"
   xmlns:svg="http://www.w3.org/2000/svg"
   xmlns="http://www.w3.org/2000/svg"
   xmlns:sodipodi="http://sodipodi.sourceforge.net/DTD/sodipodi-0.dtd"
   xmlns:inkscape="http://www.inkscape.org/namespaces/inkscape"
   width="278.27136mm"
   height="261.64346mm"
   viewBox="0 0 986.00089 927.08313"
   id="svg4804"
   version="1.1"
   inkscape:version="0.91 r13725"
   sodipodi:docname="monocyte_derived_cell.svg">
  <defs
     id="defs4806" />
  <sodipodi:namedview
     id="base"
     pagecolor="#ffffff"
     bordercolor="#666666"
     borderopacity="1.0"
     inkscape:pageopacity="0.0"
     inkscape:pageshadow="2"
     inkscape:zoom="0.35"
     inkscape:cx="-31.999614"
     inkscape:cy="409.25582"
     inkscape:document-units="px"
     inkscape:current-layer="layer1"
     showgrid="false"
     fit-margin-top="0"
     fit-margin-left="0"
     fit-margin-right="0"
     fit-margin-bottom="0"
     inkscape:window-width="1920"
     inkscape:window-height="1005"
     inkscape:window-x="-9"
     inkscape:window-y="-9"
     inkscape:window-maximized="1" />
  <metadata
     id="metadata4809">
    <rdf:RDF>
      <cc:Work
         rdf:about="">
        <dc:format>image/svg+xml</dc:format>
        <dc:type
           rdf:resource="http://purl.org/dc/dcmitype/StillImage" />
        <dc:title></dc:title>
      </cc:Work>
    </rdf:RDF>
  </metadata>
  <g
     inkscape:label="Layer 1"
     inkscape:groupmode="layer"
     id="layer1"
     transform="translate(95.857529,-14.534903)">
    <g
       id="g4774"
       transform="translate(722.85719,1048.5714)">
      <ellipse
         ry="463.01562"
         rx="492.47449"
         cy="-570.49493"
         cx="-325.71429"
         id="path4687-3"
         style="color:#000000;clip-rule:nonzero;display:inline;overflow:visible;visibility:visible;opacity:1;isolation:auto;mix-blend-mode:normal;color-interpolation:sRGB;color-interpolation-filters:linearRGB;solid-color:#000000;solid-opacity:1;fill:#fdbf6f;fill-opacity:1;fill-rule:nonzero;stroke:#000000;stroke-width:1.05187511;stroke-linecap:butt;stroke-linejoin:miter;stroke-miterlimit:1;stroke-dasharray:none;stroke-dashoffset:0;stroke-opacity:1;color-rendering:auto;image-rendering:auto;shape-rendering:auto;text-rendering:auto;enable-background:accumulate" />
      <path
         style="fill:none;stroke:#000000;stroke-width:15;stroke-miterlimit:4;stroke-dasharray:none"
         d="m -328.23817,-283.98577 c -35.32159,-2.8103 -73.91744,-11.2956 -102.96979,-22.6379 -37.83206,-14.77 -75.35933,-41.692 -102.99233,-73.8865 -37.1453,-43.277 -57.5221,-91.1725 -68.0709,-160 -2.7244,-17.7754 -3.7987,-57.4783 -2.0327,-75.1178 4.8418,-48.36161 23.8356,-93.97601 55.9253,-134.30706 9.8509,-12.3809 34.31061,-37.397 47.38928,-48.46734 39.15344,-33.14113 77.68261,-49.98492 132.25114,-57.81618 13.72605,-1.96986 58.79167,-1.61659 74.5,0.58401 25.98621,3.64043 56.0839,11.11842 75.5,18.75852 29.392,11.56555 58.09951,31.273 85.60488,58.76701 21.98484,21.97576 38.174911,43.54578 51.864341,69.09885 23.91244,44.63561 35.03592,89.88679 35.02736,142.49389 -0.004,24.145 -1.03823,37.5046 -4.6457,60.0061 -10.31046,64.3113 -33.94198,115.359 -71.140211,153.6737 -13.28364,13.6823 -21.85278,20.8592 -36.20502,30.3226 -29.39049,19.3792 -65.10606,31.9516 -105.14663,37.0133 -14.70917,1.8595 -50.12966,2.6867 -64.85902,1.5148 z m 42.63547,-10.5143 c 47.1203,-5.8533 87.03307,-20.4968 125.36453,-45.9947 58.19247,-38.7093 98.526661,-100.0717 103.865261,-158.0154 3.26915,-35.4825 -7.94276,-64.7242 -32.34287,-84.3531 -14.223581,-11.4423 -26.195551,-15.7323 -41.522391,-14.8791 -15.69045,0.8735 -30.25734,7.0603 -67.67301,28.7421 l -20.82699,12.0689 -0.60387,-6.1052 c -0.66209,-6.6938 -2.32074,-9.5733 -8.30365,-14.4157 -3.44399,-2.7874 -4.425,-3.0579 -11.09248,-3.0579 -6.65344,0 -7.66159,0.2763 -11.15718,3.058 -5.09135,4.0515 -8.34282,10.5546 -8.34282,16.686 0,6.3955 1.84747,10.4919 6.71087,14.8803 l 4.01661,3.6243 -10.10079,4.1618 c -9.49961,3.914 -10.17641,4.0554 -11.37147,2.3757 -3.07657,-4.3244 -7.71559,-8.2829 -10.96269,-9.3546 -5.83359,-1.9252 -13.73111,-0.7356 -17.98766,2.7095 -5.80073,4.6949 -7.5888,7.7377 -8.08857,13.7643 -0.52409,6.3198 0.70747,5.7059 -16.2163,8.0832 -14.0579,1.9746 -37.17391,1.932 -49.07378,-0.091 -27.37435,-4.6528 -50.58481,-16.4304 -79.96564,-40.5766 -30.88834,-25.3852 -35.67744,-28.7071 -46.90276,-32.534 -16.14574,-5.5043 -33.03844,-0.075 -49.77834,15.9999 -3.4537,3.3164 -6.2795,5.386 -6.2795,4.5992 0,-2.5214 -6.2264,-9.0847 -10.4292,-10.9936 -10.9072,-4.9539 -23.9255,0.562 -27.5994,11.6939 -1.962,5.9448 -0.8009,13.8205 2.6696,18.1084 4.384,5.4166 7.5991,7.4649 12.6024,8.0289 l 4.4718,0.504 -2.8944,9.0005 c -3.9389,12.2487 -5.1601,22.6272 -4.5539,38.7026 2.9416,78.0018 72.44264,158.7273 164.15494,190.6659 21.99289,7.659 45.77361,12.324 75.57818,14.8258 8.91129,0.7481 42.75313,-0.4367 54.63547,-1.9127 z m -112.47536,-254.3967 c 6.43643,-4.0818 9.2045,-10.0463 8.65651,-18.6524 -0.45289,-7.1124 -1.94968,-9.8248 -8.22414,-14.9031 -3.44399,-2.7874 -4.425,-3.0579 -11.09248,-3.0579 -6.65344,0 -7.66159,0.2763 -11.15718,3.058 -5.05503,4.0226 -8.34282,10.56 -8.34282,16.5888 0,6.0584 1.34426,9.5311 5.31133,13.7211 4.23525,4.4732 8.04013,6.0457 14.74289,6.093 4.44689,0.031 6.46168,-0.5364 10.10589,-2.8475 z m 37.12201,-41.4605 c 4.53037,-1.8966 10.47095,-8.8197 11.2832,-13.1494 1.23136,-6.5637 -0.0184,-13.2542 -3.23028,-17.2929 -9.66335,-12.1509 -28.13286,-10.38713 -34.445,3.2894 -1.99636,4.3256 -2.4537,11.8873 -0.95703,15.8238 1.3928,3.6634 7.11935,9.7885 10.5484,11.2826 3.9514,1.7218 12.7409,1.7461 16.80071,0.046 z m 84.87799,-1.5395 c 6.43643,-4.0818 9.2045,-10.0463 8.65651,-18.6524 -0.45289,-7.1124 -1.94968,-9.8248 -8.22414,-14.9031 -3.44399,-2.7874 -4.425,-3.0579 -11.09248,-3.0579 -6.65344,0 -7.66159,0.2763 -11.15718,3.058 -5.05503,4.0226 -8.34282,10.56 -8.34282,16.5888 0,6.0584 1.34426,9.5311 5.31133,13.7211 4.23525,4.4732 8.04013,6.0457 14.74289,6.093 4.44689,0.031 6.46168,-0.5364 10.10589,-2.8475 z m -300.16703,-35.6134 c 3.7609,-38.57669 17.1003,-72.26138 41.3251,-104.35424 9.05949,-12.00199 30.13779,-33.38523 43.18182,-43.80655 35.05507,-28.00668 80.07783,-49.54873 120.86787,-57.83168 6.52733,-1.32546 12.06436,-2.60642 12.30452,-2.84658 0.24015,-0.24015 -2.43725,-0.93711 -5.94979,-1.54879 -31.06507,-5.40975 -77.48888,8.51622 -118.7226,35.61377 -17.31072,11.37609 -27.10771,19.34502 -42.10846,34.25131 -30.95996,30.76504 -48.93676,63.44552 -55.02016,100.02277 -1.8399,11.06251 -1.5573,32.69785 0.5721,43.80299 0.9811,5.1167 1.9179,9.1667 2.0818,9 0.1638,-0.1666 0.8244,-5.703 1.4678,-12.303 z m 348.16703,1.6134 c 6.43643,-4.08184 9.2045,-10.0463 8.65651,-18.65244 -0.45289,-7.11236 -1.94968,-9.82472 -8.22414,-14.90307 -3.44399,-2.78744 -4.425,-3.05788 -11.09248,-3.05788 -6.65344,0 -7.66159,0.27632 -11.15718,3.05797 -5.05503,4.02259 -8.34282,10.56002 -8.34282,16.58882 0,6.05835 1.34426,9.53106 5.31133,13.72108 4.23525,4.47322 8.04013,6.04572 14.74289,6.09302 4.44689,0.031 6.46168,-0.5364 10.10589,-2.8475 z m 80.12201,1.5395 c 4.53037,-1.8966 10.47095,-8.81973 11.2832,-13.14941 1.23136,-6.56367 -0.0184,-13.25419 -3.23028,-17.29285 -9.66335,-12.15094 -28.13286,-10.38717 -34.445,3.28937 -1.99636,4.32554 -2.4537,11.88726 -0.95703,15.82381 1.3928,3.66334 7.11935,9.78848 10.5484,11.28258 3.9514,1.7218 12.7409,1.7461 16.80071,0.046 z m -325.12201,-49.53947 c 6.43643,-4.08187 9.2045,-10.04633 8.65651,-18.65247 -0.45289,-7.11236 -1.94968,-9.82472 -8.22414,-14.90307 -3.44399,-2.78744 -4.425,-3.05788 -11.09248,-3.05788 -6.65344,0 -7.66159,0.27632 -11.15718,3.05797 -5.05503,4.02259 -8.34282,10.56002 -8.34282,16.58882 0,6.05835 1.34426,9.53106 5.31133,13.72108 4.23525,4.47326 8.04013,6.04575 14.74289,6.09299 4.44689,0.0313 6.46168,-0.53635 10.10589,-2.84744 z m 112.12201,1.53945 c 4.53037,-1.89659 10.47095,-8.81971 11.2832,-13.14939 1.23136,-6.56367 -0.0184,-13.25419 -3.23028,-17.29285 -9.66335,-12.15094 -28.13286,-10.38717 -34.445,3.28937 -1.99636,4.32554 -2.4537,11.88726 -0.95703,15.82381 1.3928,3.66334 7.11935,9.78849 10.5484,11.28262 3.9514,1.72174 12.7409,1.74603 16.80071,0.0464 z m 43,0 c 4.53037,-1.89659 10.47095,-8.81971 11.2832,-13.14939 1.23136,-6.56367 -0.0184,-13.25419 -3.23028,-17.29285 -9.66335,-12.15094 -28.13286,-10.38717 -34.445,3.28937 -1.99636,4.32554 -2.4537,11.88726 -0.95703,15.82381 1.3928,3.66334 7.11935,9.78849 10.5484,11.28262 3.9514,1.72174 12.7409,1.74603 16.80071,0.0464 z m -81.49228,-83.54646 c 7.37936,-3.76628 10.59364,-9.74299 10.02686,-18.64419 -0.45301,-7.11429 -2.98809,-11.67056 -8.65325,-15.5524 -2.91877,-1.99997 -4.74664,-2.40982 -10.74736,-2.40982 -6.57389,0 -7.57352,0.27767 -11.00857,3.05789 -6.09991,4.93707 -7.73323,7.79684 -8.2089,14.37299 -0.88299,12.20717 7.12422,21.06912 19.037,21.06912 3.7617,0 7.16606,-0.67472 9.55422,-1.89359 z m 82.96042,-0.22756 c 10.61661,-5.13941 13.7504,-20.68329 5.95899,-29.55721 -8.74427,-9.95918 -23.75826,-9.52913 -32.0682,0.91852 -3.4285,4.31049 -4.63189,12.22753 -2.73309,17.98094 1.35668,4.1108 6.42708,9.56135 10.59204,11.38619 4.68814,2.05407 13.20456,1.71414 18.25026,-0.72844 z m 82.03958,0.22756 c 7.37936,-3.76628 10.59364,-9.74299 10.02686,-18.64419 -0.45301,-7.11429 -2.98809,-11.67056 -8.65325,-15.5524 -2.91877,-1.99997 -4.74664,-2.40982 -10.74736,-2.40982 -6.57389,0 -7.57352,0.27767 -11.00857,3.05789 -6.09991,4.93707 -7.73323,7.79684 -8.2089,14.37299 -0.88299,12.20717 7.12422,21.06912 19.037,21.06912 3.7617,0 7.16606,-0.67472 9.55422,-1.89359 z"
         id="path4233"
         inkscape:connector-curvature="0" />
    </g>
  </g>
</svg>
