<?xml version="1.0" encoding="UTF-8" standalone="no"?>
<!-- Created with Inkscape (http://www.inkscape.org/) -->

<svg
   xmlns:dc="http://purl.org/dc/elements/1.1/"
   xmlns:cc="http://creativecommons.org/ns#"
   xmlns:rdf="http://www.w3.org/1999/02/22-rdf-syntax-ns#"
   xmlns:svg="http://www.w3.org/2000/svg"
   xmlns="http://www.w3.org/2000/svg"
   xmlns:sodipodi="http://sodipodi.sourceforge.net/DTD/sodipodi-0.dtd"
   xmlns:inkscape="http://www.inkscape.org/namespaces/inkscape"
   width="278.27136mm"
   height="261.64346mm"
   viewBox="0 0 986.00089 927.08313"
   id="svg5878"
   version="1.1"
   inkscape:version="0.91 r13725"
   sodipodi:docname="flu_low.svg">
  <defs
     id="defs5880" />
  <sodipodi:namedview
     id="base"
     pagecolor="#ffffff"
     bordercolor="#666666"
     borderopacity="1.0"
     inkscape:pageopacity="0.0"
     inkscape:pageshadow="2"
     inkscape:zoom="0.35"
     inkscape:cx="2228.0004"
     inkscape:cy="-616.45846"
     inkscape:document-units="px"
     inkscape:current-layer="layer1"
     showgrid="false"
     fit-margin-top="0"
     fit-margin-left="0"
     fit-margin-right="0"
     fit-margin-bottom="0"
     inkscape:window-width="1920"
     inkscape:window-height="1005"
     inkscape:window-x="-9"
     inkscape:window-y="-9"
     inkscape:window-maximized="1" />
  <metadata
     id="metadata5883">
    <rdf:RDF>
      <cc:Work
         rdf:about="">
        <dc:format>image/svg+xml</dc:format>
        <dc:type
           rdf:resource="http://purl.org/dc/dcmitype/StillImage" />
        <dc:title></dc:title>
      </cc:Work>
    </rdf:RDF>
  </metadata>
  <g
     inkscape:label="Layer 1"
     inkscape:groupmode="layer"
     id="layer1"
     transform="translate(2355.8575,1011.1794)">
    <g
       id="g4231"
       transform="translate(-3782.3604,1697.1427)">
      <ellipse
         ry="463.01562"
         rx="492.47449"
         cy="-2244.7805"
         cx="1919.5033"
         id="path4687"
         style="color:#000000;clip-rule:nonzero;display:inline;overflow:visible;visibility:visible;opacity:1;isolation:auto;mix-blend-mode:normal;color-interpolation:sRGB;color-interpolation-filters:linearRGB;solid-color:#000000;solid-opacity:1;fill:#ff7f00;fill-opacity:1;fill-rule:nonzero;stroke:#000000;stroke-width:1.05187511;stroke-linecap:butt;stroke-linejoin:miter;stroke-miterlimit:1;stroke-dasharray:none;stroke-dashoffset:0;stroke-opacity:1;color-rendering:auto;image-rendering:auto;shape-rendering:auto;text-rendering:auto;enable-background:accumulate" />
      <path
         style="fill:none;stroke:#000000;stroke-width:15;stroke-miterlimit:4;stroke-dasharray:none"
         d="m 1905.5134,-1829.988 c -16.7751,-4.6113 -30.6844,-18.8701 -35.1565,-36.0398 -1.2777,-4.9053 -1.5312,-14.2884 -1.5312,-56.6686 0,-50.4953 -0.012,-50.7899 -2.0449,-50.7899 -3.1626,0 -20.227,-4.4166 -32.8209,-8.4947 -23.9233,-7.7466 -45.0233,-17.9434 -66.1341,-31.9599 -17.9797,-11.9376 -27.514,-19.8593 -44.6682,-37.1135 l -15.1683,-15.2566 -42.3317,24.4423 c -26.9821,15.5793 -44.6363,25.1566 -48.6871,26.4123 -4.1432,1.2843 -9.2142,1.9701 -14.5685,1.9701 -14.2805,0 -25.3023,-4.5409 -35.3082,-14.5468 -17.7108,-17.7108 -19.7195,-44.9081 -4.7908,-64.867 2.3963,-3.2038 5.9153,-7.1096 7.8199,-8.6796 1.9047,-1.57 22.3045,-13.7219 45.333,-27.0043 23.0284,-13.2824 42.1928,-24.4395 42.5874,-24.7936 0.3946,-0.354 -0.1963,-3.5608 -1.3132,-7.1262 -3.7209,-11.8782 -7.9006,-30.3278 -10.0775,-44.4825 -2.6005,-16.9096 -3.1581,-55.7992 -1.0252,-71.5 2.1248,-15.6415 6.1447,-34.7143 9.8988,-46.9668 1.9436,-6.3433 3.5936,-12.1682 3.6667,-12.9443 0.081,-0.8641 -16.0079,-10.7488 -41.5064,-25.5 -22.9016,-13.2489 -43.6769,-25.5526 -46.1673,-27.3416 -13.3279,-9.5743 -21.3637,-29.667 -18.7224,-46.8137 3.0732,-19.9507 19.4629,-37.4735 38.8095,-41.4927 7.5619,-1.5709 21.3767,-0.6942 27.7195,1.7591 2.75,1.0637 24.2385,13.0472 47.7523,26.6301 l 42.7524,24.696 14.2476,-14.263 c 29.075,-29.1064 62.581,-50.7922 99.7476,-64.5586 12.6113,-4.6712 39.8332,-12.2045 44.1015,-12.2045 1.84,0 1.8985,-1.5804 1.8985,-51.2899 0,-55.6188 0.1226,-57.0983 5.6321,-67.9708 3.8237,-7.5457 14.7678,-18.0976 22.5222,-21.7151 28.3876,-13.2431 61.4334,2.2596 69.3145,32.5174 1.2782,4.9072 1.5312,14.3153 1.5312,56.9339 l 0,51.0553 10.75,2.3246 c 22.8186,4.9343 52.8845,16.4673 73.6261,28.2424 23.6836,13.4451 40.3966,26.3738 61.3066,47.425 l 15.1828,15.2851 42.3172,-24.4254 c 23.2745,-13.434 44.7923,-25.366 47.8173,-26.5155 11.8912,-4.519 28.0676,-3.4136 40.2285,2.7488 12.0345,6.0983 22.9382,20.8425 25.798,34.8842 3.3305,16.3535 -3.3444,35.7718 -16.0619,46.7265 -2.6144,2.2519 -23.8921,15.1634 -47.2839,28.6922 -23.3919,13.5288 -42.7712,24.8385 -43.0653,25.1325 -0.294,0.2941 0.3766,3.4403 1.4903,6.9917 16.6181,52.9934 17.0609,111.5261 1.2397,163.8662 -2.2441,7.4241 -3.0807,11.6155 -2.395,12 0.5794,0.325 19.8222,11.3909 42.7616,24.5909 46.9062,26.9912 50.2343,29.4951 56.6788,42.642 12.5486,25.5991 2.0564,55.196 -23.9444,67.5438 -6.9301,3.291 -8.7125,3.6987 -17.973,4.1106 -15.7681,0.7012 -17.5539,-0.06 -65.9734,-28.1085 l -42,-24.3302 -6.4768,7.0712 c -39.2106,42.809 -88.9078,71.9011 -143.5232,84.0166 -3.85,0.854 -8.0125,1.7868 -9.25,2.0727 l -2.25,0.5199 -0.012,50.731 c -0.013,54.9573 -0.1,55.9934 -5.6094,66.8831 -3.2034,6.3313 -12.689,16.2732 -19.1249,20.0449 -9.886,5.7936 -26.3168,7.8936 -37.5661,4.8012 z m 2.2516,-156.1416 c -9.1409,-5.6764 -11.043,-20.6133 -3.6911,-28.9866 4.2185,-4.8046 7.721,-6.3701 14.2518,-6.3701 6.5532,0 10.0328,1.565 14.3095,6.4358 7.2095,8.2112 6.2803,19.976 -2.208,27.9544 l -3.1015,2.9152 9.5,-0.6796 c 5.225,-0.3738 11.6619,-0.9537 14.3041,-1.2887 l 4.8042,-0.6091 -3.9925,-1.7875 c -7.9264,-3.5488 -12.7876,-14.4172 -10.2447,-22.9046 1.6441,-5.4875 4.8017,-8.9748 10.55,-11.6514 5.9251,-2.759 10.1902,-2.9905 15.361,-0.8338 13.068,5.4505 16.2704,21.3347 6.4148,31.8181 -2.3137,2.4611 -2.4127,2.7878 -0.6969,2.2991 1.1,-0.3133 5.6,-1.4766 10,-2.5852 4.4,-1.1086 10.4649,-2.8578 13.4776,-3.887 l 5.4775,-1.8713 -4.265,-0.5721 c -4.8565,-0.6514 -10.4536,-4.4968 -13.2715,-9.1181 -3.4117,-5.595 -1.9734,-16.5986 2.8695,-21.954 4.8101,-5.3191 14.6933,-7.1772 21.9804,-4.1325 7.5085,3.1373 11.2315,8.5528 11.2315,16.3375 0,5.822 -1.2898,9.7144 -4.2747,12.9007 l -2.1414,2.2859 3.458,-1.4487 c 1.902,-0.7968 7.9581,-3.5867 13.4581,-6.1998 l 10,-4.7511 -4,-0.6473 c -5.8091,-0.94 -10.1686,-3.5646 -12.9605,-7.8028 -6.5826,-9.9925 -2.8182,-23.4652 7.9191,-28.3424 15.2998,-6.9498 31.6077,9.0591 25.0984,24.6381 l -1.443,3.4536 2.693,-1.6839 c 1.4811,-0.9261 6.518,-4.4072 11.193,-7.7357 7.3256,-5.2157 8.1546,-6.0891 6,-6.3215 -7.1736,-0.7739 -9.4499,-1.6416 -13.2126,-5.0368 -2.2512,-2.0314 -4.6994,-5.1416 -5.4403,-6.9114 -2.8676,-6.8499 -0.664,-16.9754 4.7846,-21.9844 3.057,-2.8103 9.0061,-5.304 12.5862,-5.2757 7.2183,0.057 16.5719,7.6756 17.8612,14.5481 0.3728,1.9871 0.4162,5.8217 0.096,8.5214 -0.3197,2.6997 -0.4816,4.9085 -0.3597,4.9085 0.1219,0 4.594,-4.3875 9.9379,-9.75 l 9.7162,-9.75 -5.4788,0.3422 c -10.7912,0.674 -19.2588,-6.3683 -20.2664,-16.8552 -1.7595,-18.3111 19.3494,-27.9843 33.0619,-15.1506 3.0308,2.8365 6.3019,12.1786 5.2406,14.967 -0.4026,1.0577 -0.301,1.32 0.2697,0.6966 1.6968,-1.8534 8.8307,-11.9578 12.3832,-17.5396 l 3.5258,-5.5395 -4.603,2.3641 c -5.839,2.999 -11.408,2.5558 -17.8041,-1.4169 -8.7932,-5.4615 -11.3915,-16.4153 -6.0541,-25.5227 4.5179,-7.7093 11.6509,-10.8584 20.2408,-8.936 7.8405,1.7546 12.979,7.7809 14.4633,16.9623 l 0.7482,4.6283 4.5379,-9.5 c 2.4958,-5.225 5.2024,-11.0951 6.0146,-13.0447 l 1.4769,-3.5448 -4.5327,2.2948 c -10.0716,5.0988 -21.0529,1.3007 -26.4014,-9.1316 -4.259,-8.3075 0.042,-19.7004 9.1829,-24.3237 5.7854,-2.9262 10.4413,-2.8434 16.7447,0.2977 5.3785,2.6803 7.6406,5.303 9.6971,11.2429 l 1.2467,3.6011 3.1691,-11.4459 c 1.743,-6.2952 3.1687,-11.9956 3.1681,-12.6677 -6e-4,-0.7834 -1.669,-0.3349 -4.6499,1.25 -10.3183,5.4863 -22.6303,1.4386 -27.461,-9.0281 -3.694,-8.0037 -1.215,-17.0789 6.116,-22.3894 8.3557,-6.0529 18.4102,-5.1055 25.6545,2.4174 4.9506,5.1408 4.864,5.2885 5.8783,-10.028 0.6285,-9.4913 0.5774,-9.8849 -1.0044,-7.7366 -2.802,3.8053 -9.4144,6.6235 -15.6398,6.6654 -10.8027,0.073 -19.1254,-7.8857 -19.1254,-18.2888 0,-5.4328 1.7626,-9.4199 5.8915,-13.3264 3.8131,-3.6078 7.3636,-4.8143 14.1543,-4.8099 6.0229,0 11.0036,2.1822 14.4965,6.3399 1.7649,2.1008 1.7951,1.8985 1.1712,-7.8436 -0.3522,-5.5 -0.8847,-11.0364 -1.1833,-12.303 -0.5232,-2.2194 -0.6279,-2.1779 -2.8846,1.1431 -4.719,6.9446 -15.6534,9.5827 -23.9149,5.7699 -16.1541,-7.4557 -14.6582,-29.2609 2.3993,-34.9719 6.5055,-2.1781 13.8541,-0.5973 18.7932,4.0427 l 2.2198,2.0854 -0.8501,-3.3831 c -0.4676,-1.8607 -2.0857,-8.0255 -3.5957,-13.6995 l -2.7455,-10.3165 -2.1105,5.2732 c -4.7354,11.8317 -19.9544,15.7647 -29.2888,7.5689 -6.9119,-6.0686 -8.9571,-14.5111 -5.4085,-22.3253 4.7691,-10.5021 19.855,-14.6571 28.0821,-7.7345 1.6526,1.3906 3.0047,2.2662 3.0047,1.9458 0,-1.0884 -8.8845,-20.357 -10.9438,-23.7348 l -2.0487,-3.3604 -0.026,3.5 c -0.059,7.9861 -6.302,15.932 -14.1865,18.0551 -15.6176,4.2054 -28.62,-13.0422 -20.9604,-27.804 3.2325,-6.2298 9.0346,-9.7266 16.0669,-9.6832 3.3846,0.021 6.9269,0.7389 8.9583,1.8159 2.2812,1.2094 3.1085,1.3535 2.5767,0.4488 -1.6061,-2.732 -11.508,-17.4138 -13.1905,-19.5579 -1.7377,-2.2145 -1.7472,-2.2036 -1.9465,2.2034 -0.4571,10.1095 -8.6174,17.5219 -19.2899,17.5219 -10.0533,0 -17.8227,-6.9967 -18.775,-16.908 -1.2197,-12.6936 7.282,-21.638 19.8892,-20.9247 3.2338,0.183 5.8788,0.3247 5.8778,0.3148 0,-0.01 -4.7398,-4.7348 -10.5308,-10.5 -8.9475,-8.9077 -10.3565,-9.9849 -9.3811,-7.1718 3.7875,10.9234 -3.4365,23.5313 -14.693,25.6431 -7.8667,1.4758 -16.89,-3.9407 -19.961,-11.982 -5.0386,-13.1934 4.7118,-27.3768 18.0888,-26.3129 4.4506,0.3539 4.4672,0.3435 2.2296,-1.4113 -1.2399,-0.9723 -6.8102,-4.8973 -12.3785,-8.7221 l -10.1241,-6.9544 1.8741,3.6761 c 3.976,7.7987 1.0915,19.0957 -6.0891,23.8476 -4.4983,2.9769 -12.3931,4.1031 -17.3331,2.4728 -4.6749,-1.5429 -10.3038,-7.8685 -11.7365,-13.1894 -3.1092,-11.5468 5.1499,-23.8778 15.993,-23.8778 1.7369,0 2.9137,-0.3951 2.6152,-0.8781 -0.4853,-0.7853 -24.7923,-12.1219 -25.9908,-12.1219 -0.269,0 0.594,1.1686 1.9176,2.5968 3.3295,3.5926 4.8048,8.6883 4.2951,14.835 -0.4797,5.7845 -2.5094,9.1295 -7.7074,12.7018 -4.7955,3.2958 -16.1922,3.8477 -20.724,1.0036 -11.569,-7.2604 -12.6161,-23.6305 -1.9779,-30.92 1.8048,-1.2366 5.2683,-2.8289 7.6968,-3.5383 l 4.4153,-1.2898 -11.5,-3.1829 c -6.325,-1.7505 -13.0675,-3.4903 -14.9834,-3.8662 l -3.4833,-0.6833 2.6474,3.1462 c 8.1202,9.6503 5.2644,25.3679 -5.4969,30.2536 -14.4115,6.5431 -30.3771,-4.6858 -28.292,-19.8983 0.8333,-6.0795 4.6323,-11.6065 9.8593,-14.3436 l 4.2489,-2.225 -5,-0.6507 c -2.75,-0.3578 -9.1349,-0.9721 -14.1887,-1.3651 l -9.1887,-0.7144 4.3375,4.3375 c 7.1603,7.1604 8.175,15.5072 2.9742,24.4661 -3.3878,5.8359 -8.3164,8.6428 -15.3121,8.7204 -17.7581,0.1971 -26.1833,-20.5391 -13.5088,-33.2481 l 4.3528,-4.3647 -6.4831,0.6147 c -3.5657,0.3381 -9.4081,0.8921 -12.9831,1.2312 -3.575,0.3391 -6.5,0.9117 -6.5,1.2726 0,0.3608 1.5214,1.4754 3.381,2.4769 6.3089,3.3976 10.2868,11.459 9.0408,18.3217 -1.8226,10.0381 -8.3985,16.3141 -17.9209,17.1038 -17.0169,1.4111 -26.8978,-18.659 -15.7239,-31.9383 l 2.6051,-3.096 -3.441,0.6838 c -1.8926,0.3762 -8.3536,2.086 -14.3577,3.7997 l -10.9165,3.1158 3.9165,1.3237 c 6.4417,2.177 8.6113,3.6227 11.5855,7.7198 2.2973,3.1647 2.8311,4.9436 2.8311,9.4343 0,11.4982 -6.8965,19.1657 -17.2387,19.1657 -6.7401,0 -10.296,-1.2139 -14.1006,-4.8136 -4.0593,-3.8407 -5.6607,-7.4247 -5.6607,-12.6689 0,-5.2605 1.7738,-9.982 5.0269,-13.3807 l 2.262,-2.3633 -2.3945,0.7531 c -1.3169,0.4142 -7.7737,3.2751 -14.3485,6.3575 l -11.9541,5.6043 4.7619,0.6812 c 12.0027,1.7169 18.9738,15.0713 13.7446,26.3304 -4.784,10.3008 -14.717,14.179 -24.5983,9.6041 -9.7604,-4.5189 -13.3058,-13.459 -9.9041,-24.9741 l 0.7001,-2.3701 -2.898,1.8349 c -2.8894,1.8294 -17.2739,12.1081 -18.592,13.2853 -0.3818,0.3409 1.6765,0.6199 4.5739,0.6199 17.0225,0 24.0956,22.5076 10.6329,33.8358 -2.7009,2.2726 -8.5906,4.653 -11.5127,4.653 -2.9575,0 -8.829,-2.3948 -11.6112,-4.7359 -5.8401,-4.9141 -8.75,-15.8523 -5.7378,-21.5686 1.3061,-2.4787 -7.2873,5.2272 -14.2768,12.8023 l -4.6258,5.0134 5.6258,-0.2906 c 6.8064,-0.3516 11.1613,1.6357 15.5097,7.0778 5.7668,7.2172 4.5579,19.7972 -2.5366,26.3962 -7.4814,6.959 -20.8879,5.3742 -27.4631,-3.2463 -1.9595,-2.5691 -2.8585,-5.1109 -3.1804,-8.9926 -0.2468,-2.9761 -0.7995,-5.1944 -1.2282,-4.9294 -0.4287,0.265 -4.0486,5.2844 -8.0442,11.1543 -4.6737,6.8661 -6.5811,10.3907 -5.348,9.8824 5.6295,-2.3206 9.5742,-2.7676 13.8524,-1.5698 11.4282,3.1997 16.7912,16.1746 11.414,27.6141 -3.0633,6.517 -8.4483,9.8706 -15.8498,9.8706 -9.5808,0 -16.1902,-5.5996 -18.4494,-15.6305 l -1.1335,-5.0327 -5.7085,11.9322 c -3.1397,6.5627 -5.7086,12.1708 -5.7086,12.4623 0,0.2915 2.1013,-0.5338 4.6695,-1.834 2.5682,-1.3002 6.2978,-2.364 8.2881,-2.364 4.9249,0 11.7881,3.6978 15.4844,8.3428 2.7271,3.427 3.058,4.5711 3.058,10.5733 0,5.4724 -0.4505,7.3878 -2.4098,10.2473 -3.4822,5.0819 -8.3611,8.0601 -14.109,8.6124 -8.5691,0.8234 -15.575,-3.139 -19.2605,-10.8934 l -2.4127,-5.0764 -3.154,11.9203 c -1.7347,6.5561 -3.154,12.4679 -3.154,13.1374 0,0.6695 1.2375,0.064 2.75,-1.345 10.6737,-9.9447 29.8044,-1.9379 31.0425,12.9924 1.5942,19.2247 -23.4338,28.158 -34.4308,12.2894 l -2.8615,-4.1292 -0.6278,4.4143 c -0.3452,2.4279 -0.9381,8.6894 -1.3174,13.9144 l -0.6896,9.5 2.0133,-2.9421 c 5.4412,-7.9513 17.6636,-10.1366 26.2476,-4.6928 9.3875,5.9534 11.3656,18.6432 4.2283,27.1253 -3.8583,4.5854 -8.0041,6.3539 -14.9332,6.3703 -6.7162,0.016 -11.6542,-2.2813 -15.4031,-7.1653 l -2.0689,-2.6954 0.659,9.5 c 0.3625,5.225 0.9585,11.525 1.3245,14 l 0.6656,4.5 1.6057,-3 c 4.8315,-9.0265 15.3431,-12.7491 24.2958,-8.6041 12.4998,5.7872 15.4689,20.1675 6.1887,29.9733 -7.2737,7.6856 -19.0435,8.2777 -26.9387,1.3552 -2.2943,-2.0116 -2.2766,-1.8612 1.429,12.1436 l 3.1789,12.0145 1.6855,-3.9686 c 3.0072,-7.0807 11.205,-12.4372 18.9566,-12.3864 3.8488,0.025 10.2965,3.3478 13.2054,6.8048 13.1764,15.6592 -3.6999,37.6777 -22.5033,29.3601 l -4.5912,-2.0309 0.911,2.3962 c 0.5011,1.3179 3.0362,6.7647 5.6337,12.104 l 4.7226,9.7079 1.1251,-4.9348 c 1.4322,-6.2815 2.7107,-8.5956 6.5196,-11.8006 9.0947,-7.6527 22.8416,-4.7428 28.0074,5.9285 1.7288,3.5711 2.1111,5.8062 1.7788,10.3995 -0.5447,7.5299 -3.6493,12.2387 -10.2554,15.5549 -5.6924,2.8574 -9.1493,3.0966 -14.2079,0.9829 -1.9746,-0.825 -3.7665,-1.5 -3.9821,-1.5 -0.5372,0 4.0882,7.0768 10.1228,15.4879 l 5.0135,6.9879 0.6146,-5.7069 c 0.7051,-6.5462 2.3522,-9.4977 7.4849,-13.4126 2.8664,-2.1863 4.9442,-2.8512 9.7705,-3.1267 7.7539,-0.4427 11.9075,1.6411 16.38,8.2176 5.8514,8.6039 4.1292,19.2859 -4.1962,26.0277 -3.3516,2.7142 -4.4454,3.0251 -10.6422,3.0251 -3.7987,0 -6.9078,0.01 -6.9091,0.019 -10e-4,0.01 4.5207,4.5103 10.0491,10 7.3161,7.2649 9.7654,9.2151 9,7.1661 -3.4273,-9.1746 1.6608,-20.1598 11.1799,-24.1371 15.5934,-6.5154 30.36,11.2702 22.6243,27.2499 -2.7211,5.621 -9.535,10.2023 -15.174,10.2023 -5.0626,0 -4.4301,0.763 7.4397,8.975 7.9657,5.5109 9.1049,6.0404 8.4874,3.9451 -1.7696,-6.0044 -1.8197,-10.0799 -0.1769,-14.3816 3.6255,-9.493 14.1751,-14.5753 23.6687,-11.4024 9.9971,3.3411 15.491,15.7251 11.3611,25.6094 -2.6498,6.3419 -7.195,9.8884 -14.4619,11.2844 -3.4399,0.6609 -3.3026,0.7665 8,6.1564 6.325,3.0163 12.3894,5.8082 13.4765,6.2044 1.8587,0.6774 1.8478,0.583 -0.1834,-1.5852 -1.1879,-1.268 -2.6399,-3.5723 -3.2265,-5.1206 -1.5058,-3.9743 -1.3241,-12.2893 0.3384,-15.4846 3.1633,-6.0798 10.1522,-10.2011 17.2953,-10.1988 5.9945,0 10.7624,2.3785 14.7286,7.3413 2.8262,3.5364 3.0711,4.4535 3.0711,11.5 0,6.5622 -0.3489,8.1223 -2.4402,10.91 -2.6702,3.5596 -9.2895,7.2297 -13.1255,7.2776 -1.8628,0.023 -2.0821,0.2327 -0.9343,0.8921 1.627,0.9347 14.2706,4.5901 22.8289,6.6001 l 5.3289,1.2515 -2.5259,-2.6371 c -9.3931,-9.8066 -6.4328,-25.5697 5.8681,-31.247 5.4586,-2.5193 10.1857,-2.3493 16.0592,0.5776 9.3351,4.6519 13.453,15.1951 9.4602,24.2214 -2.6839,6.0675 -4.6015,8.1779 -9.4078,10.3539 l -3.8884,1.7605 7.8884,0.6722 c 4.3386,0.3696 8.3384,0.8283 8.8884,1.0193 0.55,0.191 3.475,0.3708 6.5,0.3995 5.427,0.052 5.466,0.031 2.9393,-1.5377 z m -74.5009,-102.7996 -88.9383,-51.4429 -0.2544,-103.8071 -0.2544,-103.8071 88.7543,-51.4024 c 48.8149,-28.2713 89.2044,-51.4068 89.7544,-51.4122 0.55,-0.01 40.9396,23.1109 89.7546,51.3696 l 88.7546,51.3795 -0.2546,103.865 -0.2546,103.8651 -88.8655,51.4177 c -48.876,28.2797 -88.9537,51.4177 -89.0616,51.4177 -0.1078,0 -40.2184,-23.1493 -89.1345,-51.4429 z"
         id="path4194-1"
         inkscape:connector-curvature="0" />
    </g>
  </g>
</svg>
